<svg width="1284" height="608" xmlns="http://www.w3.org/2000/svg" xmlns:xlink="http://www.w3.org/1999/xlink" overflow="hidden"><defs><clipPath id="clip0"><rect x="-1" y="-5" width="1284" height="608"/></clipPath><linearGradient x1="873.492" y1="-192.143" x2="407.508" y2="796.143" gradientUnits="userSpaceOnUse" spreadMethod="reflect" id="fill1"><stop offset="0" stop-color="#7C33D8"/><stop offset="0.28" stop-color="#7C33D8"/><stop offset="1" stop-color="#0C78D1"/></linearGradient></defs><g clip-path="url(#clip0)" transform="translate(1 5)"><path d="M1.27669 600.328C49.7113 643.003 189.001 300.743 294.002 246.704 399.002 192.666 532.659 299.343 631.281 276.094 729.902 252.845 808.05 136.534 885.732 107.209 963.415 77.8844 1054.84 96.6955 1097.37 100.144 1193.62 118.216 1231.6 82.682 1281 87.3524 1281 58.559 1281 29.7655 1281 0.972084L1238.47 0.972084 1025.83 0.972084 770.653 0.972084 515.479 0.972084 260.305 0.972084 47.6607 0.972084 0.28427 0C-1.00075 199.785 2.56171 400.542 1.27669 600.328Z" stroke="#7C33D8" stroke-miterlimit="8" fill="url(#fill1)" fill-rule="evenodd" transform="matrix(-1 1.22465e-16 1.22465e-16 1 1281.5 -2.50005)"/></g></svg>