<svg width="600" height="423" xmlns="http://www.w3.org/2000/svg" xmlns:xlink="http://www.w3.org/1999/xlink" overflow="hidden"><defs><clipPath id="clip0"><rect x="10" y="231" width="600" height="423"/></clipPath><clipPath id="clip1"><rect x="249" y="398" width="65" height="67"/></clipPath><clipPath id="clip2"><rect x="249" y="398" width="65" height="67"/></clipPath><clipPath id="clip3"><rect x="249" y="398" width="65" height="67"/></clipPath></defs><g clip-path="url(#clip0)" transform="translate(-10 -231)"><text fill="#010123" font-family="Hubot-Sans Medium Narrow,Hubot-Sans Medium Narrow_MSFontService,sans-serif" font-weight="500" font-stretch="condensed" font-size="37" transform="translate(93.1185 624)">Secured Remote Work Platform</text><text fill="#010123" font-family="Hubot-Sans Medium Narrow,Hubot-Sans Medium Narrow_MSFontService,sans-serif" font-weight="500" font-stretch="condensed" font-size="27" transform="translate(41.7589 433)">Develop</text><path d="M82.4785 380.898C85.9425 376.725 85.9425 374.111 82.4785 369.961 76.9075 362.881 70.4823 356 61.6943 356 51.922 356 44 364.73 44 375.5 44 386.27 51.922 395 61.6943 395 70.4551 395 76.6622 388.31 82.4785 380.898ZM77.0257 375.66C71.3457 382.831 67.0289 386.988 61.6943 386.988 55.9373 386.988 51.2704 381.844 51.2704 375.5 51.2704 369.156 55.9373 364.012 61.6943 364.012 67.0743 364.012 71.6911 368.489 76.9894 375.21L77.1529 375.43 77.0257 375.66ZM87.9676 375.21C87.9979 375.248 88.0131 375.624 87.9858 375.66L87.804 375.43 87.9676 375.21Z" fill="#FFC000" fill-rule="evenodd"/><path d="M84.5215 370.102C81.0575 374.275 81.0575 376.889 84.5215 381.039 90.0925 388.119 96.5177 395 105.306 395 115.078 395 123 386.27 123 375.5 123 364.73 115.078 356 105.306 356 96.5449 356 90.3378 362.69 84.5215 370.102ZM89.9743 375.34C95.6543 368.169 99.9711 364.012 105.306 364.012 111.063 364.012 115.73 369.156 115.73 375.5 115.73 381.844 111.063 386.988 105.306 386.988 99.9257 386.988 95.3089 382.511 90.0106 375.79L89.8471 375.57 89.9743 375.34ZM79.0324 375.79C79.0021 375.752 78.9869 375.376 79.0142 375.34L79.196 375.57 79.0324 375.79Z" fill="#7030A0" fill-rule="evenodd"/><text fill="#010123" font-family="Hubot-Sans Medium Narrow,Hubot-Sans Medium Narrow_MSFontService,sans-serif" font-weight="500" font-stretch="condensed" font-size="27" transform="translate(250.122 326)">Access</text><path d="M247 283 322.069 283" stroke="#4F08A9" stroke-width="6" stroke-miterlimit="8" fill="none" fill-rule="evenodd"/><path d="M255 240.667C255 236.985 257.985 234 261.667 234L305.333 234C309.015 234 312 236.985 312 240.667L312 267.333C312 271.015 309.015 274 305.333 274L261.667 274C257.985 274 255 271.015 255 267.333Z" stroke="#4F08A9" stroke-width="4" stroke-miterlimit="8" fill="none" fill-rule="evenodd"/><text fill="#010123" font-family="Hubot-Sans Medium Narrow,Hubot-Sans Medium Narrow_MSFontService,sans-serif" font-weight="500" font-stretch="condensed" font-size="27" transform="translate(420.409 438)">Collaboration</text><rect x="435" y="372" width="39" height="28" stroke="#4F08A9" stroke-width="4" stroke-miterlimit="8" fill="none"/><rect x="492" y="372" width="38" height="28" stroke="#C00000" stroke-width="4" stroke-miterlimit="8" fill="none"/><rect x="464" y="349" width="38" height="31" stroke="#92D050" stroke-width="4" stroke-miterlimit="8" fill="none"/><path d="M276.953 375.863C276.953 375.863 239.935 392.39 235.968 394.187 232.002 395.983 230.019 400.294 230.019 404.606 230.019 408.918 227.044 465.177 276.953 492.379 276.953 492.379 281.483 493.741 284.919 492.379 288.356 491.016 331.985 468.022 331.985 404.426 331.985 404.426 331.985 397.959 325.044 394.366 318.103 390.773 284.545 375.863 284.545 375.863 284.545 375.863 280.423 373.886 276.953 375.863Z" fill="#4F08A9" fill-rule="evenodd"/><g clip-path="url(#clip1)"><g clip-path="url(#clip2)"><g clip-path="url(#clip3)"><path d="M33.8542 46.8542 33.8542 50.4427 31.1458 50.4427 31.1458 46.8542C29.5885 46.3125 28.4375 44.8229 28.4375 42.9948 28.4375 40.7604 30.2656 38.9323 32.5 38.9323 34.7344 38.9323 36.5625 40.7604 36.5625 42.9948 36.5625 44.7552 35.4115 46.2448 33.8542 46.8542ZM22.3438 22.0052C22.3438 16.3854 26.8802 11.849 32.5 11.849 38.1198 11.849 42.6562 16.3854 42.6562 22.0052L42.6562 29.5208 32.5 28.776 22.3438 29.5208 22.3438 22.0052ZM46.7188 29.7917 46.7188 22.0052C46.7188 14.151 40.3542 7.78646 32.5 7.78646 24.6458 7.78646 18.2812 14.151 18.2812 22.0052L18.2812 29.7917 13.5417 30.1302 13.5417 55.8594 32.5 57.2135 51.4583 55.8594 51.4583 30.1302 46.7188 29.7917Z" stroke="#7030A0" stroke-width="0.676955" fill="#FFFFFF" transform="matrix(1 0 0 1.03077 249 398)"/></g></g></g><text fill="#595959" font-family="Agency FB,Agency FB_MSFontService,sans-serif" font-weight="400" font-stretch="condensed" font-size="88" transform="translate(207.753 581)">Reim</text><path d="M350 578 420.546 578" stroke="#595959" stroke-width="6" stroke-miterlimit="8" fill="none" fill-rule="evenodd"/><path d="M359 546.833C359 544.164 361.164 542 363.833 542L405.167 542C407.836 542 410 544.164 410 546.833L410 566.167C410 568.836 407.836 571 405.167 571L363.833 571C361.164 571 359 568.836 359 566.167Z" stroke="#595959" stroke-width="4" stroke-miterlimit="8" fill="none" fill-rule="evenodd"/><text fill="#FFC000" font-family="Agency FB,Agency FB_MSFontService,sans-serif" font-weight="400" font-stretch="condensed" font-size="88" transform="translate(162.28 580)">@</text></g></svg>