<svg width="267" height="410" xmlns="http://www.w3.org/2000/svg" xmlns:xlink="http://www.w3.org/1999/xlink" overflow="hidden"><defs><clipPath id="clip0"><rect x="804" y="136" width="267" height="410"/></clipPath></defs><g clip-path="url(#clip0)" transform="translate(-804 -136)"><path d="M5.33069 30.0746 3.81072 28.4109C3.81072 28.4109 0.0395662 28.1436 0.0395662 22.4238 0.0395662 16.7041 4.73486 0.074507 4.73486 0.074507L6.52119 0.074507 6.52119 12.9131C6.52119 12.9131 7.91127 13.9765 10.9529 9.18775 13.995 4.39908 14.7893 0.40806 18.8893 0.40806L43.3608 0.40806C43.3608 0.40806 45.4771 1.07289 42.236 3.46748 38.9954 5.86156 30.2664 12.6468 30.2664 12.6468L15.8472 16.2383Z" fill="#07192B" fill-rule="evenodd" transform="matrix(1 0 0 -1 905 545)"/><path d="M9.44867 22.0739C9.44867 22.0739 3.50428 15.3553 1.70037 10.3487-0.102511 5.34308-1.57267 0.0738524 3.57075 0.0738524L23.9411 0.0738524C23.9411 0.0738524 27.75 0.92971 25.0775 10.2171 22.6061 19.0432 20.1351 21.7436 20.1351 21.7436Z" fill="#07192B" fill-rule="evenodd" transform="matrix(1 0 0 -1 840 544)"/><path d="M9.72415 29.0741C9.72415 29.0741 9.33467 21.1667 14.5345 14.5445 19.7345 7.92241 26.0397 3.12438 26.0397 3.12438 26.0397 3.12438 22.1376-2.28132 15.8991 1.29971 9.66004 4.88067 1.14402 12.4499 0.0397464 19.1398 1.20972 24.681 1.20972 27.3838 1.20972 27.3838Z" fill="#EFA895" fill-rule="evenodd" transform="matrix(1 0 0 -1 909 536)"/><path d="M5.55857 23.0036C5.55857 23.0036 3.98629 13.1922 2.20823 9.32063 0.42956 5.44849-2.03323 1.17705 3.09639 0.709642 8.226 0.243338 17.8022-1.49198 16.9797 3.91407 16.159 9.32063 15.1319 17.4626 14.929 22.6689 14.7233 27.8752 5.55857 23.0036 5.55857 23.0036" fill="#EFA895" fill-rule="evenodd" transform="matrix(1 0 0 -1 845 535)"/><path d="M3.3231 16.0177C3.3231 16.0177 0.225135 16.0177 0.0456304 11.0605-0.0923166 7.24396 2.34382 0.0938775 3.76198 0.0180359 5.18014-0.0584093 7.04005 10.1035 7.04005 10.1035Z" fill="#EFA895" fill-rule="evenodd" transform="matrix(1 0 0 -1 907 218)"/><path d="M0.0796681 49.0261C0.0796681 49.0261 14.7808 38.0224 22.9017 27.5979 24.4163 19.8476 25.0349 0.0261504 25.0349 0.0261504 25.0349 0.0261504 17.1204 2.63199 8.03528 11.6857-1.04986 20.7394 0.0796681 49.0261 0.0796681 49.0261" fill="#2DA08A" fill-rule="evenodd" transform="matrix(1 0 0 -1 886 275)"/><path d="M9.88257 212.065C9.88257 212.065 3.20311 204.041 0.582823 183.942-2.03585 163.844 5.3213 96.8088 8.31475 66.6006 11.3087 36.3908 12.9292 0.0647458 12.9292 0.0647458L23.1563 0.0647458C23.1563 0.0647458 30.6933 50.1906 30.8611 76.1313 31.0289 102.072 32.9471 125.063 38.164 141.234 45.2326 117.145 49.877 97.1867 50.3819 84.8908 50.8874 72.5942 48.866 71.0781 58.1227 44.9689 67.3782 18.8597 71.418 3.19454 71.418 3.19454L83.0292 4.87918C83.0292 4.87918 76.1299 58.9495 75.1201 74.6147 74.1108 90.281 77.9807 123.127 68.5568 165.407 59.1325 207.687 59.721 210.972 59.721 210.972Z" fill="#193660" fill-rule="evenodd" transform="matrix(1 0 0 -1 837 513)"/><path d="M46.9553 43.3218C46.9553 43.3218 50.8667 40.324 54.2166 50.4291 57.5686 60.5337 50.1951 67.4191 39.5823 64.1987 29.4157 71.1949 17.9102 70.7499 10.8722 61.6442 3.83259 52.5385 11.6555 33.5491 5.73305 25.1094-0.188252 16.6697 0.0344749 7.78596 0.0344749 7.78596 0.0344749 7.78596 12.4366-0.0988589 23.0499 2.89957 33.6621 5.89851 47.7391 0.012129 47.7391 0.012129 47.7391 0.012129 53.8838 12.6718 47.5153 26.7748 41.1473 40.8778 46.9553 43.3218 46.9553 43.3218" fill-rule="evenodd" transform="matrix(1 0 0 -1 836 216)"/><path d="M19.7651 11.5933C19.7651 11.5933 18.5955 4.16152 20.0329 0.836525 12.0051-0.792986 2.87576-0.20581 0.0328615 4.48776 0.668057 11.3323 2.93065 18.479 1.78277 22.9886 6.38755 23.6528 19.7651 11.5933 19.7651 11.5933" fill="#EFA895" fill-rule="evenodd" transform="matrix(1 0 0 -1 853 215)"/><path d="M0.628651 14.9892C1.3242 12.2375 0.725 8.47859 0.0295275 4.41492 2.69353-2.80581 15.0848 0.828709 17.7704 1.71428 17.8911 3.00292 18.0295 3.88842 18.0295 3.88842 18.0295 3.88842 5.08394 15.6358 0.628651 14.9892" fill="#EFA895" fill-rule="evenodd" transform="matrix(1 0 0 -1 854 207)"/><path d="M38.9459 89.308C38.9459 89.308 41.2828 100.251 44.2382 100.026 45.5938 99.9231 45.6368 96.6313 54.7793 94.8566 62.5094 93.3551 64.8334 95.3004 65.8219 95.5403 68.2597 96.1299 68.3222 88.1079 68.3222 88.1079 68.3222 88.1079 75.5719 85.0139 81.5492 77.8136 87.5266 70.6134 96.1749 58.6131 94.9024 53.0551 93.6305 47.4972 87.9076 45.4759 87.6538 37.5182 87.3994 29.5599 89.0528 5.68573 89.0528 5.68573 89.0528 5.68573 64.762-7.45147 38.5633 6.31683 50.5179 26.0232 38.1817 43.9599 32.7137 54.9501 26.6086 50.9075 17.9603 36.7608 17.9603 36.7608 17.9603 36.7608 12.6195 45.3495 0.0283447 47.6235 10.2029 73.14 24.5758 92.2142 38.9459 89.308" fill="#2FB29F" fill-rule="evenodd" transform="matrix(1 0 0 -1 808 307)"/><path d="M0.0292729 6.02012C0.0292729 6.02012 8.5622-1.17816 24.0293 1.72599 15.1996-2.37661 3.2891 1.66362 0.0292729 6.02012" fill="#218977" fill-rule="evenodd" transform="matrix(1 0 0 -1 848 224)"/><path d="M0.0286516 3.01619C0.0286516 3.01619 4.8548 0.859438 11.0287 0.123915 6.81922-0.415895 1.83898 1.15403 0.0286516 3.01619" fill="#218977" fill-rule="evenodd" transform="matrix(1 0 0 -1 855 227)"/><path d="M0.0327483 16.0281C0.0327483 16.0281 8.54521 5.45151 20.0327 0.0281277 10.0681 3.96074 3.77001 9.316 0.0327483 16.0281" fill="#218977" fill-rule="evenodd" transform="matrix(1 0 0 -1 869 281)"/><path d="M0.0318475 3.0202C0.0318475 3.0202 9.9695-1.23138 24.0319 1.98457 19.0967 0.131853 10.1058-1.72134 0.0318475 3.0202" fill="#218977" fill-rule="evenodd" transform="matrix(1 0 0 -1 868 262)"/><path d="M14.8594 22.9196C15.6121 37.1803 10.8223 49.2675 4.59529 58.0273 1.85783 56.7371 0.420113 55.3111 0.420113 55.3111L0.0295011 54.6695C0.179224 54.7776 0.32843 54.8841 0.474309 54.9811 5.95138 43.9834 18.3082 26.0345 6.33415 6.31527 15.4428 1.53306 24.3184-0.00168742 32.0295 0.027659 22.8242 2.74785 14.2241 10.8695 14.8594 22.9196" fill="#218977" fill-rule="evenodd" transform="matrix(1 0 0 -1 840 307)"/><path d="M5.23354 56.4139C5.23354 56.4139 1.85016 37.4451 0.814218 28.0637-0.221145 18.6823-1.32483 2.74898 5.44018 0.404045 12.2041-1.94089 16.4857 6.81894 16.0018 21.1666 15.593 33.2888 12.84 50.4423 13.6545 58.3459 14.1371 63.0375 5.23354 56.4139 5.23354 56.4139" fill="#EFA895" fill-rule="evenodd" transform="matrix(1 0 0 -1 906 277)"/><path d="M6.43553 37.6445 34.042 57.0141 34.042 0.0140788 5.36619 20.7093 0.0419216 23.2025 0.252198 35.0748Z" fill="#F65B00" fill-rule="evenodd" transform="matrix(1 0 0 -1 915 220)"/><path d="M12.0472 28.5128C12.0472 12.7726 9.36112 0.0128262 6.04718 0.0128262 2.73273 0.0128262 0.047221 12.7726 0.047221 28.5128 0.047221 44.2532 2.73273 57.0129 6.04718 57.0129 9.36112 57.0129 12.0472 44.2532 12.0472 28.5128" fill="#F69A00" fill-rule="evenodd" transform="matrix(1 0 0 -1 944 220)"/><path d="M8.3902 0.0117203 8.03956 15.057C8.03956 15.057 0.109986 13.0823 0.0394289 24.5879 0.0394289 24.5879-0.0339444 32.188 9.65377 32.0086 20.0372 31.8163 20.0394 32.0086 20.0394 32.0086 20.0394 32.0086 16.6003 30.2388 16.6003 24.452 16.6003 18.6647 19.1959 15.057 19.1959 15.057L15.1972 15.057 15.1972 0.215496Z" fill="#0C386D" fill-rule="evenodd" transform="matrix(1 0 0 -1 902 215)"/><path d="M1.03963 0.424832C1.03963 0.196251 0.815148 0.0107552 0.539895 0.0107552 0.263495 0.0107552 0.0396274 0.196251 0.0396274 0.424832L0.0396274 3.59579C0.0396274 3.82482 0.263495 4.01082 0.539895 4.01082 0.815148 4.01082 1.03963 3.82482 1.03963 3.59579Z" fill="#06223F" fill-rule="evenodd" transform="matrix(1 0 0 -1 904 193)"/><path d="M1.03998 0.424832C1.03998 0.196251 0.81584 0.0107552 0.539638 0.0107552 0.264047 0.0107552 0.0399052 0.196251 0.0399052 0.424832L0.0399052 3.59579C0.0399052 3.82482 0.264047 4.01082 0.539638 4.01082 0.81584 4.01082 1.03998 3.82482 1.03998 3.59579Z" fill="#06223F" fill-rule="evenodd" transform="matrix(1 0 0 -1 906 193)"/><path d="M1.04019 0.424832C1.04019 0.196251 0.816181 0.0107552 0.539537 0.0107552 0.26358 0.0107552 0.04011 0.196251 0.04011 0.424832L0.04011 3.59579C0.04011 3.82482 0.26358 4.01082 0.539537 4.01082 0.816181 4.01082 1.04019 3.82482 1.04019 3.59579Z" fill="#06223F" fill-rule="evenodd" transform="matrix(1 0 0 -1 907 193)"/><path d="M9.70608 17.8508C9.70608 17.8508 2.36499 19.5021 0.766015 12.4159-0.834187 5.32965 0.110396-0.311218 4.68975 0.0325533 9.27033 0.376325 14.9405 3.74646 13.9223 10.283 12.9053 16.8195 10.2851 17.7591 9.70608 17.8508" fill="#EFA895" fill-rule="evenodd" transform="matrix(1 0 0 -1 909 222)"/><path d="M46.5801 16.9473C39.6104 18.3213 32.2603 29.1824 27.5713 37.1735 22.9891 44.9823 21.6873 52.3694 14.5178 58.8984 15.5845 60.1832 16.4655 61.2141 17.198 62.051 14.3007 64.3816 9.95986 66.9062 3.9684 68.0286 2.79545 66.5293 1.03122 63.8611 0.0719836 60.3966-1.4492 54.9023 37.0771 12.3277 37.0771 12.3277 37.0771 12.3277 39.104 6.58505 46.0744 0.591401 54.4382-1.90496 61.0282 4.71111 61.0282 4.71111 61.0282 4.71111 53.5504 15.5749 46.5801 16.9473" fill="#EFA895" fill-rule="evenodd" transform="matrix(1 0 0 -1 804 328)"/><path d="M37.6494 34.5455C37.6494 34.5455 35.9549 26.4207 36.5193 18.8528 37.0832 11.2842 36.9715 0.934174 29.8553 0.155024 22.739-0.624198 12.9139 1.49093 6.25043 13.9561 6.25043 13.9561-0.0766226 14.0674 0.035673 24.5291 0.827093 29.0916 6.13643 29.0916 7.04014 24.7511 7.04014 24.7511 7.37822 22.9707 7.82985 22.9707 8.28193 22.9707 15.0595 27.5348 17.5443 33.6561 20.0291 39.7769 20.4812 44.0072 19.6909 48.0123 28.1624 48.0123 40.3594 43.782 37.6494 34.5455" fill="#EA6354" fill-rule="evenodd" transform="matrix(1 0 0 -1 848 205)"/><path d="M37.6494 34.5455C37.6494 34.5455 35.9549 26.4207 36.5193 18.8528 37.0832 11.2842 36.9715 0.934174 29.8553 0.155024 22.739-0.624198 12.9139 1.49093 6.25043 13.9561 6.25043 13.9561-0.0766226 14.0674 0.035673 24.5291 0.827093 29.0916 6.13643 29.0916 7.04014 24.7511 7.04014 24.7511 7.37822 22.9707 7.82985 22.9707 8.28193 22.9707 15.0595 27.5348 17.5443 33.6561 20.0291 39.7769 20.4812 44.0072 19.6909 48.0123 28.1624 48.0123 40.3594 43.782 37.6494 34.5455" fill="#EFA895" fill-rule="evenodd" transform="matrix(1 0 0 -1 848 205)"/><path d="M0.0462402 2.56536C-0.109323 1.50435 1.10407 0.396858 2.75414 0.0922393 4.40475-0.213083 5.86627 0.400907 6.01949 1.46113 6.17506 2.52276 4.96166 3.63025 3.31222 3.93557 1.66153 4.2409 0.198919 3.62691 0.0462402 2.56536" fill="#EFA895" fill-rule="evenodd" transform="matrix(1 0 0 -1 864 186)"/><path d="M7.96061 0.0254534C8.53023 0.511507 5.56422 2.54976 3.93478 2.92067 2.30534 3.29043 0.146324 2.40695 0.0361275 2.17368-0.0734883 1.93926 2.11455 2.57857 3.51373 2.20652 5.15187 1.77107 7.71446-0.183051 7.96061 0.0254534" fill="#1B2630" fill-rule="evenodd" transform="matrix(1 0 0 -1 867 176)"/><path d="M0.0347849 0.107065C0.0925943 0.546048 0.175625 1.23294 1.05531 1.68613 2.09984 2.22244 3.12086 1.99553 3.02664 1.72331 2.93291 1.45181 1.94193 1.57272 1.26997 0.976272 0.791338 0.550784-0.0139565-0.26641 0.0347849 0.107065" fill="#1B2630" fill-rule="evenodd" transform="matrix(1 0 0 -1 881 176)"/><path d="M0.0456578 1.58596C-0.0459463 0.757808 0.320975 0.0524743 0.864974 0.0105911 1.41005-0.0316531 1.9247 0.605019 2.01731 1.43179 2.11 2.25952 1.74423 2.96486 1.19915 3.00674 0.653996 3.04856 0.138344 2.41189 0.0456578 1.58596" fill="#1B2630" fill-rule="evenodd" transform="matrix(1 0 0 -1 872 180)"/><path d="M0.0715265 2.11365C-0.0682802 1.01001 0.48045 0.0707681 1.29819 0.0143622 2.11517-0.0414017 2.89038 0.807494 3.02868 1.90986 3.16686 3.01286 2.61564 3.95274 1.79952 4.00915 0.984165 4.06499 0.208087 3.21666 0.0715265 2.11365" fill="#1B2630" fill-rule="evenodd" transform="matrix(1 0 0 -1 880 182)"/><path d="M2.02508 11.0124C2.02508 11.0124 1.82458 7.54616 2.76763 3.87359 3.70756 0.201608 1.86848-0.962079 0.7689 0.861057-0.331214 2.68303-0.433225 7.71025 2.02508 11.0124" fill="#EFA895" fill-rule="evenodd" transform="matrix(1 0 0 -1 876 191)"/><path d="M8.03653 3.93617C8.03653 3.93617 3.54983 2.84556 0.0365271 6.01406 0.850173 0.557921 5.57557-3.1958 8.03653 3.93617" fill="#FFFFFF" fill-rule="evenodd" transform="matrix(1 0 0 -1 873 198)"/><path d="M0.517187 4.75338C0.600949 3.53599 1.1003 2.42075 1.92412 1.61168 2.74083 0.811711 3.77609 0.409806 4.84129 0.477645 7.06384 0.614247 8.71553 2.77746 8.54573 5.26819 8.46138 6.48565 7.9632 7.60081 7.13879 8.40889 6.32377 9.20886 5.28793 9.61176 4.22272 9.54293 4.14946 9.53809 4.07627 9.53104 4.0052 9.52193 1.88529 9.25833 0.353478 7.16239 0.517187 4.75338M4.87234 0.0187214C3.66736-0.0582285 2.50055 0.392651 1.58849 1.28836 0.681923 2.17545 0.134931 3.39612 0.0444876 4.7227-0.141391 7.46585 1.69721 9.8377 4.19108 10.0018 5.39614 10.0793 6.56229 9.62899 7.47604 8.73271 8.37982 7.84562 8.92857 6.62552 9.01843 5.29887 9.19983 2.64669 7.4872 0.337768 5.11871 0.0424257 5.03715 0.0321752 4.95559 0.0241314 4.87234 0.0187214" fill-rule="evenodd" transform="matrix(1 0 0 -1 867 184)"/><path d="M0.494501 4.78388C0.579167 3.5551 1.03237 2.42615 1.77253 1.60474 2.49706 0.799552 3.41062 0.390528 4.34534 0.449368 6.29782 0.571333 7.74475 2.72399 7.57195 5.23775 7.48832 6.46653 7.03408 7.59549 6.29443 8.41689 5.56821 9.22151 4.65413 9.63111 3.72111 9.5717 3.66587 9.56848 3.6096 9.56313 3.55495 9.55606 1.67216 9.32134 0.32893 7.22531 0.494501 4.78388M4.37373 0.0170664C3.29859-0.0509137 2.25523 0.410523 1.43586 1.31983 0.63212 2.21185 0.139463 3.43257 0.048602 4.75525-0.138726 7.5048 1.47436 9.8664 3.69154 10.004 4.76779 10.072 5.81173 9.61111 6.63111 8.70181 7.43595 7.80971 7.92809 6.58907 8.01895 5.26581 8.20119 2.59717 6.68627 0.300412 4.5688 0.0359895 4.50531 0.027849 4.43952 0.0219222 4.37373 0.0170664" fill-rule="evenodd" transform="matrix(1 0 0 -1 879 185)"/><path d="M4.71711 0.0970622 5.03666 0.444823C4.95763 0.497376 3.05971 1.71665 0.0365773 0.400995L0.273566 0.00954263C2.98921 1.18867 4.64966 0.142458 4.71711 0.0970622" fill-rule="evenodd" transform="matrix(1 0 0 -1 875 178)"/><path d="M14.0106 1.19858 14.0309 2.01777 0.0512898 0.836961 0.0309344 0.0177699Z" fill-rule="evenodd" transform="matrix(1 0 0 -1 853 178)"/><path d="M0.0504962 0.0039861 0.865586 0.449174 65.89 36.0041 69.0505 26.0417Z" fill="#F69A00" fill-rule="evenodd" transform="matrix(1 0 0 -1 969 173)"/><path d="M0.0507019 7.57689 104.051 9.01328 101.944 0.0132081Z" fill="#F69A00" fill-rule="evenodd" transform="matrix(1 0 0 -1 966 195)"/><path d="M0.0498883 37.021 64.05 5.59646 54.3574 0.0208917Z" fill="#F69A00" fill-rule="evenodd" transform="matrix(1 0 0 -1 964 242)"/></g></svg>