<svg width="571" height="411" xmlns="http://www.w3.org/2000/svg" xmlns:xlink="http://www.w3.org/1999/xlink" overflow="hidden"><defs><clipPath id="clip0"><rect x="246" y="166" width="571" height="411"/></clipPath></defs><g clip-path="url(#clip0)" transform="translate(-246 -166)"><path d="M13.0162 30.4651 14.197 31.0828C22.7619 34.2705 22.7916 46.2033 31.3652 49.3801 37.5674 51.6139 44.407 52.3656 50.8981 55.1992 67.1271 62.1349 82.1603 69.6346 100.29 70.9305 131.823 73.1416 100.199 35.7191 93.2413 26.6062 86.6006 17.5151 82.9175 9.06246 71.704 4.33696 63.7439 0.870609 51.8217 0.611864 42.8827 0.702036 32.746 0.77245 15.8372-2.29528 7.35949 4.07412-2.9435 11.6017-3.50375 23.24 13.0162 30.4651" fill="#C18C52" fill-rule="evenodd" transform="matrix(1 0 0 -1 489 380)"/><path d="M2.98753 0.031624C46.3306 1.00892 118.284 54.885 119.036 55.4489L118.592 56.0218C117.836 55.4519 42.7621-0.74847 0.0575678 0.78293L0.0356773 0.0564189C0.996859 0.0157595 1.98477 0.0157595 2.98753 0.031624" fill="#0D4444" fill-rule="evenodd" transform="matrix(1 0 0 -1 481 370)"/><path d="M14.4218 63.5806C30.91 67.5759 54.7843 63.0531 67.2634 53.1932 75.3196 47.5896 79.6994 44.7976 88.4452 40.6581 97.9052 36.5245 99.4231 32.9431 105.39 24.3894L106.147 22.2416C123.142 3.80432 79.2065 2.79662 70.5788 1.88378 51.161-0.00324628 27.4736-4.15754 11.2335 12.8442-0.580711 25.6007-7.80159 58.0224 14.4218 63.5806" fill="#C18C52" fill-rule="evenodd" transform="matrix(1 0 0 -1 360 388)"/><path d="M9.31438 28.7108C14.2708 34.7228 23.6308 39.3552 30.0855 43.1772 39.3839 50.0248 73.7318 75.8575 68.4973 49.2194 65.895 35.9033 8.07127-13.3097 0.420018 3.46332L0.0368345 4.19339C2.00664 13.8171 2.93602 21.2087 9.31438 28.7108" fill="#FCAA48" fill-rule="evenodd" transform="matrix(1 0 0 -1 490 323)"/><path d="M73.9382 8.02627C75.6071 30.4759 54.2268 40.8462 37.2809 49.1429 29.1587 53.2937-1.17661 72.8528 0.0672952 50.4644 0.297132 40.3517 14.2837 34.161 20.9748 28.5288 28.4124 22.192 32.9621 14.3384 39.6731 7.98871 50.0811-1.18235 64.7194-3.74634 73.9452 7.30982" fill="#FCAA48" fill-rule="evenodd" transform="matrix(1 0 0 -1 394 326)"/><path d="M0.680515 4.34981 1.40195 5.08126C4.97033 8.06363 51.4304 48.9343 48.9377 30.047 48.3586 23.5149 28.2093 12.1995 23.1921 8.45801 15.2982 2.50123 10.2561 0.208925 1.51934 0.0122589 0.748123 1.4455-0.864882 0.32858 0.680515 4.34981" fill="#C18C52" fill-rule="evenodd" transform="matrix(1 0 0 -1 482 281)"/><path d="M11.886 25.744C22.0994 22.2725 30.2873 11.3187 37 3.30854L37 2.93145C38.1106-6.68938 6.44692 10.0275 1.9583 16.6055-2.58279 25.4135 0.955429 29.2073 11.886 25.744" fill="#C18C52" fill-rule="evenodd" transform="matrix(1 0 0 -1 435 281)"/><path d="M3.8534 54.4324C14.4514 61.9632 34.3101 40.5584 38.7958 32.6487 44.769 21.8508 37.865 10.0385 28.7132 1.81161L28.3595 1.4456C18.7746-3.51021 12.1233 5.07777 6.85078 16.6135 3.08328 24.546-4.6125 47.6874 3.8534 54.4324" fill="#FCAA48" fill-rule="evenodd" transform="matrix(1 0 0 -1 454 263)"/><path d="M6.25663 34.0235 6.97679 34.0354C22.0959 32.1988 35.0947 28.8653 48.9047 21.2038 64.1414 13.5631 70.8544 2.10654 49.3692 0.166007 34.3187-0.895977 19.1221 4.55244 8.83069 15.2136 3.69721 20.1686-6.63239 32.9903 6.25663 34.0235" fill="#FCAA48" fill-rule="evenodd" transform="matrix(1 0 0 -1 498 421)"/><path d="M1.05352 8.34978C4.43955 18.1398 48.0705 36.3344 49.0262 25.9101 43.5123 13.828 31.3641 8.31207 20.6208 4.32349 13.4775 1.1689-4.42889-5.22188 1.05352 8.34978" fill="#E2923B" fill-rule="evenodd" transform="matrix(1 0 0 -1 425 419)"/><path d="M0.248115 0.0149029C9.55527 2.98906 29.8711 15.187 73.8425 56.4295 75.0782 57.5787 75.8965 58.3384 76.034 58.4506L75.5979 59.015C75.4298 58.888 74.7874 58.2876 73.3553 56.9352 29.4772 15.7943 9.2626 3.6481 0.0339427 0.700332Z" fill="#0D4444" fill-rule="evenodd" transform="matrix(1 0 0 -1 479 326)"/><path d="M77.5495 0.0196322C78.4582 0.0314955 78.9538 0.178054 79.0314 0.20976L78.7896 0.892162C78.707 0.87337 70.7692-1.50076 54.0645 14.4032 53.6843 14.73 17.3441 46.3497 0.226377 51.0157L0.0313299 50.3096C16.9868 45.693 53.2047 14.1843 53.5748 13.8604 66.7296 1.34192 74.5152-0.0714947 77.5495 0.0196322" fill="#0D4444" fill-rule="evenodd" transform="matrix(1 0 0 -1 399 322)"/><path d="M0.575539 0.0124563C7.2295 7.40098 49.6115 36.1105 50.0339 36.4018L49.6275 37.0125C47.8826 35.8362 6.7534 7.96045 0.0337807 0.507622Z" fill="#0D4444" fill-rule="evenodd" transform="matrix(1 0 0 -1 477 286)"/><path d="M39.3634 0.0130684 40.0324 0.284933C39.7578 1.03632 32.1897 7.27572 24.5378 12.8656 17.0365 18.3536 6.73082 25.2667 0.22404 27.0132L0.0322778 26.3336C12.0554 23.0746 38.7384 1.04794 39.3634 0.0130684" fill="#0D4444" fill-rule="evenodd" transform="matrix(1 0 0 -1 439 285)"/><path d="M21.345 0.0115155 22.0352 0.268311C15.8407 16.9043 10.5699 53.1155 10.5055 53.476 5.08365 83.7327 6.24667 141.741 6.26885 142.323 9.70757 183.231 0.811853 205.792 0.721208 206.012L0.0350847 205.751C0.125622 205.524 8.95704 183.103 5.52535 142.354 5.50616 141.752 4.34623 83.6842 9.7851 53.3644 9.83735 53.0187 15.1203 16.7304 21.345 0.0115155" fill="#0D4444" fill-rule="evenodd" transform="matrix(1 0 0 -1 472 429)"/><path d="M112.98 0.0244001 113.032 0.741268C112.186 0.806334 26.7107 8.37375 0.544989 33.0245L0.0315537 32.5242C26.385 7.68314 112.12 0.10213 112.98 0.0244001" fill="#0D4444" fill-rule="evenodd" transform="matrix(1 0 0 -1 369 372)"/><path d="M71.8752 0.0306237 72.0423 0.707715C71.7838 0.762531 46.9666 6.58809 34.0276 14.2906 32.9955 14.7962 9.37562 26.4992 0.0421973 24.8765L0.172019 24.1879C9.27633 25.7624 33.43 13.7975 33.6767 13.6714 46.6894 5.92161 71.6246 0.0836028 71.8752 0.0306237" fill="#0D4444" fill-rule="evenodd" transform="matrix(1 0 0 -1 484 412)"/><path d="M0.457549 0.0323749C0.759757 0.277529 30.8225 23.8283 54.0208 23.2938L54.0266 24.0223C30.5983 24.595 0.32877 0.85836 0.026562 0.617146Z" fill="#0D4444" fill-rule="evenodd" transform="matrix(1 0 0 -1 430 414)"/><path d="M90.7821 27.5958 89.7465 28.3437C82.1206 32.5777 83.8337 43.8021 76.2028 48.0301 70.6732 51.0264 64.3323 52.7213 58.6112 56.3219 44.3081 65.1913 31.2194 74.4143 14.2983 78.2808-15.1309 84.9127 9.2835 45.1533 14.5147 35.5938 19.4707 26.0703 21.7316 17.5952 31.6186 11.529 38.6319 7.11265 49.8348 5.13605 58.2869 3.9441 67.8565 2.54011 83.3618-2.80028 92.2908 1.95654 103.104 7.54191 105.312 18.3928 90.7821 27.5958" fill="#E2923B" fill-rule="evenodd" transform="matrix(1 0 0 -1 458 374)"/><path d="M100.221 0.423718C59.9657 7.53118 0.642929 67.9235 0.0428549 68.5441L0.527252 69.0199C1.14807 68.3895 63.036 5.3798 103.043 0.700524L102.968 0.019839C102.059 0.121331 101.141 0.268139 100.221 0.423718" fill="#0D4444" fill-rule="evenodd" transform="matrix(1 0 0 -1 462 368)"/><path d="M97.1505 55.9285C82.2124 62.0637 59.0831 61.276 45.9139 53.8471 37.5337 49.7508 33.0029 47.7616 24.1707 45.1353 14.6745 42.6379 12.7238 39.4916 5.88886 32.3232L4.85307 30.4172C-13.7958 15.5881 27.4224 8.28004 35.3999 6.17092 53.4087 1.58221 75.0995-5.76245 92.8343 7.85897 105.799 18.1212 117.264 47.4802 97.1505 55.9285" fill="#FCAA48" fill-rule="evenodd" transform="matrix(1 0 0 -1 574 398)"/><path d="M52.8257 27.1632C49.0157 33.4473 40.8719 39.0985 35.3547 43.5888 27.575 51.2761-1.03752 80.2032 0.0752038 54.7411 0.626064 42.0024 47.9909-11.9953 57.5866 2.4533L58.0437 3.07713C57.5677 12.283 57.7464 19.2686 52.8257 27.1632" fill="#FCAA48" fill-rule="evenodd" transform="matrix(1 0 0 -1 506 322)"/><path d="M0.169908 9.87672C1.83884 31.0046 23.1094 37.6175 39.9972 42.9208 48.1046 45.6412 78.9921 59.5391 74.629 38.8918 72.9679 29.5066 59.1306 25.7307 52.1263 21.4388 44.3338 16.6025 38.9935 9.9414 31.8771 4.97262 20.918-2.08276 7.00689-2.3868 0.0489176 9.2076" fill="#FCAA48" fill-rule="evenodd" transform="matrix(1 0 0 -1 585 332)"/><path d="M40.775 3.93161 40.2187 4.71937C37.3557 8.00945 0.45042 52.7396 0.0524419 34.7706-0.349371 28.6029 16.5809 15.1786 20.6641 10.9776 27.0617 4.29694 31.3903 1.4391 39.3944 0.0122126 40.2969 1.23827 41.6198-0.0399778 40.775 3.93161" fill="#FCAA48" fill-rule="evenodd" transform="matrix(1 0 0 -1 536 285)"/><path d="M26.4648 20.6663C16.5926 18.9485 7.5118 10.0415 0.238928 3.6427L0.175743 3.29538C-2.17375-5.41602 29.3161 5.38735 34.3514 10.7961 39.7505 18.2519 37.0149 22.2723 26.4648 20.6663" fill="#E2923B" fill-rule="evenodd" transform="matrix(1 0 0 -1 587 287)"/><path d="M39.7119 47.6816C30.7695 56.1706 8.95966 39.2466 3.58799 32.5823-3.61001 23.4605 1.23254 11.5342 8.69657 2.60492L8.98146 2.21392C17.3207-3.74677 24.8204 3.23975 31.4657 13.1389 36.1619 19.9368 46.7301 40.2155 39.7119 47.6816" fill="#FCAA48" fill-rule="evenodd" transform="matrix(1 0 0 -1 570 269)"/><path d="M57.7599 26.8129 57.083 26.9392C42.4822 27.4166 29.6908 26.1853 15.4852 20.9983-0.0694375 16.055-8.08652 6.26396 12.0082 1.30074 26.1246-1.89892 41.3139 1.00534 52.6114 9.51739 58.1927 13.4303 69.8326 23.9633 57.7599 26.8129" fill="#FCAA48" fill-rule="evenodd" transform="matrix(1 0 0 -1 483 408)"/><path d="M42.6178 7.30289C40.8034 16.9265 2.39829 40.3593 0.0505641 30.7762 3.54001 18.703 14.1653 11.7645 23.6843 6.45424 29.955 2.45557 45.8673-6.16609 42.6178 7.30289" fill="#FCAA48" fill-rule="evenodd" transform="matrix(1 0 0 -1 568 422)"/><path d="M63.7323 0.0146011C55.302 4.20459 37.7096 18.73 1.82343 64.2923 0.832836 65.5717 0.160834 66.4151 0.0456494 66.541L0.546412 67.0146C0.676566 66.869 1.20143 66.203 2.38024 64.7115 38.1753 19.2513 55.6636 4.77739 64.0458 0.63394Z" fill="#0D4444" fill-rule="evenodd" transform="matrix(1 0 0 -1 510 328)"/><path d="M1.3792 0.171692C0.541742 0.324072 0.117142 0.538079 0.0475012 0.566994L0.36421 1.18221C0.442686 1.14042 7.42474-2.22956 25.1023 10.3216 25.4858 10.5775 63.5173 35.0965 79.9731 37.018L80.0476 36.3291C63.7487 34.4335 25.8643 9.98618 25.478 9.75413 11.5473-0.135918 4.172-0.336946 1.3792 0.171692" fill="#0D4444" fill-rule="evenodd" transform="matrix(1 0 0 -1 575 325)"/><path d="M41.471 0.0123369C36.254 7.76407 0.411383 40.1888 0.0470213 40.5083L0.516809 41.0123C1.99713 39.6788 36.79 8.20799 42.0471 0.394989Z" fill="#0D4444" fill-rule="evenodd" transform="matrix(1 0 0 -1 539 290)"/><path d="M0.623849 0.0147678 0.0479156 0.35526C0.403815 1.02345 8.35539 5.85274 16.2911 10.0756 24.0653 14.1975 34.6627 19.273 40.9618 20.0148L41.048 19.3388C29.3928 17.9622 1.3615 0.900733 0.623849 0.0147678" fill="#0D4444" fill-rule="evenodd" transform="matrix(1 0 0 -1 579 290)"/><path d="M0.644127 0.012636 0.043103 0.336539C8.16129 15.1278 18.2551 48.4718 18.3651 48.8036 27.7509 76.5235 35.0577 131.293 35.1301 131.844 37.8685 170.84 49.3351 190.823 49.4481 191.013L50.0432 190.672C49.9231 190.463 38.539 170.617 35.8144 131.767 35.7351 131.199 28.4183 76.3606 19.0227 48.5879 18.9256 48.276 8.80195 14.8556 0.644127 0.012636" fill="#0D4444" fill-rule="evenodd" transform="matrix(1 0 0 -1 544 423)"/><path d="M0.0471106 0.614857 0.0857897 1.29536C0.897209 1.25191 81.6386-3.71626 109.651 16.027L110.047 15.465C81.8394-4.41654 0.856421 0.570363 0.0471106 0.614857" fill="#0D4444" fill-rule="evenodd" transform="matrix(1 0 0 -1 564 371)"/><path d="M0.0836599 0.030552 0.0357485 0.704048C0.274248 0.717765 24.7209 2.70022 38.1686 8.17869 39.2253 8.5209 63.4016 16.27 72.0357 13.3905L71.8093 12.7562C63.3936 15.5641 38.6625 7.62086 38.4141 7.54833 24.8946 2.03348 0.32914 0.0403204 0.0836599 0.030552" fill="#0D4444" fill-rule="evenodd" transform="matrix(1 0 0 -1 488 397)"/><path d="M47.5617 0.0316389C47.3038 0.295472 22.1244 26.4548 0.0499654 29.3515L0.140888 30.0317C22.4416 27.1261 47.7999 0.777413 48.05 0.502754Z" fill="#0D4444" fill-rule="evenodd" transform="matrix(1 0 0 -1 559 417)"/><path d="M7.41302 17.6712 8.09353 18.0655C13.1388 20.1713 12.8353 27.2012 17.8736 29.306 21.5263 30.784 25.6054 31.4206 29.4077 33.2588 38.9478 37.7963 47.7399 42.617 58.5637 43.8852 77.4028 46.0485 59.4912 23.1528 55.5837 17.6009 51.8547 12.0597 49.8826 6.99308 43.2858 3.89539 38.6144 1.64322 31.4859 1.15315 26.1252 0.962751 20.061 0.731376 10.015-1.53736 4.74952 1.9732-1.62316 6.13391-2.28181 12.9637 7.41302 17.6712" fill="#E2923B" fill-rule="evenodd" transform="matrix(1 0 0 -1 461 399)"/><path d="M1.80792 0.0969396C27.8462 1.84937 69.6009 35.3524 70.0313 35.7068L69.7498 36.0272C69.3124 35.6728 25.7491 0.721284 0.0313317 0.455266L0.0403289 0.0270649C0.625575 0.0367383 1.2177 0.0649351 1.80792 0.0969396" fill="#0D4444" fill-rule="evenodd" transform="matrix(1 0 0 -1 456 394)"/><path d="M8.12422 37.7355C17.94 40.6213 32.4331 38.5554 40.2137 32.9333 45.2108 29.764 47.9302 28.1903 53.3104 25.929 59.1155 23.6888 60.1365 21.5548 63.9473 16.5411L64.477 15.2571C75.2168 4.55814 48.8065 2.71589 43.6392 1.90398 32.0012 0.21408 17.8707-2.98043 7.62112 6.87658 0.159235 14.2809-5.08638 33.7201 8.12422 37.7355" fill="#FCAA48" fill-rule="evenodd" transform="matrix(1 0 0 -1 383 408)"/><path d="M4.79481 17.2308C7.52671 20.9519 12.8692 23.9836 16.54 26.4473 21.799 30.7946 41.1797 47.1663 38.8351 31.1288 37.6731 23.1136 5.19377-7.87363 0.275577 1.91892L0.0308712 2.34036C0.921094 8.13477 1.26191 12.5744 4.79481 17.2308" fill="#FCAA48" fill-rule="evenodd" transform="matrix(1 0 0 -1 461 366)"/><path d="M44.9998 5.22715C45.3635 18.6523 32.4269 24.2488 22.1608 28.7281 17.2446 30.9899-1.25768 41.8197 0.0982873 28.5017 0.513162 22.4742 8.96994 19.1721 13.0861 15.9959 17.6604 12.4191 20.5664 7.86503 24.7179 4.26067 31.1399-0.912539 39.8737-2.03561 45.0275 4.80202" fill="#FCAA48" fill-rule="evenodd" transform="matrix(1 0 0 -1 402 369)"/><path d="M0.354599 2.57063 0.774188 3.02535C2.86494 4.89641 29.9799 30.4412 29.005 19.1543 28.8398 15.2581 16.8851 7.99214 13.946 5.632 9.31046 1.88021 6.29953 0.380499 0.981942 0.0219659 0.479208 0.854794-0.469326 0.133981 0.354599 2.57063" fill="#FCAA48" fill-rule="evenodd" transform="matrix(1 0 0 -1 454 341)"/><path d="M6.83055 14.4645C12.8373 12.712 17.8913 6.54742 21.9783 2.04722L21.9946 1.82616C22.8917-3.77135 4.09412 5.12303 1.30588 8.83912-1.54646 13.8617 0.398247 16.1783 6.83055 14.4645" fill="#E2923B" fill-rule="evenodd" transform="matrix(1 0 0 -1 426 341)"/><path d="M2.03018 31.9291C8.13718 36.7142 20.564 24.5199 23.447 19.9222 27.3111 13.6644 23.5086 6.42674 18.2822 1.26678L18.0858 1.0288C12.4997-2.18342 8.30032 2.74255 4.84284 9.4694 2.37719 14.0958-2.83266 27.6726 2.03018 31.9291" fill="#FCAA48" fill-rule="evenodd" transform="matrix(1 0 0 -1 436 331)"/><path d="M3.69761 19.0052 4.13596 19.0354C13.3916 18.3665 21.3981 16.7698 30.0296 12.6313 39.5338 8.55905 43.9389 1.98789 30.9042 0.250699 21.7645-0.794224 12.3532 1.99379 5.79633 7.98882 2.52247 10.7749-4.1312 18.0442 3.69761 19.0052" fill="#FCAA48" fill-rule="evenodd" transform="matrix(1 0 0 -1 467 423)"/><path d="M0.533846 4.76982C2.31147 10.5774 28.1729 22.4095 29.026 16.3572 26.022 9.15732 18.8324 5.60518 12.4522 2.97672 8.22989 0.937183-2.41149-3.28736 0.533846 4.76982" fill="#FCAA48" fill-rule="evenodd" transform="matrix(1 0 0 -1 424 425)"/><path d="M0.189772 0.0239049C5.68428 2.09237 17.5304 10.0832 42.7713 36.3906 43.4747 37.1416 43.9423 37.6195 44.03 37.697L43.742 38.0239C43.6522 37.9474 43.2892 37.5629 42.4626 36.7015 17.2798 10.4419 5.49587 2.47885 0.0300081 0.423338Z" fill="#0D4444" fill-rule="evenodd" transform="matrix(1 0 0 -1 454 369)"/><path d="M47.1665 0.0370156C47.6941 0.0751718 47.978 0.176887 48.0281 0.195447L47.8699 0.592561C47.8306 0.566225 43.2035-1.03509 32.9107 7.88713 32.6827 8.07096 10.3591 25.7442 0.131206 28.0245L0.0281156 27.6165C10.1715 25.354 32.4036 7.73451 32.6326 7.56228 40.7464 0.530039 45.3815-0.083363 47.1665 0.0370156" fill="#0D4444" fill-rule="evenodd" transform="matrix(1 0 0 -1 405 366)"/><path d="M0.368648 0.0219921C4.16244 4.53058 28.784 22.496 29.0299 22.668L28.7711 23.022C27.7576 22.2757 3.85163 4.84817 0.0298732 0.287565Z" fill="#0D4444" fill-rule="evenodd" transform="matrix(1 0 0 -1 452 344)"/><path d="M24.6335 0.0225319 25.0294 0.192648C24.8441 0.630381 20.0773 4.14269 15.2763 7.27914 10.5703 10.3208 4.12175 14.153 0.131572 15.0226L0.0292978 14.6206C7.41437 13.0003 24.2285 0.609078 24.6335 0.0225319" fill="#0D4444" fill-rule="evenodd" transform="matrix(1 0 0 -1 428 344)"/><path d="M18.6211 0.021954 19.0313 0.196431C14.8407 10.0015 10.656 31.572 10.6167 31.793 6.50668 49.8008 5.56638 84.6162 5.54619 84.9621 6.45423 109.595 0.486708 122.882 0.428273 123.022L0.0311938 122.842C0.0805483 122.712 6.00277 109.495 5.1098 84.9719 5.12187 84.6003 6.06527 49.7433 10.1894 31.7058 10.2207 31.5027 14.4254 9.87563 18.6211 0.021954" fill="#0D4444" fill-rule="evenodd" transform="matrix(1 0 0 -1 447 430)"/><path d="M68.0218 0.0302209 68.0287 0.45195C67.5216 0.472726 16.5512 2.73489 0.312436 17.0302L0.0286136 16.7056C16.3795 2.30424 67.5077 0.0440722 68.0218 0.0302209" fill="#0D4444" fill-rule="evenodd" transform="matrix(1 0 0 -1 389 396)"/><path d="M43.9563 0.0352377 44.0354 0.48326C43.89 0.511166 28.7934 3.51765 20.7829 8.07076 20.1498 8.37531 5.60807 15.1708 0.035443 13.87L0.135376 13.4188C5.56854 14.701 20.4357 7.74038 20.5921 7.66804 28.643 3.07991 43.8059 0.0652227 43.9563 0.0352377" fill="#0D4444" fill-rule="evenodd" transform="matrix(1 0 0 -1 459 418)"/><path d="M0.305881 0.0348736C0.482327 0.190785 17.9991 15.2402 32.026 15.5895L32.0182 16.0349C17.8454 15.6988 0.203398 0.535014 0.0260124 0.381141Z" fill="#0D4444" fill-rule="evenodd" transform="matrix(1 0 0 -1 427 422)"/><path d="M0.0295161 130.055 11.4427 0.0551658 116.35 0.0551658 127.03 130.055Z" fill="#8E4D40" fill-rule="evenodd" transform="matrix(1 0 0 -1 441 574)"/><path d="M20.3497 12.222 9.95909 130.043 0.0316801 130.043 11.5099 0.0426854 117.026 0.0426854 118.032 12.222Z" fill="#FF9764" fill-rule="evenodd" transform="matrix(1 0 0 -1 441 574)"/><path d="M152.974 0.0363392 5.98747 0.0363392 0.0444906 37.0363 160.044 37.0363Z" fill="#8E4D40" fill-rule="evenodd" transform="matrix(1 0 0 -1 425 459)"/><path d="M12.6443 11.0817 8.46297 37.0376 0.0295123 37.0376 5.97097 0.0374813 152.919 0.0374813 155.03 11.0817Z" fill="#FF9764" fill-rule="evenodd" transform="matrix(1 0 0 -1 425 459)"/><path d="M75.0456 3.53505C75.0456 1.60162 74.0611 0.0350454 72.8369 0.0350454L2.2513 0.0350454C1.02696 0.0350454 0.0455241 1.60162 0.0455241 3.53505 0.0455241 5.46116 1.02696 7.03514 2.2513 7.03514L72.8369 7.03514C74.0611 7.03514 75.0456 5.46116 75.0456 3.53505" fill="#A06157" fill-rule="evenodd" transform="matrix(1 0 0 -1 504 434)"/><path d="M1.01064 0.055688 569.011 0.055688C570.343 0.055688 570.343 2.05579 569.011 2.05579L1.01064 2.05579C-0.323305 2.05579-0.323305 0.055688 1.01064 0.055688" fill-rule="evenodd" transform="matrix(1 0 0 -1 246 577)"/><path d="M90.8426 6.62177C91.7614 2.97662 89.5271 0.021343 85.856 0.021343L21.8634 0.021343C18.1924 0.021343 14.4695 2.97662 13.5528 6.62177L0.254424 59.421C-0.661355 63.0651 1.56997 66.0213 5.24109 66.0213L69.2357 66.0213C72.9058 66.0213 76.6276 63.0651 77.5453 59.421Z" fill="#FFFFFF" fill-rule="evenodd" transform="matrix(1 0 0 -1 512 371)"/><path d="M91.0546 6.02544C91.0546 2.71232 88.2009 0.0263754 84.6842 0.0263754L6.4258 0.0263754C2.90703 0.0263754 0.0544497 2.71232 0.0544497 6.02544 0.0544497 9.34231 2.90703 12.0264 6.4258 12.0264L84.6842 12.0264C88.2009 12.0264 91.0546 9.34231 91.0546 6.02544" fill="#FFFFFF" fill-rule="evenodd" transform="matrix(1 0 0 -1 552 371)"/><path d="M14.0433 7.02452C14.0433 3.15776 10.9093 0.0235046 7.04182 0.0235046 3.17737 0.0235046 0.0432413 3.15776 0.0432413 7.02452 0.0432413 10.8892 3.17737 14.0236 7.04182 14.0236 10.9093 14.0236 14.0433 10.8892 14.0433 7.02452" fill="#FFFFFF" fill-rule="evenodd" transform="matrix(1 0 0 -1 550 345)"/><path d="M14.0433 7.02452C14.0433 3.15776 10.9093 0.0235046 7.04182 0.0235046 3.17737 0.0235046 0.0432413 3.15776 0.0432413 7.02452 0.0432413 10.8892 3.17737 14.0236 7.04182 14.0236 10.9093 14.0236 14.0433 10.8892 14.0433 7.02452Z" stroke="#231F20" stroke-width="0.989081" stroke-miterlimit="8" fill="none" fill-rule="evenodd" transform="matrix(1 0 0 -1 550.5 345.5)"/><path d="M1.0207 0.0277933 288.025 0.0277933C289.356 0.0277933 289.356 2.02789 288.025 2.02789L1.0207 2.02789C-0.309299 2.02789-0.309299 0.0277933 1.0207 0.0277933" fill-rule="evenodd" transform="matrix(1 0 0 -1 374 372)"/><path d="M0.0428057 204.053 0.0428057 1.05563C0.0428057-0.279859 2.04281-0.279859 2.04281 1.05563L2.04281 204.053C2.04281 205.388 0.0428057 205.388 0.0428057 204.053" fill-rule="evenodd" transform="matrix(1 0 0 -1 559 576)"/><path d="M0.0299371 204.053 0.0299371 1.05563C0.0299371-0.279859 2.03004-0.279859 2.03004 1.05563L2.03004 204.053C2.03004 205.388 0.0299371 205.388 0.0299371 204.053" fill-rule="evenodd" transform="matrix(1 0 0 -1 465 576)"/><path d="M786.054 455.02 697.054 455.02 697.054 449.02 786.054 449.02Z" fill-rule="evenodd"/><path d="M0.0712076 122.053 0.0712076 1.05803C0.0712076-0.278617 2.07131-0.278617 2.07131 1.05803L2.07131 122.053C2.07131 123.39 0.0712076 123.39 0.0712076 122.053" fill-rule="evenodd" transform="matrix(1 0 0 -1 767 576)"/><path d="M0.0687731 122.053 0.0687731 1.05803C0.0687731-0.278617 2.06877-0.278617 2.06877 1.05803L2.06877 122.053C2.06877 123.39 0.0687731 123.39 0.0687731 122.053" fill-rule="evenodd" transform="matrix(1 0 0 -1 749 576)"/><path d="M0.0664064 122.053 0.0664064 1.05803C0.0664064-0.278617 2.06641-0.278617 2.06641 1.05803L2.06641 122.053C2.06641 123.39 0.0664064 123.39 0.0664064 122.053" fill-rule="evenodd" transform="matrix(1 0 0 -1 732 576)"/><path d="M0.0640349 123.053 0.0640349 1.05293C0.0640349-0.277131 2.06403-0.277131 2.06403 1.05293L2.06403 123.053C2.06403 124.389 0.0640349 124.389 0.0640349 123.053" fill-rule="evenodd" transform="matrix(1 0 0 -1 715 575)"/><path d="M358.009 429.019 269.009 429.019 269.009 421.019 358.009 421.019Z" fill-rule="evenodd"/><path d="M0.0127808 148.052 0.0127808 1.05793C0.0127808-0.279149 2.01278-0.279149 2.01278 1.05793L2.01278 148.052C2.01278 149.389 0.0127808 149.389 0.0127808 148.052" fill-rule="evenodd" transform="matrix(1 0 0 -1 339 576)"/><path d="M0.0102496 148.052 0.0102496 1.05793C0.0102496-0.279149 2.01035-0.279149 2.01035 1.05793L2.01035 148.052C2.01035 149.389 0.0102496 149.389 0.0102496 148.052" fill-rule="evenodd" transform="matrix(1 0 0 -1 321 576)"/><path d="M0.00801705 148.052 0.00801705 1.05793C0.00801705-0.279149 2.00802-0.279149 2.00802 1.05793L2.00802 148.052C2.00802 149.389 0.00801705 149.389 0.00801705 148.052" fill-rule="evenodd" transform="matrix(1 0 0 -1 304 576)"/><path d="M0.00558149 149.055 0.00558149 1.0513C0.00558149-0.277363 2.00558-0.277363 2.00558 1.0513L2.00558 149.055C2.00558 150.388 0.00558149 150.388 0.00558149 149.055" fill-rule="evenodd" transform="matrix(1 0 0 -1 287 575)"/><path d="M62.3148 76.0182C62.3148 76.0182 72.8857 67.1031 62.3148 51.6572 51.7449 36.2114 48.5634 35.7956 50.411 26.5709 52.2586 17.3443 67.5492 2.41734 37.4807 0.135249 7.41216-2.14485-1.10496 29.5754 0.12681 31.5459 1.35754 33.5165 18.1167 46.4739 19.9996 48.236 21.8817 49.9983 54.4136 76.0182 54.4136 76.0182Z" fill-rule="evenodd" transform="matrix(1 0 0 -1 283 304)"/><path d="M17.4996 41.0212C17.4996 41.0212 31.0519 33.8951 41.0105 19.8495L24.8914 0.0211649 3.94718 14.8921C3.94718 14.8921-1.90469 18.9202 0.661111 23.9814 3.22785 29.0406 17.4996 41.0212 17.4996 41.0212" fill="#E24627" fill-rule="evenodd" transform="matrix(1 0 0 -1 303 322)"/><path d="M1.99892 0.0189019 21.0115 19.1634C20.5114 19.7974 20.0062 20.4176 19.496 21.0189L0.0115199 1.40095Z" fill="#F7941E" fill-rule="evenodd" transform="matrix(1 0 0 -1 322 319)"/><path d="M0.00889819 25.6146C0.00889819 25.6146 10.9403 31.0652 13.9324 39.8013 16.9236 48.5334 13.9324 46.227 13.9324 46.227L18.6646 55.4516 26.9486 59.014 41.009 59.014 40.2444 34.7701 35.3714 36.0272C35.3714 36.0272 32.1683 30.3679 28.2008 29.5975 24.2332 28.8279 22.7031 30.2255 22.7031 30.2255 22.7031 30.2255 17.0636 21.983 18.0399 7.79634 19.0124-6.38822 3.34996 2.90663 3.07305 4.16364 2.79626 5.42172 0.636538 12.0621 0.498616 13.6663 0.357728 15.2734 0.00889819 25.6146 0.00889819 25.6146" fill="#F36B7F" fill-rule="evenodd" transform="matrix(1 0 0 -1 304 297)"/><path d="M17.5986 59.0516 0.0150661 21.7941C0.0150661 21.7941 26.1836-2.99533 26.1836 0.364679 26.1836 3.72682 17.7378 25.4366 17.7378 25.4366L36.0151 46.0265Z" fill="#F36B7F" fill-rule="evenodd" transform="matrix(1 0 0 -1 335 534)"/><path d="M16.1781 46.0471 0.0115462 25.0907C0.0115462 25.0907 9.08749-1.16113 11.2141 0.0904917 13.3419 1.34413 12.6323 18.4017 12.6323 18.4017L29.0117 30.8658Z" fill="#F36B7F" fill-rule="evenodd" transform="matrix(1 0 0 -1 310 503)"/><path d="M25.1745 55.2327 0.0150188 16.916 16.6959 0.0414685 47.1371 25.0792 67.015 44.5831C67.015 44.5831 59.7857 57.8621 58.1183 58.2752 56.4499 58.6902 26.8429 61.0416 26.8429 61.0416Z" fill="#000D3A" fill-rule="evenodd" transform="matrix(1 0 0 -1 324 472)"/><path d="M0.00790287 78.3779C0.00790287 78.3779 22.9978 57.9398 57.7918 65.3805 92.5858 72.8203 93.9358 65.0719 85.1081 49.8809 76.2794 34.6908 67.0699 15.0579 67.0699 15.0579L93.9358 0.0389991C93.9358 0.0389991 133.68 51.0163 139.358 77.4699 145.036 103.923 112.769 122.385 71.2244 118.53 29.6802 114.67 16.0608 112.744 16.0608 112.744L7.10784 95.9317Z" fill="#114DBD" fill-rule="evenodd" transform="matrix(1 0 0 -1 284 488)"/><path d="M84.7448 0.0329983 84.0298 0.726492C84.3947 1.1047 120.478 38.8959 120.017 72.1153 119.966 75.89 118.33 79.1449 115.157 81.7891 92.7631 100.442 1.10827 84.8165 0.185414 84.6568L0.0163383 85.6407C3.80325 86.2972 93.0486 101.503 115.791 82.5564 119.199 79.7167 120.956 76.2093 121.012 72.1293 121.478 38.4969 85.1117 0.414171 84.7448 0.0329983" fill="#FBFAFF" fill-rule="evenodd" transform="matrix(1 0 0 -1 283 479)"/><path d="M51.3647 142.032C51.3647 142.032 9.82377 128.874 2.10316 88.3606-5.6164 47.8493 9.27642 12.0199 25.96 0.0319791L86.0085 51.086C86.0085 51.086 80.2162 68.2424 82.078 83.9507 83.9398 99.6601 83.3192 101.624 75.8727 110.821 68.4273 120.02 59.3268 125.29 55.5012 130.458 51.6745 135.625 51.3647 142.032 51.3647 142.032" fill="#F05831" fill-rule="evenodd" transform="matrix(1 0 0 -1 257 411)"/><path d="M3.86544 26.0471 33.0154 10.0903 26.4189 0.0471349 0.0153818 17.9479Z" fill="#030000" fill-rule="evenodd" transform="matrix(1 0 0 -1 348 494)"/><path d="M0.0107869 18.7074 3.42087 23.0433 22.0108 5.00739 17.798 0.0432983Z" fill="#030000" fill-rule="evenodd" transform="matrix(1 0 0 -1 322 475)"/><path d="M30.4254 3.7658C30.4254 3.7658 46.2983 29.1604 28.7758 63.2251 11.2534 97.2898 14.3463 90.2718 14.3463 90.2718 14.3463 90.2718 12.0781 97.8065 5.78972 93.885-0.496716 89.9614-1.37271 87.5358 1.82174 84.0263 5.01725 80.5158 7.33665 81.0839 6.35807 82.5798 5.37833 84.0767 3.67748 86.2444 4.08886 87.0191 4.50223 87.7927 6.35211 85.4421 6.46065 83.7685 6.56815 82.0957 6.40931 81.7548 8.47031 81.6511 10.5312 81.5493 19.1903 64.6716 15.3762 45.7792 11.5622 26.8899 4.96601 5.21324 21.2513 1.28773 37.5366-2.6338 30.4254 3.7658 30.4254 3.7658" fill="#F36B7F" fill-rule="evenodd" transform="matrix(1 0 0 -1 329 361)"/><path d="M81.73 54.0164C81.73 54.0164 79.9564 58.3437 76.493 57.207 73.0297 56.0715 74.8953 50.3778 75.9769 48.5139 75.9769 48.5139 76.8509 41.5776 68.2782 37.6427 59.7044 33.7098 54.5782 36.5051 50.6857 24.9095 46.7933 13.316 29.6459-3.97333 17.7679 0.839514 5.88904 5.65436-11.2576 24.9095 10.3301 40.1279 31.9198 55.3471 37.7035 47.0652 43.3844 62.9038 49.0654 78.7444 50.2013 91.5806 66.8317 92.9272 83.4622 94.2718 83.4622 79.3657 93.3775 84.4371 103.295 89.5105 108.149 64.0433 95.0316 59.28 81.9129 54.5188 81.73 54.0164 81.73 54.0164" fill-rule="evenodd" transform="matrix(1 0 0 -1 248 302)"/><path d="M64.0124 55.8302C63.7957 56.8372 63.5799 57.9053 63.3761 59.0324 43.9206 30.9541 14.6258 10.7366 0.0123302 1.76027 0.568137 1.15743 1.1289 0.58502 1.69461 0.0323158 16.2932 9.04894 44.536 28.6684 64.0124 55.8302" fill="#F7941E" fill-rule="evenodd" transform="matrix(1 0 0 -1 277 407)"/><path d="M0.00796839 46.1451C0.00796839 46.1451 8.54945 6.07158 38.5896 0.668998 68.6295-4.73454 111.895 25.7434 119.199 26.5748 126.501 27.4063 131.013 20.4114 129.602 23.7701 129.602 23.7701 133.324 21.2429 134.289 22.2822 135.252 23.3195 133.323 25.0172 133.323 25.0172 133.323 25.0172 139.318 19.8226 139.973 22.142 140.626 24.4633 131.981 35.4096 120.578 36.4469 109.174 37.4862 78.8259 32.8436 65.391 33.0534 51.9571 33.2613 51.5199 53.5726 47.3457 63.6267 43.1723 73.6809 24.6729 66.6154 24.6729 66.6154L16.5083 62.8749Z" fill="#F36B7F" fill-rule="evenodd" transform="matrix(1 0 0 -1 285 386)"/><path d="M7.322 44.9508C7.322 44.9508-5.0565 25.5202 2.39129 0.0230508L52.0069 24.1839C52.0069 24.1839 45.1193 48.8574 33.5119 54.2725 21.9034 59.6876 11.1323 51.3942 7.322 44.9508" fill="#E24627" fill-rule="evenodd" transform="matrix(1 0 0 -1 282 346)"/><path d="M0.526362 0.0220358 49.0063 24.7282C48.7969 25.3931 48.547 26.1624 48.255 27.022L0.00614957 2.43533C0.162495 1.63799 0.334578 0.833527 0.526362 0.0220358" fill="#F7941E" fill-rule="evenodd" transform="matrix(1 0 0 -1 284 344)"/><path d="M2.47314 0.0200654C-4.55688 21.8502 5.65974 41.821 5.76404 42.0201L6.00593 41.9136C5.90277 41.7154-4.26871 21.8266 2.73132 0.0890404Z" fill="#231F20" fill-rule="evenodd" transform="matrix(1 0 0 -1 282 346)"/><path d="M24.8946 0.0260829C6.91984 9.85212 0.0750965 35.7021 0.00868885 35.9621L0.243908 36.0262C0.311247 35.7671 7.12869 10.0211 25.0088 0.247151Z" fill="#231F20" fill-rule="evenodd" transform="matrix(1 0 0 -1 287 381)"/><path d="M7.01238 3.51289C7.01238 1.58049 5.4456 0.0128923 3.51191 0.0128923 1.57915 0.0128923 0.0123782 1.58049 0.0123782 3.51289 0.0123782 5.4454 1.57915 7.013 3.51191 7.013 5.4456 7.013 7.01238 5.4454 7.01238 3.51289" fill="#ED5F7A" fill-rule="evenodd" transform="matrix(1 0 0 -1 329 263)"/><path d="M513.027 350.011 454.027 350.011 454.027 339.011 513.027 339.011Z" fill="#5731F7" fill-rule="evenodd"/><path d="M461.029 350.011 458.028 350.011 458.028 339.011 461.029 339.011Z" fill="#FDFCF2" fill-rule="evenodd"/><path d="M464.019 350.011 462.019 350.011 462.019 339.011 464.019 339.011Z" fill="#FDFCF2" fill-rule="evenodd"/><path d="M505.023 350.011 503.023 350.011 503.023 339.011 505.023 339.011Z" fill="#FDFCF2" fill-rule="evenodd"/><path d="M509.034 350.011 506.034 350.011 506.034 339.011 509.034 339.011Z" fill="#FDFCF2" fill-rule="evenodd"/><path d="M513.027 364.012 454.027 364.012 454.027 371.012 513.027 371.012Z" fill="#91A0B8" fill-rule="evenodd"/><path d="M513.027 364.012 454.027 364.012 454.027 371.012 513.027 371.012Z" fill="#352893" fill-rule="evenodd"/><path d="M509.034 364.012 506.034 364.012 506.034 371.012 509.034 371.012Z" fill="#FDFCF2" fill-rule="evenodd"/><path d="M505.018 364.012 504.018 364.012 504.018 371.012 505.018 371.012Z" fill="#FDFCF2" fill-rule="evenodd"/><path d="M500.026 363.012 441.026 363.012 441.026 352.012 500.026 352.012Z" fill="#FDFCF2" fill-rule="evenodd"/><path d="M500.026 353.018 443.026 353.018 443.026 352.018 500.026 352.018Z" fill="#E9EFD2" fill-rule="evenodd"/><path d="M500.026 354.019 443.026 354.019 443.026 353.019 500.026 353.019Z" fill="#E9EFD2" fill-rule="evenodd"/><path d="M500.026 355.019 443.026 355.019 443.026 354.019 500.026 354.019Z" fill="#E9EFD2" fill-rule="evenodd"/><path d="M500.026 357.019 443.026 357.019 443.026 356.019 500.026 356.019Z" fill="#E9EFD2" fill-rule="evenodd"/><path d="M500.026 358.019 443.026 358.019 443.026 357.019 500.026 357.019Z" fill="#E9EFD2" fill-rule="evenodd"/><path d="M500.026 359.019 443.026 359.019 443.026 358.019 500.026 358.019Z" fill="#E9EFD2" fill-rule="evenodd"/><path d="M500.026 360.02 443.026 360.02 443.026 359.02 500.026 359.02Z" fill="#E9EFD2" fill-rule="evenodd"/><path d="M500.026 361.02 443.026 361.02 443.026 360.02 500.026 360.02Z" fill="#E9EFD2" fill-rule="evenodd"/><path d="M500.026 363.02 443.026 363.02 443.026 362.02 500.026 362.02Z" fill="#E9EFD2" fill-rule="evenodd"/><path d="M61.035 2.29787 3.91103 2.29787 3.91103 11.7579 61.035 11.7579 61.035 14.028 0.0349096 14.028 0.0349096 0.0279674 61.035 0.0279674Z" fill="#91A0B8" fill-rule="evenodd" transform="matrix(1 0 0 -1 440 364)"/><path d="M3.04787 1.53381C3.04787 0.706253 2.37511 0.0365228 1.5478 0.0365228 0.719373 0.0365228 0.0478657 0.706253 0.0478657 1.53381 0.0478657 2.36958 0.719373 3.03652 1.5478 3.03652 2.37511 3.03652 3.04787 2.36958 3.04787 1.53381" fill="#91A0B8" fill-rule="evenodd" transform="matrix(1 0 0 -1 500 353)"/><path d="M3.04787 1.02215C3.04787 0.468587 2.37511 0.0258153 1.5478 0.0258153 0.719373 0.0258153 0.0478657 0.468587 0.0478657 1.02215 0.0478657 1.57747 0.719373 2.02582 1.5478 2.02582 2.37511 2.02582 3.04787 1.57747 3.04787 1.02215" fill="#91A0B8" fill-rule="evenodd" transform="matrix(1 0 0 -1 500 364)"/><path d="M0.0276263 13.0298 0.0276263 0.0298472 3.02628 3.55171 6.02772 2.70493 6.02772 13.0298Z" fill="#EE9D87" fill-rule="evenodd" transform="matrix(1 0 0 -1 459 369)"/><path d="M48.6881 0.0228589 0.0275307 0.0228589 9.36691 48.0229 58.0276 48.0229Z" fill="#FFFFFF" fill-rule="evenodd" transform="matrix(1 0 0 -1 395 371)"/><path d="M47.9159 0.0190602 0.0281395 0.0190602 1.14033 5.01906 49.0281 5.01906Z" fill="#E0D3C7" fill-rule="evenodd" transform="matrix(1 0 0 -1 404 328)"/><path d="M10.0315 48.028 7.73474 0.027892 0.0314129 0.027892Z" fill-rule="evenodd" transform="matrix(1 0 0 -1 443 371)"/><path d="M49.4556 98.9061 93.0604 15.5122 58.2881 0.0490626 0.0602646 74.1814 45.3172 103.049Z" fill="#152156" fill-rule="evenodd" transform="matrix(1 0 0 -1 624 529)"/><path d="M47.7558 40.0427 29.6224 38.4205 1.85813 20.6032C1.61862 20.0437 1.47385 19.5902 1.47385 19.3115 1.47385 17.7241 0.512973 15.2984 0.0596432 14.2457L11.15 0.0425895 62.0597 12.5214Z" fill-rule="evenodd" transform="matrix(1 0 0 -1 627 473)"/><path d="M100.757 171.35C100.757 171.35 7.65156 174.384 1.2771 111.216-5.09735 48.0457 15.687 1.15638 15.687 1.15638L50.4098 0.0494288C50.4098 0.0494288 47.2757 70.6673 58.6381 88.8729 69.9986 107.08 99.8835 96.4709 131.238 94.9392 174.538 92.8293 213.538 110.663 200.514 152.041 187.49 193.416 132.624 174.935 132.624 174.935Z" fill="#252C63" fill-rule="evenodd" transform="matrix(1 0 0 -1 583 545)"/><path d="M110.074 17.1347C109.904 21.1487 109.164 25.4453 107.787 30.0346 96.3086 29.539 74.2336 28.6213 71.9436 28.8234 68.8343 29.0941 39.3947 23.9734 39.4731 23.5981 39.5514 23.221 0.0744545 11.8896 0.0744545 11.8896 0.0744545 11.8896 23.6436-6.84559 52.1932 2.78877 77.4163 11.3034 96.75 13.4392 110.074 17.1347" fill-rule="evenodd" transform="matrix(1 0 0 -1 676 423)"/><path d="M46.7206 0.0401833 0.0619376 71.8126 0.40337 72.0403 47.062 0.266804Z" fill="#FFFFFF" fill-rule="evenodd" transform="matrix(1 0 0 -1 650 514)"/><path d="M41.3913 31.0575C41.3913 31.0575 42.2136 20.6142 31.6381 17.4215 21.0638 14.229 2.52176 16.3095 0.0499545 0.0575094L43.315 0.0575094 59.3841 10.3373 59.3841 0.0575094 70.3707 0.0575094 71.0501 30.1011Z" fill-rule="evenodd" transform="matrix(1 0 0 -1 561 575)"/><path d="M22.6631 44.8855C22.6631 44.8855 30.463 41.2439 22.104 31.8568 13.744 22.4697-1.72082 21.5424 0.231415 0.0559641L38.2639 19.9494 48.0191 37.3218 53.4507 27.2327 63.0629 33.3945 50.8754 58.056Z" fill-rule="evenodd" transform="matrix(1 0 0 -1 661 574)"/><path d="M7.41885 25.0967C10.4643 25.0409 13.8959 23.639 16.9611 20.8244 16.1249 23.0394 15.0778 24.8881 13.9038 26.0901 12.4588 27.5616 10.9508 27.9917 9.42126 27.3775 8.38905 26.962 7.74677 26.2587 7.45236 25.2231 7.4415 25.181 7.43065 25.1389 7.41885 25.0967M7.3371 24.6912C6.75496 20.9253 10.3117 14.6397 12.6726 10.9639 15.7141 11.1402 18.2947 11.7183 18.9231 11.8652 18.6808 14.7102 18.0968 17.5239 17.2674 19.9691 14.1136 23.1109 10.4998 24.6588 7.3371 24.6912M6.92044 24.6892C6.35803 24.6696 5.81232 24.6029 5.2874 24.4864 1.97496 23.7516 0.181345 21.1977 0.493609 17.6571 0.678712 15.5508 1.58199 13.9128 3.18152 12.789 5.53462 11.1344 9.05481 10.811 12.1889 10.9394 9.80337 14.6593 6.37379 20.8146 6.92044 24.6892M12.9415 10.5505C13.9156 9.05642 14.6307 8.08457 14.6553 8.05425 15.524 7.20586 17.0862 5.8039 18.7192 4.59405 19.0679 6.76205 19.1281 9.11229 18.9547 11.4517 18.2209 11.2745 15.8097 10.7405 12.9415 10.5505M19.1063 4.31284C21.0821 2.90112 23.0865 1.849 24.0292 2.45543 24.7748 2.93539 25.2091 4.74192 23.0432 10.6308 21.7391 14.1782 19.9672 17.0369 17.9786 19.2265 19.3831 14.67 19.9386 9.0829 19.1063 4.31284M17.8673 0.0551398 17.4911 0.219728C18.0071 1.40227 18.3864 2.72085 18.6414 4.12572 16.576 5.63547 14.7223 7.41448 14.3441 7.78385 14.2357 7.93182 13.4645 8.97813 12.4588 10.524 9.20066 10.3575 5.47354 10.6749 2.94317 12.4549 1.24216 13.6502 0.277916 15.3901 0.0828945 17.6228-0.241167 21.3309 1.71792 24.1151 5.19677 24.8841 5.77589 25.0125 6.37578 25.083 6.99623 25.0967 7.01503 25.1771 7.0357 25.2555 7.05543 25.3339 7.3844 26.482 8.12805 27.2971 9.26758 27.7566 10.9499 28.4335 12.6529 27.9535 14.1964 26.3772 15.5773 24.9685 16.7739 22.7563 17.683 20.1278 19.9544 17.8314 21.9765 14.7219 23.4294 10.7709 25.2683 5.7687 25.5382 2.93933 24.2508 2.11245 23.1211 1.37974 21.0073 2.44754 19.0197 3.85044 18.7567 2.49946 18.3755 1.22097 17.8673 0.0551398" fill-rule="evenodd" transform="matrix(1 0 0 -1 580 567)"/><path d="M8.14402 17.7547C9.78194 17.7547 11.5587 17.4378 13.3832 16.7556 11.7706 18.555 10.0963 19.8761 8.60851 20.3957 7.21095 20.8873 6.10858 20.6107 5.33375 19.5823 4.7466 18.8012 4.54279 18.0302 4.72123 17.232 5.75664 17.573 6.91179 17.7547 8.14402 17.7547M4.84195 16.8323C6.32669 12.9075 16.2989 9.91322 17.38 9.60044 17.6274 9.76185 17.8181 9.89204 17.9449 9.98093 16.8222 12.2081 15.4379 14.3214 13.9795 16.0693 10.5983 17.5104 7.35091 17.6659 4.84195 16.8323M17.7897 9.36018C18.0199 9.19673 18.2491 9.03628 18.4743 8.87882 18.3637 9.11704 18.2511 9.35622 18.1355 9.59637 18.0442 9.53379 17.9276 9.4541 17.7897 9.36018M4.44336 16.6879C3.8775 16.468 3.35313 16.1995 2.87853 15.8766 0.436435 14.2286-0.190376 11.5946 1.20213 8.8294 2.03071 7.18335 3.28928 6.14692 4.9444 5.74332 8.9898 4.76337 14.4997 7.7889 16.9084 9.29868 14.7645 9.94349 5.90778 12.8056 4.44336 16.6879M19.1152 8.42976C22.4833 6.11974 25.3147 4.58569 25.622 4.93495 25.6717 4.98843 25.975 5.58682 21.7611 10.2978 19.5321 12.7875 17.1426 14.5536 14.7979 15.6949 16.454 13.5857 17.9865 11.0456 19.1152 8.42976M21.0289 0.0544477 20.605 0.0685677C20.6882 2.53198 19.9732 5.36882 18.8018 8.13003 18.2816 8.49234 17.8059 8.8294 17.4125 9.11298 15.1296 7.63551 9.28391 4.26478 4.84195 5.33459 3.06203 5.76846 1.71016 6.87859 0.822776 8.6407-0.64874 11.5693 0.0469758 14.4748 2.64021 16.2268 3.14932 16.5679 3.71217 16.8595 4.31963 17.0927 4.09754 18.0231 4.32371 18.9455 4.9961 19.8367 5.88241 21.0134 7.17849 21.3464 8.75051 20.7964 10.4471 20.199 12.3801 18.5923 14.2016 16.4307 16.8465 15.2933 19.5634 13.3849 22.0785 10.5784 26.12 6.06016 26.2965 5.04491 25.9385 4.65137 25.2985 3.94494 21.9893 5.96122 19.4184 7.70814 20.4772 5.07112 21.106 2.39976 21.0289 0.0544477" fill-rule="evenodd" transform="matrix(1 0 0 -1 669 550)"/><path d="M7.70529 0.0344063C-5.37598 48.788-1.67057 86.5793 18.7209 112.36 33.8021 131.423 55.3846 140.109 70.835 144.035 87.5748 148.289 100.929 148.03 101.054 148.032L101.044 147.618C100.911 147.622 87.6056 147.874 70.9254 143.631 55.5398 139.717 34.0499 131.071 19.0463 112.099-1.25968 86.4268-4.93915 48.7583 8.10721 0.140247Z" fill="#FFFFFF" fill-rule="evenodd" transform="matrix(1 0 0 -1 608 540)"/><path d="M27.9899 4.37937C27.9899 4.37937 28.349 22.3751 26.3222 31.9281 24.2992 41.4791 20.9725 40.831 15.7624 39.5256 10.5562 38.2243 8.02479 43.8671 7.08501 47.994 6.14428 52.1168 1.72952 48.2097 0.212009 48.8619-1.30634 49.5111 9.25344 65.4325 8.16822 71.7285 7.08501 78.0247 11.4959 77.9524 11.7136 78.0979 11.9311 78.2434 24.4446 82.005 24.7325 82.005 25.0233 82.005 29.4332 77.6625 29.5786 77.3735 29.7241 77.0836 32.6897 71.6573 32.9063 71.6573 33.1229 71.6573 40.7903 71.5831 41.0089 71.5118 41.2264 71.4396 43.1782 67.8214 43.1782 67.5315 43.1782 67.2415 41.5866 52.6968 41.5866 52.6968L41.1533 46.9795C41.1533 46.9795 41.9476 37.4998 61.6229 33.085 81.2963 28.6711 49.615 13.3298 49.615 13.3298 49.615 13.3298 42.4551-0.420325 42.2385 0.0151052 42.0199 0.447493 27.9899 4.37937 27.9899 4.37937" fill="#F36B7F" fill-rule="evenodd" transform="matrix(1 0 0 -1 659 270)"/><path d="M46.7502 18.0268C46.7502 18.0268 38.9842 14.9933 32.1261 15.492 25.268 15.9938 21.8192 20.8029 14.0492 13.7424 6.28129 6.68087-2.03303 0.382471 0.529645 0.0600828 3.09127-0.266445 6.03228 1.91278 6.03228 1.91278 6.03228 1.91278 5.01676-0.0320583 7.83818 0.893281 10.6607 1.82064 15.2476 4.95237 15.2476 4.95237 15.2476 4.95237 12.4696 0.226319 14.9305 0.451576 17.3914 0.678001 19.6616 5.7395 19.6616 5.7395 19.6616 5.7395 26.6521 6.30137 30.3301 4.30738 34.009 2.30937 48.0562 8.07795 48.0562 8.07795Z" fill="#DD5872" fill-rule="evenodd" transform="matrix(1 0 0 -1 603 356)"/><path d="M33.322 0.0235001 1.2921 6.68168 0.0605247 17.6682C0.0605247 17.6682 32.7589 23.4108 41.9157 25.8506 51.0726 28.2904 42.2002 4.11419 42.2002 4.11419L43.5933 1.05184Z" fill="#F8CF60" fill-rule="evenodd" transform="matrix(1 0 0 -1 646 356)"/><path d="M50.057 11.0476C50.057 11.0476 41.7148 9.97533 35.1146 12.1896 28.5115 14.4018 26.2865 20.0442 16.9774 14.9749 7.66243 9.9046-1.99479 5.72715 0.437729 4.76345 2.86718 3.79887 6.27553 5.22786 6.27553 5.22786 6.27553 5.22786 4.8128 3.54873 7.80213 3.76497 10.7894 3.97718 16.0366 5.94132 16.0366 5.94132 16.0366 5.94132 12.1812 1.94024 14.6467 1.54971 17.1131 1.1581 20.5534 5.61849 20.5534 5.61849 20.5534 5.61849 27.5397 4.42725 30.6666 1.52613 33.7936-1.37912 48.9464 0.835162 48.9464 0.835162Z" fill="#F36B7F" fill-rule="evenodd" transform="matrix(1 0 0 -1 602 363)"/><path d="M27.9899 4.37937C27.9899 4.37937 28.349 22.3751 26.3222 31.9281 24.2992 41.4791 20.9725 40.831 15.7624 39.5256 10.5562 38.2243 8.02479 43.8671 7.08501 47.994 6.14428 52.1168 1.72952 48.2097 0.212009 48.8619-1.30634 49.5111 9.25344 65.4325 8.16822 71.7285 7.08501 78.0247 11.4959 77.9524 11.7136 78.0979 11.9311 78.2434 24.4446 82.005 24.7325 82.005 25.0233 82.005 29.4332 77.6625 29.5786 77.3735 29.7241 77.0836 32.6897 71.6573 32.9063 71.6573 33.1229 71.6573 40.7903 71.5831 41.0089 71.5118 41.2264 71.4396 43.1782 67.8214 43.1782 67.5315 43.1782 67.2415 41.5866 52.6968 41.5866 52.6968L41.1533 46.9795C41.1533 46.9795 41.9476 37.4998 61.6229 33.085 81.2963 28.6711 49.615 13.3298 49.615 13.3298 49.615 13.3298 42.4551-0.420325 42.2385 0.0151052 42.0199 0.447493 27.9899 4.37937 27.9899 4.37937" fill="#F36B7F" fill-rule="evenodd" transform="matrix(1 0 0 -1 659 270)"/><path d="M33.5305 21.9871C31.572 22.4257 30.0632 22.9928 28.7631 23.6039 26.5094 24.3495 24.587 25.1644 22.9506 26.0124 8.61124 19.2906 2.09109 8.59667 0.0673551 4.59251 0.0974681 3.76057 0.120558 2.95076 0.138541 2.16691L3.73347 0.0123392C3.73347 0.0123392 15.9677 0.91948 21.2802 2.52719 22.5631 2.9146 24.1312 3.55389 25.7655 4.2935 33.8106 8.80846 48.6901 18.5892 33.5305 21.9871" fill="#E25A74" fill-rule="evenodd" transform="matrix(1 0 0 -1 686 259)"/><path d="M10.8909 161.479C10.8909 161.479-3.88583 98.2892 1.08632 6.52967 1.08632 6.52967 20.6975-6.45716 49.4252 4.28364 78.1549 15.0254 114.064 15.577 114.064 15.577 114.064 15.577 104.674 166.504 36.1654 183.03Z" fill="#FFFFFF" fill-rule="evenodd" transform="matrix(1 0 0 -1 675 418)"/><path d="M99.2164 129.298C81.7466 172.808 42.2686 183.685 35.7158 182.996 35.7158 182.996-4.48872 98.2696 0.502463 6.52524 0.502463 6.52524 2.53088 5.19282 6.22524 3.73396 14.0619 0.639281 29.4267-3.01872 49.0264 4.28052 77.866 15.0196 113.912 15.571 113.912 15.571 113.912 15.571 116.686 85.79 99.2164 129.298" fill="#F8CF60" fill-rule="evenodd" transform="matrix(1 0 0 -1 675 418)"/><path d="M12.06 6.50704C12.06 2.91649 9.37395 0.00753642 6.06041 0.00753642 2.74698 0.00753642 0.0599504 2.91649 0.0599504 6.50704 0.0599504 10.0946 2.74698 13.0076 6.06041 13.0076 9.37395 13.0076 12.06 10.0946 12.06 6.50704" fill="#E25A74" fill-rule="evenodd" transform="matrix(1 0 0 -1 671 224)"/><path d="M0.0623472 6.67301C0.0623472 6.67301 6.99649 9.99895 11.0625 6.15732L7.43817 0.00943384C7.43817 0.00943384 5.64532 7.0358 0.0623472 6.67301" fill-rule="evenodd" transform="matrix(1 0 0 -1 677 237)"/><path d="M30.0184 1.53933 0.0610661 15.9349 1.52443 27.0271C1.52443 27.0271 35.1615 24.6434 44.7845 24.7937 54.4086 24.9439 39.7685 3.37825 39.7685 3.37825L40.3956 0.0269649Z" fill="#F8CF60" fill-rule="evenodd" transform="matrix(1 0 0 -1 646 378)"/><path d="M61.406 36.0303C61.406 36.0303 67.2103 4.56763 44.5546 0.787232 21.8968-2.99409 0.0721072 8.62144 0.0721072 8.62144" stroke="#231F20" stroke-width="0.494593" stroke-miterlimit="8" fill="none" fill-rule="evenodd" transform="matrix(1 0 0 -1 702.5 390.5)"/><path d="M0.0713866 15.0289C0.0713866 15.0289 6.49641 11.1281 6.04922 0.0287579" stroke="#231F20" stroke-width="0.494593" stroke-miterlimit="8" fill="none" fill-rule="evenodd" transform="matrix(1 0 0 -1 712.5 366.5)"/><path d="M0.0653515 7.02507C0.0653515 7.02507 9.06995 5.93802 11.0655 0.0249763" stroke="#231F20" stroke-width="0.494593" stroke-miterlimit="8" fill="none" fill-rule="evenodd" transform="matrix(1 0 0 -1 713.5 358.5)"/><path d="M59.556 70.0254C59.556 70.0254 69.9715 7.23105 62.1577 2.24279 54.3438-2.74653 0.0641433 2.24279 0.0641433 2.24279" stroke="#231F20" stroke-width="0.494593" stroke-miterlimit="8" fill="none" fill-rule="evenodd" transform="matrix(1 0 0 -1 650.5 354.5)"/><path d="M1.02989 2.70177C3.33137 2.83545 6.13079 4.5681 8.32712 3.44391 10.3649 2.40286 11.4793 0.500858 13.8133 0.0370497 15.0729-0.213265 15.6101 1.95838 14.3437 2.20972 11.9582 2.68451 10.7271 5.20137 8.48587 5.81738 5.87853 6.53265 3.61807 5.10749 1.02989 4.9554-0.250836 4.88096-0.257522 2.62836 1.02989 2.70177" fill="#FFFFFF" fill-rule="evenodd" transform="matrix(1 0 0 -1 734 280)"/><path d="M1.07268 0.0267911C2.40556 0.0267911 2.40556 3.02694 1.07268 3.02694-0.261139 3.02694-0.261139 0.0267911 1.07268 0.0267911" fill="#FFFFFF" fill-rule="evenodd" transform="matrix(1 0 0 -1 757 300)"/><path d="M0.904445 8.48184C0.127652 6.85727-0.477742 4.94301 0.886385 3.42921 2.07059 2.11412 3.94802 1.59502 5.2021 0.342292 6.18204-0.631658 7.7409 0.832673 6.76937 1.80369 5.83173 2.73603 4.66973 3.357 3.52367 4.03236 2.00609 4.92624 2.11299 5.9723 2.81463 7.43967 3.3903 8.64597 1.48325 9.69695 0.904445 8.48184" fill="#FFFFFF" fill-rule="evenodd" transform="matrix(1 0 0 -1 749 321)"/><path d="M1.08465 1.37892C2.77131 1.35697 4.23866 0.986034 5.57806 0.18048 6.64902-0.462632 7.69007 0.960928 6.63406 1.59539 5.01552 2.56638 3.10765 2.99144 1.08465 3.01737-0.263656 3.03541-0.261747 1.39621 1.08465 1.37892" fill="#FFFFFF" fill-rule="evenodd" transform="matrix(1 0 0 -1 764 324)"/><path d="M1.3924 9.54009C-0.00903862 6.68297-0.680909 3.0854 1.29499 0.363549 2.00995-0.621599 3.2718 0.759317 2.56724 1.73052 1.1564 3.67576 1.9884 6.60979 2.94878 8.56241 3.48891 9.66612 1.935 10.6439 1.3924 9.54009" fill="#FFFFFF" fill-rule="evenodd" transform="matrix(1 0 0 -1 742 355)"/><path d="M1.02537 0.0345948C3.83315 0.355427 6.31924 1.74401 9.09999 2.09064 10.3744 2.24739 10.3899 4.1762 9.09999 4.01759 6.30767 3.66812 3.81768 2.28052 1.02537 1.96154-0.251938 1.81769-0.267403-0.111016 1.02537 0.0345948" fill="#FFFFFF" fill-rule="evenodd" transform="matrix(1 0 0 -1 691 374)"/><path d="M0.0621857 6.07357C0.139406 3.14311 2.11073 1.04482 4.83473 0.0939503 6.06413-0.335968 6.58708 1.58106 5.37129 2.00524 3.50991 2.65525 2.13099 4.06833 2.07985 6.07357 2.04517 7.34904 0.0284336 7.35287 0.0621857 6.07357" fill="#FFFFFF" fill-rule="evenodd" transform="matrix(1 0 0 -1 694 401)"/><path d="M1.56127 0.172911C5.58118 2.48851 9.38358 4.60224 13.6276 1.48228 14.6642 0.721094 15.6595 2.42374 14.6383 3.17369 9.80124 6.732 5.21521 4.54882 0.549568 1.8672-0.562667 1.22888 0.444163-0.467199 1.56127 0.172911" fill="#FFFFFF" fill-rule="evenodd" transform="matrix(1 0 0 -1 728 403)"/><path d="M1.31921 0.0458649C4.01617 0.457881 6.92868 2.82837 7.0691 5.98987 7.12795 7.38524 5.14456 7.37701 5.08481 5.98987 4.98985 3.78594 2.53672 2.3988 0.789714 2.13074-0.472461 1.93818 0.0674944-0.146702 1.31921 0.0458649" fill="#FFFFFF" fill-rule="evenodd" transform="matrix(1 0 0 -1 764 398)"/><path d="M2.92842 1.26629C2.52878 2.74452 1.96823 4.28793 2.02647 5.84089 2.08481 7.33831 3.74703 8.53007 4.74056 9.36834 5.70811 10.1846 4.3317 11.5929 3.37337 10.7834 1.9849 9.61165 0.530738 8.30778 0.162565 6.40418-0.20002 4.54271 0.590842 2.49349 1.06452 0.734592 1.39935-0.508041 3.26424 0.0198017 2.92842 1.26629" fill="#FFFFFF" fill-rule="evenodd" transform="matrix(1 0 0 -1 776 365)"/><path d="M0.403342 1.298C2.35327-0.282112 4.85262-0.518725 6.75108 1.298 7.68287 2.1917 6.29358 3.632 5.36447 2.74421 4.32298 1.7449 2.87079 1.8642 1.78607 2.74421 0.801715 3.54007-0.595125 2.10568 0.403342 1.298" fill="#FFFFFF" fill-rule="evenodd" transform="matrix(1 0 0 -1 690 331)"/><path d="M1.937 0.246627C4.20893 1.90251 5.55132 4.21701 6.92228 6.52858 7.58738 7.64736 5.75268 8.64845 5.08661 7.52877 3.79703 5.35378 2.57462 3.20726 0.434852 1.64914-0.642145 0.861586 0.872184-0.530571 1.937 0.246627" fill="#FFFFFF" fill-rule="evenodd" transform="matrix(1 0 0 -1 693 309)"/><path d="M1.56061 0.157035C2.92891 0.965515 4.59163 0.86794 6.10193 0.86794 7.38439 0.869029 7.38439 3.01525 6.10193 3.01427 4.21238 3.01427 2.25526 3.0183 0.554473 2.01042-0.568007 1.34264 0.435297-0.510854 1.56061 0.157035" fill="#FFFFFF" fill-rule="evenodd" transform="matrix(1 0 0 -1 713 266)"/><path d="M1.95848 0.263858C3.71411 1.63251 6.88187 1.0272 9.0174 1.00704 10.4223 0.993217 10.4202 2.91393 9.0174 2.92503 6.12848 2.95531 2.7786 3.45956 0.422472 1.62063-0.630619 0.798488 0.913664-0.553615 1.95848 0.263858" fill="#FFFFFF" fill-rule="evenodd" transform="matrix(1 0 0 -1 716 250)"/><path d="M1.44885 14.9759C1.22054 11.8987-0.0161695 8.98101 0.0710847 5.86969 0.157424 2.78427 2.42939 1.10136 4.85868 0.0911672 6.06559-0.408771 6.58464 1.68094 5.39014 2.17572 2.52051 3.36913 1.74336 5.30459 2.28447 8.43346 2.66247 10.6308 3.2881 12.735 3.45407 14.9759 3.55383 16.3659 1.54861 16.3556 1.44885 14.9759" fill="#FFFFFF" fill-rule="evenodd" transform="matrix(1 0 0 -1 732 268)"/><path d="M1.12441 0.668164C2.01935 0.64013 2.88822 0.378996 3.73633 0.0841021 5.07719-0.384126 5.64392 1.88711 4.31455 2.35188 3.28003 2.71095 2.21525 2.98557 1.12441 3.0204-0.282042 3.06323-0.276851 0.710991 1.12441 0.668164" fill="#FFFFFF" fill-rule="evenodd" transform="matrix(1 0 0 -1 726 299)"/><path d="M1.26255 3.96126C3.25784 4.46144 4.11485 2.7858 4.14516 0.973594 4.16358-0.296012 6.08353-0.296012 6.06423 0.973594 6.04308 2.38926 5.6771 3.71447 4.78881 4.81835 3.80315 6.04562 2.16361 6.21145 0.749403 5.85823-0.451455 5.55683 0.0579913 3.65986 1.26255 3.96126" fill="#FFFFFF" fill-rule="evenodd" transform="matrix(1 0 0 -1 735 328)"/><path d="M1.03948 0.0235437 6.1056 0.0235437C7.39485 0.0235437 7.39485 2.02365 6.1056 2.02365L1.03948 2.02365C-0.249775 2.02365-0.249775 0.0235437 1.03948 0.0235437" fill="#FFFFFF" fill-rule="evenodd" transform="matrix(1 0 0 -1 776 341)"/><path d="M3.7817 5.37231C3.14494 3.89439 1.70024 2.76933 0.405772 1.68128-0.638273 0.800986 0.983301-0.565223 2.02839 0.316928 3.63019 1.66649 5.20673 3.03632 5.995 4.85967 6.49887 6.0328 4.28347 6.53438 3.7817 5.37231" fill="#FFFFFF" fill-rule="evenodd" transform="matrix(1 0 0 -1 683 409)"/><path d="M0.18263 0.00651903C0.18263 0.00651903-0.639798 2.65235 2.065 4.00665 2.065 4.00665 0.18263 2.77902 0.18263 0.00651903" fill-rule="evenodd" transform="matrix(1 0 0 -1 694 208)"/><path d="M0.0495143 0.211855C0.0495143 0.211855 1.34262 2.13216 2.04951 0.0078633 2.04951 0.0078633 1.40222 1.31332 0.0495143 0.211855" fill-rule="evenodd" transform="matrix(1 0 0 -1 695 206)"/><path d="M0.0627486 12.5989 3.71969 0.0114524 41.0627 29.9383C41.0627 29.9383 32.0938 34.0116 25.2987 34.0116 25.2987 34.0116 7.40622 26.4523 0.0627486 12.5989" fill="#0C1016" fill-rule="evenodd" transform="matrix(1 0 0 -1 686 269)"/><path d="M36.4452 18.5166C36.4452 18.5166 40.1128 17.5636 41.5506 19.1809 42.9903 20.7962 44.8122 22.6438 46.6481 21.1649 48.4818 19.6851 46.4938 15.45 44.1243 13.2287 41.7579 11.0085 39.7167 6.56773 44.1243 3.26202 48.5339-0.0427517 52.8462-2.26406 53.4624 3.88181 54.0766 10.0267 52.1789 11.1646 57.1575 15.9661 62.1391 20.7685 63.0608 32.5424 55.7207 37.9123 48.3787 43.2842 47.7624 40.3916 45.1956 48.1894 42.6306 55.9883 34.344 60.5851 25.6891 56.4529 12.2844 50.0558 17.3721 42.005 7.90143 40.0367-1.57124 38.0685-2.95791 24.3323 6.48914 22.0072 15.9354 19.6851 18.3961 32.0807 25.688 29.6291 32.9791 27.1725 29.1287 18.5858 36.4452 18.5166" fill-rule="evenodd" transform="matrix(1 0 0 -1 651 225)"/><path d="M31.0315 15.5155C31.0315 6.95404 24.0912 0.0149953 15.5324 0.0149953 6.97064 0.0149953 0.0313549 6.95404 0.0313549 15.5155 0.0313549 24.075 6.97064 31.015 15.5324 31.015 24.0912 31.015 31.0315 24.075 31.0315 15.5155" fill="#FCEEEE" fill-rule="evenodd" transform="matrix(1 0 0 -1 441 289)"/><path d="M5.22204 70.0253 0.02006 64.7498 63.82 0.0252015 69.0201 5.3017Z" fill="#FFFFFF" fill-rule="evenodd" transform="matrix(1 0 0 -1 377 353)"/><path d="M0.019178 5.29613 5.2075 0.0126702 54.0193 49.7283 48.8319 55.0128Z" fill="#FFFFFF" fill-rule="evenodd" transform="matrix(1 0 0 -1 377 300)"/><path d="M32.9608 51.7147 23.9536 60.8618C18.4999 66.4018 9.57244 66.4008 4.1197 60.8618-1.33492 55.3218-1.33492 46.2577 4.12074 40.7176L13.1279 31.5704C9.73682 20.8123 12.2462 8.55179 20.6512 0.0164205L64.0289 44.0778C55.621 52.6142 43.5505 55.1599 32.9608 51.7147" fill="#E9514C" fill-rule="evenodd" transform="matrix(1 0 0 -1 419 300)"/><path d="M0.0197751 5.51638C0.0197751 2.47844 2.7069 0.0168268 6.01764 0.0168268 9.33254 0.0168268 12.0198 2.47844 12.0198 5.51638 12.0198 8.55251 9.33254 11.0169 6.01764 11.0169 2.7069 11.0169 0.0197751 8.55251 0.0197751 5.51638" fill="#E9514C" fill-rule="evenodd" transform="matrix(1 0 0 -1 379 297)"/><path d="M3.02095 4.04563C2.01053 4.04563 1.18769 3.35907 1.18769 2.51721 1.18769 1.67446 2.01053 0.988878 3.02095 0.988878 4.03361 0.988878 4.85763 1.67446 4.85763 2.51721 4.85763 3.35907 4.03361 4.04563 3.02095 4.04563M3.02095 0.0167623C1.36864 0.0167623 0.0221302 1.13865 0.0221302 2.51721 0.0221302 3.89398 1.36864 5.01686 3.02095 5.01686 4.67787 5.01686 6.02213 3.89398 6.02213 2.51721 6.02213 1.13865 4.67787 0.0167623 3.02095 0.0167623" fill="#1A1A1A" fill-rule="evenodd" transform="matrix(1 0 0 -1 382 294)"/><path d="M442.022 252.001 419.022 252.001 419.022 251.001 442.022 251.001Z" fill="#1A1A1A" fill-rule="evenodd"/><path d="M466.024 259.002 434.024 259.002 434.024 258.002 466.024 258.002Z" fill="#1A1A1A" fill-rule="evenodd"/></g></svg>