<svg width="554" height="388" xmlns="http://www.w3.org/2000/svg" xmlns:xlink="http://www.w3.org/1999/xlink" overflow="hidden"><defs><clipPath id="clip0"><rect x="323" y="248" width="554" height="388"/></clipPath></defs><g clip-path="url(#clip0)" transform="translate(-323 -248)"><path d="M10.9365 16.0777 16.0384 0.436028 9.21706 0.077686 0.0382717 14.9344Z" fill="#EFB1A5" fill-rule="evenodd" transform="matrix(1 0 0 -1 559 544)"/><path d="M0.091156 80.4012C0.091156 80.4012-1.7507 66.9757 13.899 67.4386 29.5487 67.9004 82.0209 66.2803 82.0209 66.2803 82.0209 66.2803 93.2977 35.0299 124.366 0.0765475 134.724 1.46404 137.024 1.00115 137.024 1.00115L104.805 91.2809C104.805 91.2809 103.883 97.5297 96.2889 97.9926 88.6948 98.4576 12.0582 100.077 12.0582 100.077 12.0582 100.077 2.23437 91.2168 0.091156 80.4012" fill="#29477C" fill-rule="evenodd" transform="matrix(1 0 0 -1 434 530)"/><path d="M96.9745 30.992C89.327 31.4547 12.1518 33.0705 12.1518 33.0705 12.1518 33.0705 2.25888 24.2331 0.100595 13.4473 0.100595 13.4473-1.75421 0.0574433 14.0044 0.51794 22.2003 0.759645 40.4163 0.435576 56.0214 0.0704314 62.6889 25.215 90.6683 29.3438 101.033 29.9972 99.9487 30.5141 98.627 30.8934 96.9745 30.992" fill="#122A47" fill-rule="evenodd" transform="matrix(1 0 0 -1 434 463)"/><path d="M0.0283835 6.47639 0.658522 0.0867901 7.54456 0.360556 8.0285 8.0869Z" fill="#EFB1A5" fill-rule="evenodd" transform="matrix(1 0 0 -1 457 544)"/><path d="M513.028 553.051 511.028 553.051 511.028 464.051 513.028 464.051Z" fill="#374163" fill-rule="evenodd"/><path d="M496.026 553.051 494.026 553.051 494.026 464.051 496.026 464.051Z" fill="#273049" fill-rule="evenodd"/><path d="M446.021 553.051 444.021 553.051 444.021 464.051 446.021 464.051Z" fill="#374163" fill-rule="evenodd"/><path d="M73.0314 1.17475C73.0314 0.56381 72.5555 0.0733605 71.9687 0.0733605L1.09401 0.0733605C0.507245 0.0733605 0.0312635 0.56381 0.0312635 1.17475L0.0312635 2.96762C0.0312635 3.57638 0.507245 4.07347 1.09401 4.07347L71.9687 4.07347C72.5555 4.07347 73.0314 3.57638 73.0314 2.96762Z" fill="#1F283D" fill-rule="evenodd" transform="matrix(1 0 0 -1 443 466)"/><path d="M3.18661 100.73C5.2655 107.912 29.2881 109.398 29.9817 79.5412 30.6787 49.6855 22.5601 0.536559 22.5601 0.536559L11.8867 0.078467C11.8867 0.078467-7.37028 64.2754 3.18661 100.73" fill="#5578B7" fill-rule="evenodd" transform="matrix(1 0 0 -1 443 538)"/><path d="M0.213254 0.0817665C0.213254 0.0817665-0.639463 2.7588 1.27027 5.60952 3.18 8.4613 2.12398 11.1382 4.60153 11.6149 7.08017 12.0881 11.592 12.8665 12.3222 10.0158 13.0525 7.16509 18.0514 4.74648 16.8331 0.425969 7.56827 0.166495 0.213254 0.0817665 0.213254 0.0817665" fill="#FF9C2E" fill-rule="evenodd" transform="matrix(1 0 0 -1 454 554)"/><path d="M0.488049 0.0846179C0.488049 0.0846179-0.918192 5.63616 1.24431 9.15459 4.24936 8.83601 7.95687 10.0847 7.95687 10.0847 7.95687 10.0847 27.0386 6.72559 27.0386 0.279873 17.0592 0.279873 0.488049 0.0846179 0.488049 0.0846179" fill="#FF9C2E" fill-rule="evenodd" transform="matrix(1 0 0 -1 567 553)"/><path d="M0.0135958 0.0689015 6.47168 0.0689015 121.014 170.069 74.7117 170.069Z" fill="#8192AA" fill-rule="evenodd" transform="matrix(1 0 0 -1 356 600)"/><path d="M122.054 0.0689015 115.543 0.0689015 0.0535671 170.069 46.7392 170.069Z" fill="#8192AA" fill-rule="evenodd" transform="matrix(1 0 0 -1 569 600)"/><path d="M22.0547 72.8984C22.0547 72.8984 6.54379 68.2602 1.62108 64.889-3.30057 61.519 4.73677 0.063735 4.73677 0.063735L90.0259 0.063735 87.4558 47.8914C87.4558 47.8914 77.0152 68.9273 71.8761 72.1587 66.7359 75.3924 52.7857 76.0637 52.7857 76.0637Z" fill="#FF9C2E" fill-rule="evenodd" transform="matrix(1 0 0 -1 437 419)"/><path d="M3.02937 0.0533843 0.0292721 9.05348 0.0292721 0.0533843Z" fill="#F58231" fill-rule="evenodd" transform="matrix(1 0 0 -1 504 373)"/><path d="M0.0252067 30.0554C0.0252067 30.0554 1.47701 17.7734 0.654551 12.9335 7.53773 7.06036 15.0386 1.18729 21.1014 0.0554025 21.4076 7.16312 21.4076 17.6728 22.0252 21.0726 16.4756 28.6959 0.0252067 30.0554 0.0252067 30.0554" fill="#E29B8D" fill-rule="evenodd" transform="matrix(1 0 0 -1 461 356)"/><path d="M2.87639 17.0564 0.0257125 12.0537C0.0257125 12.0537 4.46716 2.96883 20.4864 0.0562842 20.5976 3.60618 20.7502 6.65254 21.0257 8.22936 17.1799 13.7312 8.11793 16.1125 2.87639 17.0564" fill="#D38B81" fill-rule="evenodd" transform="matrix(1 0 0 -1 462 343)"/><path d="M25.9412 41.3848C25.9412 41.3848 31.876 26.0208 33.465 15.0466 35.0551 4.07353 33.9954-1.88663 20.7483 0.622423 7.50003 3.13158 1.67212 6.47531 0.187631 23.5127-1.2958 40.5501 7.60679 51.0012 25.9412 41.3848" fill="#EFA895" fill-rule="evenodd" transform="matrix(1 0 0 -1 458 338)"/><path d="M18.273 32.4438C18.273 32.4438 43.3693 31.8085 44.8601 40.3054 46.3485 48.8013 37.9466 54.3251 15.2961 51.1391-7.35562 47.9532 1.89646 31.8075 1.89646 31.8075 1.89646 31.8075-3.42138 22.4625 4.23634 11.524 11.894 0.583338 18.5921 0.0517931 18.5921 0.0517931 18.5921 0.0517931 13.4961 24.1302 18.273 32.4438" fill="#381810" fill-rule="evenodd" transform="matrix(1 0 0 -1 443 334)"/><path d="M41.0281 35.3232C12.8577 30.9122 5.19839 40.0907 3.1222 45.0514-3.00522 39.3289 1.85931 30.9239 1.85931 30.9239 1.85931 30.9239-3.37524 21.8399 4.16244 11.2056 11.7001 0.56815 18.2944 0.0513869 18.2944 0.0513869 18.2944 0.0513869 13.2772 23.4602 17.9792 31.5425 17.9792 31.5425 34.04 31.1457 41.0281 35.3232" fill="#2D120D" fill-rule="evenodd" transform="matrix(1 0 0 -1 445 333)"/><path d="M1.77313 30.8145C1.77313 30.8145-3.40292 21.7629 4.05052 11.1667 11.5041 0.567252 18.0235 0.0523363 18.0235 0.0523363 18.0235 0.0523363 13.2177 22.6754 17.5172 31.0523 7.56507 24.9909 1.77313 30.8145 1.77313 30.8145" fill="#230D0A" fill-rule="evenodd" transform="matrix(1 0 0 -1 445 333)"/><path d="M5.37134 24.0515C5.37134 24.0515 10.9842 20.9914 9.88361 14.1567 8.78403 7.32185 6.39508 3.06262 7.69934 0.0515015 4.71078 2.96118 2.07063 8.67368 2.07063 8.67368 2.07063 8.67368-4.06829 19.3918 4.93133 24.0515" fill="#2D120D" fill-rule="evenodd" transform="matrix(1 0 0 -1 455 322)"/><path d="M0.664236 1.21693C0.452428 0.846224 0.253601 0.583066 0.043571 0.23524 0.308376 0.230664 0.636849 0.216476 1.04375 0.216476Z" fill="#230D0A" fill-rule="evenodd" transform="matrix(1 0 0 -1 463 302)"/><path d="M1.38647 23.5467C1.38647 23.5467-1.68442 2.34653 1.38647 1.20604 4.45725 0.0644928 40.0216 0.0644928 40.0216 0.0644928L38.567 12.7897C38.567 12.7897 25.3108 14.0757 21.2695 14.0757 21.5933 18.8997 21.7309 25.0645 21.7309 25.0645Z" fill="#E29A8F" fill-rule="evenodd" transform="matrix(1 0 0 -1 425 419)"/><path d="M15.3165 14.0749C15.6396 18.8998 15.7769 25.0635 15.7769 25.0635L0.500565 23.922C-0.383374 19.8829-1.92866 6.14215 15.7099 0.209024 25.031 0.0635475 34.0237 0.0635475 34.0237 0.0635475L32.5724 12.7888C32.5724 12.7888 19.3482 14.0749 15.3165 14.0749" fill="#EFA895" fill-rule="evenodd" transform="matrix(1 0 0 -1 431 419)"/><path d="M678.027 432.043 371.027 432.043 371.027 420.043 678.027 420.043Z" fill="#4D6899" fill-rule="evenodd"/><path d="M74.0333 2.08288C74.0333 0.965615 73.1445 0.0602583 72.0464 0.0602583L2.02009 0.0602583C0.923175 0.0602583 0.0332713 0.965615 0.0332713 2.08288L0.0332713 46.0345C0.0332713 47.1528 0.923175 48.0604 2.02009 48.0604L72.0464 48.0604C73.1445 48.0604 74.0333 47.1528 74.0333 46.0345Z" fill="#547CD6" fill-rule="evenodd" transform="matrix(1 0 0 -1 459 419)"/><path d="M72.0417 48.0648 1.8493 48.0648C1.03637 48.0648 0.342262 47.5659 0.0331423 46.8552 2.64294 37.0378 14.9239 7.51068 69.0372 0.0648121L72.0417 0.0648121C73.1423 0.0648121 74.0332 0.970063 74.0332 2.08733L74.0332 46.0401C74.0332 47.1584 73.1423 48.0648 72.0417 48.0648" fill="#6396E0" fill-rule="evenodd" transform="matrix(1 0 0 -1 459 419)"/><path d="M10.0299 5.0614C10.0299 7.8221 7.79125 10.0609 5.03044 10.0609 2.2686 10.0609 0.0299247 7.8221 0.0299247 5.0614 0.0299247 2.29842 2.2686 0.060778 5.03044 0.060778 7.79125 0.060778 10.0299 2.29842 10.0299 5.0614" fill="#60BEE8" fill-rule="evenodd" transform="matrix(1 0 0 -1 491 400)"/><path d="M0.025235 17.4649 5.99807 21.0585C5.99807 21.0585 17.1928 13.3658 22.0253 9.4245 16.4812 5.69838 15.8392 0.0585045 15.8392 0.0585045 15.8392 0.0585045 6.62916 3.65987 0.025235 17.4649" fill="#F58231" fill-rule="evenodd" transform="matrix(1 0 0 -1 455 364)"/><path d="M0.598883 17.079C0.598883 17.079 4.76912 19.5674 8.47876 16.6149 8.33276 10.9312 11.9949 3.88697 10.784 0.0592253 6.56279 4.88121 2.52389 5.51715 0.29674 6.15297-0.446819 6.36535 0.598883 17.079 0.598883 17.079" fill="#F58231" fill-rule="evenodd" transform="matrix(1 0 0 -1 482 359)"/><path d="M8.07574 38.4871C9.49226 42.3028 15.4313 47.915 20.465 43.3562 25.4977 38.7974 26.9184 30.0402 25.503 17.1985 24.0875 4.35581 23.3013 0.0603574 23.3013 0.0603574 23.3013 0.0603574 6.62758 2.60627 0.0213614 1.97091 3.1885 23.5239 8.07574 38.4871 8.07574 38.4871" fill="#EA8826" fill-rule="evenodd" transform="matrix(1 0 0 -1 424 399)"/><path d="M24.0229 4.57564C14.1543 6.80832 5.42507 7.09739 0.861486 7.05534 0.574598 5.37933 0.292952 3.66017 0.0229222 1.89496 6.63501 2.50697 23.3225 0.0590334 23.3225 0.0590334 23.3225 0.0590334 23.5651 1.33839 24.0229 4.57564" fill="#E06F22" fill-rule="evenodd" transform="matrix(1 0 0 -1 424 399)"/><path d="M5.86944 6.83395C5.86944 6.83395 3.76698 10.1741 0.927691 8.65436-1.91055 7.13772 2.45103 0.929769 7.02548 0.050781" fill="#EFA895" fill-rule="evenodd" transform="matrix(1 0 0 -1 455 326)"/><path d="M0.0239627 11.0553C0.0239627 11.0553 4.02405 5.50028 4.02405 3.55356 4.02405 1.60673 0.0239627 0.0553359 0.0239627 0.0553359" fill="#EFA895" fill-rule="evenodd" transform="matrix(1 0 0 -1 484 324)"/><path d="M0.0286645 11.0553C0.0286645 11.0553 0.707093 10.391 1.63409 9.30396 2.54924 8.20565 3.75738 6.72353 4.64429 4.95964 4.84176 4.5008 5.04696 4.04871 5.0274 3.4399 5.01439 3.22531 4.91126 2.93446 4.77343 2.69253 4.63233 2.48015 4.48139 2.28593 4.30877 2.127 3.97665 1.79532 3.60866 1.55339 3.25474 1.34665 2.90093 1.13881 2.55791 0.966165 2.23551 0.820853 0.94265 0.249454 0.0286645 0.0553359 0.0286645 0.0553359 0.0286645 0.0553359 0.898119 0.40849 2.1161 1.08093 2.71858 1.41704 3.42525 1.84645 4.01462 2.44496 4.16661 2.5926 4.28709 2.76071 4.40005 2.93446 4.48139 3.09914 4.56062 3.24567 4.57691 3.5115 4.57691 3.85901 4.40651 4.33037 4.20681 4.73587 3.81925 5.58317 3.3015 6.3862 2.80754 7.12095 2.30818 7.85581 1.84363 8.54751 1.42244 9.12223Z" fill="#C17E70" fill-rule="evenodd" transform="matrix(1 0 0 -1 484 324)"/><path d="M0.029557 4.50423C-0.0389856 5.91994 2.79648 4.13237 5.15903 4.13237 7.52264 4.13237 8.60332 3.63641 7.72488 2.02176 6.84749 0.407119 0.36655-2.44622 0.029557 4.50423" fill="#FFFFFF" fill-rule="evenodd" transform="matrix(1 0 0 -1 481 331)"/><path d="M2.01796 1.62101C2.06791 0.794442 1.66306 0.0895902 1.11424 0.0480452 0.563838 0.00650024 0.0778981 0.642581 0.0262738 1.46924-0.0237556 2.29684 0.38202 3.0016 0.931671 3.04418 1.4804 3.08667 1.96709 2.44767 2.01796 1.62101" fill="#231F20" fill-rule="evenodd" transform="matrix(1 0 0 -1 476 316)"/><path d="M1.97579 1.79407C2.14817 0.975269 1.86121 0.203198 1.33534 0.0702542 0.81143-0.06269 0.246141 0.488153 0.0746962 1.30706-0.0947778 2.12586 0.190306 2.89679 0.716089 3.03078 1.23999 3.16372 1.80434 2.6108 1.97579 1.79407" fill="#231F20" fill-rule="evenodd" transform="matrix(1 0 0 -1 486 314)"/><path d="M0.0324402 0.0940322C0.0324402 0.0940322 2.90797 2.34433 5.03244 0.0940322" stroke="#000000" stroke-width="0.484304" stroke-linecap="round" stroke-miterlimit="8" fill="#EFA895" fill-rule="evenodd" transform="matrix(1 0 0 -1 483.5 306.5)"/><path d="M5.02522 2.99567C5.02522 2.99567 1.07209 3.68468 0.0251188 0.0476472" stroke="#000000" stroke-width="0.484304" stroke-linecap="round" stroke-miterlimit="8" fill="#EFA895" fill-rule="evenodd" transform="matrix(1 0 0 -1 471.5 310.5)"/><path d="M1.04803 0.567443C1.04803 0.292902 0.825707 0.0704062 0.548027 0.0704062 0.271918 0.0704062 0.0478519 0.292902 0.0478519 0.567443 0.0478519 0.843285 0.271918 1.07041 0.548027 1.07041 0.825707 1.07041 1.04803 0.843285 1.04803 0.567443" fill="#FFFFFF" fill-rule="evenodd" transform="matrix(1 0 0 -1 487 313)"/><path d="M1.04593 0.570623C1.04593 0.293191 0.82204 0.0706954 0.545931 0.0706954 0.269996 0.0706954 0.0459308 0.293191 0.0459308 0.570623 0.0459308 0.84661 0.269996 1.0707 0.545931 1.0707 0.82204 1.0707 1.04593 0.84661 1.04593 0.570623" fill="#FFFFFF" fill-rule="evenodd" transform="matrix(1 0 0 -1 477 314)"/><path d="M4.02665 0.0471662C4.02665 0.0471662 2.46613 2.66841 0.0265353 1.90919 0.878527 1.93353 2.15431 1.83692 4.02665 0.0471662" fill="#D38879" fill-rule="evenodd" transform="matrix(1 0 0 -1 457 321)"/><path d="M670.027 422.028 390.027 422.028 390.027 421.028 670.027 421.028Z" fill="#5B82BC" fill-rule="evenodd"/><path d="M7.02809 3.55466C7.02809 1.62211 5.46059 0.0540167 3.52863 0.0540167 1.59441 0.0540167 0.028093 1.62211 0.028093 3.55466 0.028093 5.4871 1.59441 7.05412 3.52863 7.05412 5.46059 7.05412 7.02809 5.4871 7.02809 3.55466" fill="#DD8776" fill-rule="evenodd" transform="matrix(1 0 0 -1 470 328)"/><path d="M0.0411244 3.34666C0.0411244 1.85736 1.28139 0.587053 3.04127 0.0546121 2.92384 0.832972 2.78978 1.63267 2.62528 2.46838 2.40436 3.62191 2.10417 4.82929 1.77206 6.05461 0.723759 5.40321 0.0411244 4.43726 0.0411244 3.34666" fill="#DD8776" fill-rule="evenodd" transform="matrix(1 0 0 -1 489 325)"/><path d="M18.2554 92.9635C18.2554 92.9635 1.68098 23.8991 0.0528124 13.3017-1.11606 5.69718 25.815 0.088507 25.815 0.088507 25.815 0.088507 18.2554 15.0946 17.9953 20.0098 17.7341 24.924 47.016 100.089 47.016 100.089Z" fill="#EFA895" fill-rule="evenodd" transform="matrix(1 0 0 -1 373 601)"/><path d="M19.5078 93.0891 17.9211 92.6907C17.9211 92.6907 1.65011 23.8296 0.0517417 13.2634-1.09574 5.68114 25.3424 0.0890859 25.3424 0.0890859 25.3424 0.0890859 17.9222 15.051 17.6658 19.9518 17.6219 20.7907 25.6437 45.7092 27.0155 49.9423 15.6368 75.9745 17.669 87.1006 19.5078 93.0891" fill="#E09A8C" fill-rule="evenodd" transform="matrix(1 0 0 -1 373 601)"/><path d="M2.879 26.091 2.61245 25.9107C1.32258 20.0496 0.381544 15.5235 0.0514068 13.3793-1.12657 5.7315 26.0142 0.0909157 26.0142 0.0909157 26.0142 0.0909157 18.3957 15.1824 18.1336 20.1256 18.1269 20.2288 18.1401 20.3744 18.1609 20.5394 8.69545 18.8385 2.879 26.091 2.879 26.091" fill="#6E55AA" fill-rule="evenodd" transform="matrix(1 0 0 -1 379 613)"/><path d="M1.24555 23.1802C3.48056 25.1348 9.46539 24.4975 17.1068 15.837 24.7472 7.17968 31.2935 2.90922 23.5093 0.326225 15.7273-2.25797-5.25716 17.493 1.24555 23.1802" fill="#4A3570" fill-rule="evenodd" transform="matrix(1 0 0 -1 372 608)"/><path d="M0.0212509 63.6982C0.0212509 63.6982 25.0457 23.0661 25.917 15.78 26.537 10.5813 24.6139 0.678458 30.2928 0.101378 35.0092-0.378236 67.0212 10.0616 67.0212 13.7958 67.0212 17.5277 42.8637 12.3008 40.152 19.5185 37.4393 26.7373 22.4931 68.0854 22.4931 68.0854Z" fill="#EFA895" fill-rule="evenodd" transform="matrix(1 0 0 -1 421 583)"/><path d="M49.0645 15.5116 49.0614 15.5116C22.9279 12.4673 10.905 53.8596 8.13661 65.0807L0.0258302 63.4921C0.0258302 63.4921 24.9236 22.9887 25.7894 15.7257 26.4072 10.5434 24.4928 0.671989 30.143 0.0966307 34.0092-0.296952 56.2903 6.6946 64.0259 11.2496 63.6155 13.074 62.2441 14.5339 59.3987 15.2888 56.2155 15.3028 52.4519 15.2272 49.0645 15.5116" fill="#E09A8C" fill-rule="evenodd" transform="matrix(1 0 0 -1 421 583)"/><path d="M18.9246 51.8526 0.0173107 3.11183C0.0173107 3.11183 28.8239-5.52632 37.91 6.34996 46.7498 34.0598 38.5692 54.0782 38.5692 54.0782Z" fill="#0D705D" fill-rule="evenodd" transform="matrix(1 0 0 -1 380 528)"/><path d="M3.51656 85.0775C3.51656 85.0775-8.87125 50.2133 12.9308 45.2747 41.9164 46.2616 75.8591 45.2747 75.8591 45.2747L72.3909 1.0691C72.3909 1.0691 107.818-4.11385 114.012 9.21909 100.881 46.5068 91.4731 68.2351 84.7799 73.6667 78.0887 79.1004 63.224 77.1245 63.224 77.1245L60.0031 85.0775Z" fill="#12B7A1" fill-rule="evenodd" transform="matrix(1 0 0 -1 337 526)"/><path d="M79.2152 49.1466C25.0652 50.3745 24.0023 74.9627 25.8756 85.074L3.53609 85.074C3.53609 85.074-8.89485 50.2078 12.9831 45.2688 42.0696 46.2557 76.1304 45.2688 76.1304 45.2688L72.6503 1.06056C72.6503 1.06056 98.5827-2.7128 110.019 4.49918 85.7541 5.32042 82.7646 33.8691 79.2152 49.1466" fill="#13A088" fill-rule="evenodd" transform="matrix(1 0 0 -1 337 526)"/><path d="M13.5178 7.20286 15.0228 21.013 0.0227321 21.0623 2.118 0.0622344 12.5879 2.50635Z" fill="#CAAD7D" fill-rule="evenodd" transform="matrix(1 0 0 -1 427 403)"/><path d="M14.2768 59.0671C14.2768 59.0671 18.3325 46.8926 16.1009 22.8135 24.797 31.5424 27.5912 35.3819 27.5912 35.3819 27.5912 35.3819 27.49 41.6439 29.1269 41.6439 30.7649 41.6439 30.867 39.9788 30.867 39.9788 30.867 39.9788 38.0672 39.0681 40.8269 45.4154 41.9411 47.9739 47.911 37.5044 33.7073 31.7172 28.2848 21.3481 14.9038 0.0669799 9.27701 0.0669799 3.65019 0.0669799 2.12837 13.081 2.12837 19.4467 2.12837 25.8112-0.171967 42.573 0.0323814 42.9831 0.236625 43.3942 14.2768 59.0671 14.2768 59.0671" fill="#EFA895" fill-rule="evenodd" transform="matrix(1 0 0 -1 400 441)"/><path d="M10.569 11.8401C5.88008 12.6407 4.23442 33.893 3.66353 47.0637 1.63003 44.7848 0.0980699 43.051 0.0319862 42.9174-0.174921 42.5079 2.1435 25.7705 2.1435 19.4152 2.1435 13.0588 3.67651 0.0637327 9.34367 0.0637327 12.636 0.0637327 18.5599 7.23036 24.019 15.2646 19.8675 12.894 14.5818 11.1548 10.569 11.8401" fill="#E29B8D" fill-rule="evenodd" transform="matrix(1 0 0 -1 400 441)"/><path d="M44.5659 87.0667C44.5659 87.0667 71.9538 85.422 81.0151 58.2718 74.3811 50.1104 67.478 48.6793 63.4524 45.4135 63.0498 48.4668 62.7341 49.4046 62.7341 49.4046 62.7341 49.4046 63.0434 3.17222 61.3908 1.33218 59.7394-0.505564 5.34014-0.40374 1.93314 2.04567-1.4729 4.49718 0.695059 22.1556 0.695059 22.1556 0.695059 22.1556 14.4221 74.6117 44.5659 87.0667" fill="#FF9C2E" fill-rule="evenodd" transform="matrix(1 0 0 -1 337 445)"/><path d="M44.5659 87.0452C44.5659 87.0452 73.4838 88.8934 81.0151 58.2575 74.3811 50.0981 66.7792 47.4831 62.7537 44.2192 62.3511 47.2707 62.7341 49.3924 62.7341 49.3924 62.7341 49.3924 63.0434 3.17144 61.3908 1.33185 59.7394-0.50544 5.34014-0.403641 1.93314 2.04517-1.4729 4.49607 0.695059 22.1502 0.695059 22.1502 0.695059 22.1502 14.4221 74.5933 44.5659 87.0452" fill="#FF9C2E" fill-rule="evenodd" transform="matrix(1 0 0 -1 337 445)"/><path d="M53.0155 0.367153C19.8161 11.4618 18.5714 46.0998 33.9869 59.1612 46.3787 69.6614 50.7978 79.9836 52.3578 85.5004 47.7394 86.864 44.4979 87.0582 44.4979 87.0582 14.4003 74.6031 0.694414 22.1467 0.694414 22.1467 0.694414 22.1467-1.47022 4.48812 1.93049 2.03659 4.548 0.151482 37.2988-0.341959 53.0155 0.367153" fill="#FF6A2E" fill-rule="evenodd" transform="matrix(1 0 0 -1 337 445)"/><path d="M14.0157 41.0553C14.0157 41.0553 15.661 20.2649 14.7334 12.5452 13.8059 4.82455 9.60326-0.423913 3.40537 0.0900327-2.79251 0.605033 1.30512 30.9674 1.82965 30.9674 2.35417 30.9674 14.0157 41.0553 14.0157 41.0553" fill="#EFA895" fill-rule="evenodd" transform="matrix(1 0 0 -1 380 348)"/><path d="M61.2639 91.0934C60.327 105.603 71.5876 105.619 72.0091 120.99 72.4294 136.359 49.2559 145.62 34.296 125.618 19.3373 105.617 31.5556 97.6117 9.64508 83.7189-12.2665 69.824 11.1193 53.1872 3.74508 35.2905-3.62813 17.3971 9.22374-13.7635 22.0756 6.86947 34.9287 27.5047 27.5532 36.3458 46.5154 47.9245 65.4775 59.5053 62.9483 64.9877 61.2639 91.0934" fill="#2F2947" fill-rule="evenodd" transform="matrix(1 0 0 -1 323 426)"/><path d="M23.2947 16.0896C17.4109 9.77981 3.40762 10.3091 0.0265123 10.5378 0.0329046 5.65322 0.285662 0.52425 4.26052 0.105986 8.9817-0.388544 41.0265 10.401 41.0265 14.2606 41.0265 16.7287 31.1357 15.4112 23.2947 16.0896" fill="#6E55AA" fill-rule="evenodd" transform="matrix(1 0 0 -1 447 583)"/><path d="M342.009 635.057 332.009 635.057 332.009 499.057 342.009 499.057Z" fill="#81A3AA" fill-rule="evenodd"/><path d="M404.015 635.057 394.015 635.057 394.015 499.057 404.015 499.057Z" fill="#81A3AA" fill-rule="evenodd"/><path d="M86.0176 12.0742C86.0176 5.44566 80.6088 0.0742044 73.9366 0.0742044L12.0985 0.0742044C5.42748 0.0742044 0.0175715 5.44566 0.0175715 12.0742 0.0175715 18.7007 5.42748 24.0743 12.0985 24.0743L73.9366 24.0743C80.6088 24.0743 86.0176 18.7007 86.0176 12.0742" fill="#5C787F" fill-rule="evenodd" transform="matrix(1 0 0 -1 325 504)"/><path d="M71.6591 12.074 10.3734 12.074C5.94608 12.074 2.08808 9.65639 0.0162675 6.074 2.08808 2.49055 5.94608 0.0739954 10.3734 0.0739954L71.6591 0.0739954C76.0885 0.0739954 79.9455 2.49055 82.0163 6.074 79.9455 9.65639 76.0885 12.074 71.6591 12.074" fill="#748D96" fill-rule="evenodd" transform="matrix(1 0 0 -1 327 492)"/><path d="M68.0168 0.397413C68.0168 0.208711 67.8183 0.0567733 67.5718 0.0567733L0.461761 0.0567733C0.215311 0.0567733 0.0167913 0.208711 0.0167913 0.397413L0.0167913 1.7163C0.0167913 1.90492 0.215311 2.05685 0.461761 2.05685L67.5718 2.05685C67.8183 2.05685 68.0168 1.90492 68.0168 1.7163Z" fill="#C1D6DB" fill-rule="evenodd" transform="matrix(1 0 0 -1 334 485)"/><path d="M9.62975 6.06935 0.0170455 0.0693496C0.0170455 0.0693496 10.0825 0.851995 10.0167 5.09531" fill="#0D705D" fill-rule="evenodd" transform="matrix(1 0 0 -1 390 454)"/><path d="M0.93906 6.0658C0.93906 6.0658-0.299522 1.80578 0.102496 0.0657979 1.22929 2.10474 1.05085 4.26587 0.93906 6.0658" fill="#0D705D" fill-rule="evenodd" transform="matrix(1 0 0 -1 400 456)"/><path d="M11.0182 31.025C3.30753 28.1888 2.37758 37.3208 0.0181031 41.0645 0.83222 10.4477 3.52446 0.112124 3.53733 0.0645369 3.72746 9.30785 3.74243 20.0692 3.7306 26.3066L3.7306 26.3034C5.55839 27.8128 8.13364 29.1893 11.0182 31.025" fill="#FF6A2E" fill-rule="evenodd" transform="matrix(1 0 0 -1 396 427)"/><path d="M0.0225017 4.7176 15.0225 5.06032 14.5094 0.0603227 0.612867 0.0603227Z" fill="#AA8B5E" fill-rule="evenodd" transform="matrix(1 0 0 -1 427 394)"/><path d="M61.6525 80.0625C57.8659 72.6214 62.0142 60.561 39.1342 55.3391 18.1552 50.5501 17.8721 37.9832 15.7162 57.5051 13.5581 77.0293 33.2799 77.6507 29.2728 100.895 27.9004 108.863 28.9908 115.621 31.0154 121.06 20.9558 104.317 29.615 96.5079 9.58416 83.7268-12.1893 69.8305 11.0491 53.1925 3.72136 35.2953-3.60536 17.3992 9.16548-13.7639 21.9363 6.87079 34.7072 27.5077 27.3795 36.3508 46.2219 47.9293 62.054 57.6588 62.8085 63.092 61.6525 80.0625" fill="#231F38" fill-rule="evenodd" transform="matrix(1 0 0 -1 323 426)"/><path d="M24.787 60.0555C25.5661 50.6637 24.216 37.3412 12.5243 29.5732-6.91405 16.6609 6.94643 10.2022 0.0161907 0.0553586 11.041 4.36202 7.084 20.0665 18.6018 26.4952 19.1894 26.8249 19.7924 27.2169 20.4031 27.6443 23.2718 34.3309 29.6915 37.2445 30.0106 48.5984 30.1382 53.1703 28.0993 57.1912 24.787 60.0555" fill="#231F38" fill-rule="evenodd" transform="matrix(1 0 0 -1 365 354)"/><path d="M0.734277 13.7134C2.42002 26.0295 21.0563 37.5819 30.6757 31.2681 40.2939 24.9543 27.3645 7.19621 14.1188 2.75696 0.873061-1.68219-1.45482-2.28255 0.734277 13.7134" fill="#383356" fill-rule="evenodd" transform="matrix(1 0 0 -1 353 323)"/><path d="M27.6105 31.0584C27.6105 31.0584 27.4167 14.7879 12.0311 12.0946 8.83815 19.2253 15.2558 17.2876 12.689 30.0565 10.9255 24.4508 12.0059 20.8087 7.13268 18.2743 2.26063 15.7389 0.0145056 0.0583409 0.0145056 0.0583409 0.0145056 0.0583409 31.9428 2.3409 27.6105 31.0584" fill="#383356" fill-rule="evenodd" transform="matrix(1 0 0 -1 352 370)"/><path d="M0.00954712 0.058497C0.00954712 0.058497 1.98682 12.4076 10.0095 19.0586 8.03025 11.9334 2.09732 9.67176 0.00954712 0.058497" fill="#383356" fill-rule="evenodd" transform="matrix(1 0 0 -1 340 366)"/><path d="M1.19731 33.0656C1.19731 33.0656-3.43751 2.94514 5.60017 0.301922 14.6367-2.33812 16.4909 17.8681 21.0091 24.4105 14.2894 17.4096 8.97546 3.80878 5.02101 5.23996 1.06655 6.66987 0.966525 27.7104 1.19731 33.0656" fill="#383356" fill-rule="evenodd" transform="matrix(1 0 0 -1 330 422)"/><path d="M595.032 420.039 562.032 420.039 562.032 413.039 595.032 413.039Z" fill="#BC7337" fill-rule="evenodd"/><path d="M31.8694 0.0639237 0.0449557 9.63189 2.22169 17.0639 34.0451 7.49819Z" fill="#7FA55B" fill-rule="evenodd" transform="matrix(1 0 0 -1 584 420)"/><path d="M0.0709849 174.135 0.477951 2.24938C0.477951 2.24938 10.6373-1.64629 16.1224 1.01694 17.9512 20.0936 22.8295 46.3515 23.2354 55.1684 23.6413 63.9897 21.0008 81.4242 21.0008 81.4242 21.0008 81.4242 34.0047 134.96 34.0047 136.598 43.3522 98.8586 50.4652 76.4997 56.1543 57.2193 61.8423 37.9377 77.2859 5.94353 77.2859 5.94353L89.0711 10.0421C89.0711 10.0421 83.9909 60.9134 71.5958 84.9112 70.7839 129.833 68.7501 164.701 65.9067 172.086 43.7581 179.673 0.0709849 174.135 0.0709849 174.135" fill="#4F7FFF" fill-rule="evenodd" transform="matrix(1 0 0 -1 774 598)"/><path d="M0.0679898 36.0714C0.0679898 36.0714 1.09969 8.40176 3.16201 5.41937 5.2254 2.43698 9.06799 0.0714 9.06799 0.0714L5.88024 36.0714" stroke="#406AC6" stroke-width="0.816903" stroke-miterlimit="8" fill="none" fill-rule="evenodd" transform="matrix(1 0 0 -1 798.5 461.5)"/><path d="M32.1611 23.9969C32.1611 23.9969 14.307 24.4379 10.147 23.1073 11.5697 20.0052 19.3438 20.5578 19.3438 20.5578 19.3438 20.5578 0.353929 7.39412 0.0744785 5.5998-0.155633 4.1122 3.36739 5.46329 3.36739 5.46329 3.36739 5.46329 0.18797 2.77081 1.3912 2.32759 2.59663 1.88342 5.32855 3.27358 5.32855 3.27358 5.32855 3.27358 0.773575-1.19705 7.7394 1.83359 6.22887 0.157313 7.08213-0.805884 11.5697 1.16939 15.8892 3.06876 34.012 8.37146 38.0638 20.4495 35.7654 22.6653 32.1611 23.9969 32.1611 23.9969" fill="#EFA895" fill-rule="evenodd" transform="matrix(1 0 0 -1 698 431)"/><path d="M47.0698 95.0638C47.0698 95.0638 37.3472 90.8635 34.6835 80.9581 32.0186 71.0548 28.2189 39.7667 28.2189 39.7667L0.0696632 9.20445 9.28514 0.0638456 45.6001 23.4675Z" fill="#139E86" fill-rule="evenodd" transform="matrix(1 0 0 -1 729 415)"/><path d="M0.0654988 7.39102 7.46707 0.0566025 43.8582 23.4811 45.0656 82.25 38.3836 84.0567C38.3836 84.0567 37.1061 36.4909 34.8554 32.3737 32.7018 28.4291 14.0433 7.6972 0.0654988 7.39102" fill="#108C74" fill-rule="evenodd" transform="matrix(1 0 0 -1 731 415)"/><path d="M54.1283 118.202 54.1273 118.202C53.2228 118.748 52.6491 119.065 52.6491 119.065 52.6491 119.065 22.0732 113.575 18.0394 111.734 14.0023 109.897 1.79944 106.384 0.360203 98.3805-1.07914 90.3782 3.4441 41.1382 3.23772 0.796623 15.7767-0.850181 71.0717 0.796623 71.0717 0.796623 71.0717 0.796623 69.2206 18.7056 67.7825 36.4035 67.0271 45.7053 67.4626 61.9361 67.8679 76.2951 73.9795 72.0937 80.0891 67.9411 81.348 67.2605 84.0203 65.8226 77.2299 39.6603 73.127 30.8454 80.9385 27.3462 82.9937 21.0264 82.9937 21.0264 82.9937 21.0264 106.237 56.6247 107.058 70.6201 107.88 84.6166 81.7445 104.33 54.1283 118.202" fill="#12B7A1" fill-rule="evenodd" transform="matrix(1 0 0 -1 769 427)"/><path d="M70.5343 6.21967C14.1834 27.1223 1.37841 87.1457 0.080451 94.057-0.0308536 78.6892 3.41875 36.3096 3.23826 0.792544 15.7773-0.862475 71.0779 0.792544 71.0779 0.792544 71.0779 0.792544 70.8672 2.8379 70.5343 6.21967" fill="#13A88F" fill-rule="evenodd" transform="matrix(1 0 0 -1 769 427)"/><path d="M48.2199 24.6608C48.2199 24.6608 51.4878 0.681556 49.3418 0.272538 47.199-0.134366 1.3351 0.272538 1.3351 0.272538 1.3351 0.272538-2.44436 3.23441 3.0717 5.47803 8.58881 7.72272 32.7491 19.2556 33.7428 20.6845 34.7365 22.1133 34.9396 26.0918 34.9396 26.0918Z" fill="#EFA895" fill-rule="evenodd" transform="matrix(1 0 0 -1 740 620)"/><path d="M28.7415 32.182C28.7415 32.182 29.3564 26.2183 26.4922 22.9256 23.6278 19.6339 16.2648 11.82 11.2543 9.96765 6.24399 8.11527-0.40294 7.29129 0.107807 1.43143 6.65364-0.01001 21.0721 0.0927243 21.0721 0.0927243 21.0721 0.0927243 47.764 10.5841 48.0715 14.5959 48.3779 18.6066 40.5031 28.992 38.0484 36.0911 32.9347 33.9316 28.7415 32.182 28.7415 32.182" fill="#EFA895" fill-rule="evenodd" transform="matrix(1 0 0 -1 823 621)"/><path d="M21.9532 43.0524C21.9532 43.0524 21.2022 28.9198 23.0768 21.0002 22.2639 13.0806 6.56341 1.14504 2.86275 0.107886-0.837898-0.928114 1.51457 12.7776 0.0768387 21.853 7.01463 33.2473 21.9532 43.0524 21.9532 43.0524" fill="#E29B8D" fill-rule="evenodd" transform="matrix(1 0 0 -1 790 324)"/><path d="M22.0471 20.0301C21.768 26.2589 22.0772 32.0497 22.0772 32.0497 22.0772 32.0497 7.05535 22.3075 0.0771645 10.9863 0.613306 7.64424 0.625552 3.67453 0.617749 0.0496826 14.7865 2.88932 20.0808 13.1265 22.0471 20.0301" fill="#D68D83" fill-rule="evenodd" transform="matrix(1 0 0 -1 790 313)"/><path d="M9.91622 41.8381 3.29059 47.0747 0.0772424 0.0746088C3.72441 14.4277 9.08442 35.6676 10.0772 40.4074Z" fill="#3F74E8" fill-rule="evenodd" transform="matrix(1 0 0 -1 798 503)"/><path d="M0.455505 32.483C0.455505 32.483-0.484007 1.29053 7.39338 0.199235 15.2729-0.891005 31.032 3.96175 32.6786 14.399 34.3252 24.8364 30.5616 39.8865 25.2693 44.0149 19.9792 48.1423-3.18495 50.9167 0.455505 32.483" fill="#EFA895" fill-rule="evenodd" transform="matrix(1 0 0 -1 776 306)"/><path d="M9.41085 19.3206C9.41085 19.3206 7.75297 27.0484 12.6264 28.2117 17.4987 29.3759 28.2823 25.7652 32.5467 28.2117 31.2661 19.9547 32.3635 18.9819 34.6174 16.5949 36.8714 14.21 36.6268 10.5409 37.0536 6.87269 40.4038 12.8034 44.9463 17.3122 45.0443 0.0460752 49.2473 7.81623 52.2234 15.9272 50.6389 24.4289 49.0542 32.9261 41.9269 33.1718 41.9269 33.1718 41.9269 33.1718 45.9487 43.3235 32.8506 43.9933 19.7537 44.6653-2.84635 38.8579 0.383169 31.0304 3.61153 23.204 9.41085 19.3206 9.41085 19.3206" fill="#4C291D" fill-rule="evenodd" transform="matrix(1 0 0 -1 767 293)"/><path d="M0.07385 4.35325C0.07385 4.35325 1.5254 11.699 4.30865 11.0032 7.09075 10.3063 6.72786 3.08832 2.1912 0.0496759" fill="#EFA895" fill-rule="evenodd" transform="matrix(1 0 0 -1 805 289)"/><path d="M3.07426 99.0644C3.07426 99.0644-2.45911 35.1741 1.50395 0.0643649" stroke="#19937E" stroke-width="0.816903" stroke-linecap="round" stroke-miterlimit="8" fill="none" fill-rule="evenodd" transform="matrix(1 0 0 -1 792.5 422.5)"/><path d="M41.5789 11.0276C37.819 10.8819 34.2893 16.244 32.6842 19.0874 27.8273 16.2149 8.0027 7.17714 3.07104 5.25244-2.44498 3.10096 1.33445 0.260736 1.33445 0.260736 1.33445 0.260736 47.1981-0.129354 49.3408 0.260736 50.6028 0.490655 49.9935 8.53172 49.2768 15.1215 49.2735 15.1173 46.6832 11.2242 41.5789 11.0276" fill="#63441C" fill-rule="evenodd" transform="matrix(1 0 0 -1 740 620)"/><path d="M3.98944 0.911887C4.1414 0.660495 4.06594 0.331967 3.82588 0.173181 3.58365 0.016652 3.26596 0.0927143 3.11514 0.345181L0.145855 5.27247C-0.00393365 5.52601 0.0693564 5.85454 0.308377 6.01117 0.550607 6.16663 0.8683 6.09164 1.02016 5.83917Z" fill="#FFFF6A" fill-rule="evenodd" transform="matrix(1 0 0 -1 761 611)"/><path d="M3.98934 0.758476C4.14231 0.549031 4.06686 0.276216 3.82685 0.145806 3.58467 0.0126204 3.26715 0.0768859 3.11625 0.286331L0.147585 4.39234C-0.00424332 4.60367 0.0700665 4.87917 0.310073 5.00877 0.552252 5.13918 0.86988 5.07483 1.02171 4.86816Z" fill="#FFFF6A" fill-rule="evenodd" transform="matrix(1 0 0 -1 766 608)"/><path d="M49.3667 0.280303C49.7992 0.363959 50.0079 1.44432 50.072 3.09452L0.134609 3.09452C-0.257674 1.56252 1.32258 0.280303 1.32258 0.280303 1.32258 0.280303 47.2211-0.137761 49.3667 0.280303" fill="#442A0E" fill-rule="evenodd" transform="matrix(1 0 0 -1 740 620)"/><path d="M36.9243 18.7841C34.2115 17.621 29.33 21.6211 27.1226 23.6249 26.9322 23.3252 26.7291 23.0342 26.4935 22.7658 23.6292 19.496 16.265 11.7375 11.2555 9.89805 6.24495 8.05856-0.403157 7.24032 0.108647 1.42021 6.65461-0.0101496 21.0733 0.0918695 21.0733 0.0918695 21.0733 0.0918695 47.7657 10.5102 48.0722 14.494 48.2518 16.8254 45.6229 21.3376 42.9186 26.0904 41.9026 24.0415 39.5844 19.9212 36.9243 18.7841" fill="#63441C" fill-rule="evenodd" transform="matrix(1 0 0 -1 823 621)"/><path d="M4.94513 1.09366C5.14473 0.846479 5.12354 0.473261 4.90166 0.253026 4.6775 0.0327908 4.3374 0.0560424 4.13552 0.303225L0.219272 5.11357C0.0207536 5.35468 0.0408554 5.73398 0.261648 5.95063 0.484614 6.17087 0.829168 6.14643 1.0266 5.90413Z" fill="#FFFF6A" fill-rule="evenodd" transform="matrix(1 0 0 -1 841 609)"/><path d="M3.95584 1.09246C4.11552 0.845252 4.1004 0.469492 3.92194 0.252932 3.74357 0.0338673 3.46966 0.054617 3.30911 0.29944L0.176026 5.10908C0.0172983 5.35628 0.0324235 5.73324 0.210883 5.9523 0.389256 6.16767 0.663161 6.14811 0.821888 5.90329Z" fill="#FFFF6A" fill-rule="evenodd" transform="matrix(1 0 0 -1 846 606)"/><path d="M48.0741 14.4743C48.1268 15.1649 47.9117 16.0667 47.5407 17.0908 42.2096 13.9274 24.7464 3.70609 20.2561 2.84709 15.5378 1.93993 3.31966 3.92478 0.620786 4.3838 0.207872 3.5667 0.00461006 2.5983 0.108965 1.41884 6.65409-0.00950841 21.0743 0.0923674 21.0743 0.0923674 21.0743 0.0923674 47.7676 10.496 48.0741 14.4743" fill="#442A0E" fill-rule="evenodd" transform="matrix(1 0 0 -1 823 621)"/><path d="M0.0742351 7.21525C0.0742351 7.21525 5.97094 3.69733 9.25882 0.0517558 16.1068 5.62389 24.9475 14.3485 28.0743 21.0489 24.5165 27.9583 18.4249 26.7251 17.6697 27.0518 16.3767 25.2873 13.7995 17.9162 0.0742351 7.21525" fill="#20CEB1" fill-rule="evenodd" transform="matrix(1 0 0 -1 795 330)"/><path d="M0.0677534 12.8517C0.0677534 12.8517 3.12232 16.2847 7.83873 18.0527 8.29443 14.3882 9.7238 8.46141 12.0678 5.9837 11.1287 3.34407 6.33176 0.0526527 6.33176 0.0526527 3.50261 3.61109 0.674355 8.70587 0.0677534 12.8517" fill="#20CEB1" fill-rule="evenodd" transform="matrix(1 0 0 -1 783 329)"/><path d="M18.5403 31.0651C18.5403 31.0651 15.5431 28.8727 12.39 28.9417 12.4588 24.7244 14.2763 18.9832 11.4017 17.0455 8.52813 15.1108-0.646241 7.9179 0.124805 6.9522 0.895851 5.98328 4.32867 6.9522 4.32867 6.9522 4.32867 6.9522 3.1392 4.80745 4.12003 4.1834 5.09972 3.56161 14.7022 9.57654 16.3841 11.7903 15.5431 6.25917 10.7059 2.03979 11.548 0.311045 12.39-1.41666 19.9578 6.32814 21.431 11.9983 22.9023 17.6694 25.7984 18.6648 26.079 23.9222 26.079 23.9222 24.3508 26.7949 23.198 27.838 21.2913 29.5678 18.5403 31.0651 18.5403 31.0651" fill="#EFA895" fill-rule="evenodd" transform="matrix(1 0 0 -1 825 428)"/><path d="M0.0826077 0.061056 10.0827 7.06106" fill="#EFA895" fill-rule="evenodd" transform="matrix(1 0 0 -1 829 421)"/><path d="M0.0826077 0.061056C0.0826077 0.061056 0.658514 0.552863 1.55904 1.25036 2.01567 1.59309 2.53412 2.00675 3.11461 2.42446 3.69286 2.84118 4.31225 3.28635 4.92952 3.73143 5.56042 4.16129 6.19256 4.59125 6.78568 4.99474 7.37645 5.39931 7.95236 5.74914 8.43302 6.06341 9.40811 6.67783 10.0827 7.06106 10.0827 7.06106 10.0827 7.06106 9.50681 6.56836 8.60618 5.87076 8.14966 5.52912 7.63232 5.11339 7.0506 4.69766 6.47134 4.28093 5.85296 3.83586 5.23581 3.39078 4.60367 2.96082 3.97154 2.53096 3.37965 2.12846 2.78653 1.72389 2.21185 1.37307 1.73107 1.0588 0.757107 0.443298 0.0826077 0.061056 0.0826077 0.061056" fill="#A35F52" fill-rule="evenodd" transform="matrix(1 0 0 -1 829 421)"/><path d="M5.08074 11.0463C5.08074 11.0463-1.01233 3.05409 0.253798 1.13811 1.52124-0.777875 4.84533 0.410767 4.84533 0.410767" fill="#EFA895" fill-rule="evenodd" transform="matrix(1 0 0 -1 775 292)"/><path d="M5.07732 11.046C5.07732 11.046 4.56672 10.215 3.80253 8.96848 3.41626 8.34934 2.99842 7.6116 2.54409 6.82716 2.09217 6.04182 1.63441 5.1926 1.25054 4.32511 0.865532 3.46977 0.481665 2.56278 0.519182 1.75009 0.537941 1.54736 0.584952 1.38018 0.706998 1.22713 0.831446 1.02855 0.975797 0.902842 1.11546 0.774175 1.43596 0.524839 1.83035 0.386001 2.21193 0.318063 2.97966 0.18436 3.66985 0.272541 4.1276 0.350551 4.59246 0.43261 4.85187 0.509632 4.85187 0.509632 4.85187 0.509632 4.61007 0.39716 4.15231 0.268493 3.69684 0.157007 3.01363-0.0264641 2.16263 0.0759363 1.74239 0.127581 1.27868 0.257334 0.877199 0.531949 0.680004 0.685007 0.487498 0.85416 0.36305 1.02746 0.184613 1.21399 0.107176 1.48456 0.0837279 1.71661 0.0226477 2.6793 0.408803 3.59142 0.781003 4.4832 2.44664 8.0139 5.07732 11.046 5.07732 11.046" fill="#C17E70" fill-rule="evenodd" transform="matrix(1 0 0 -1 775 292)"/><path d="M2.0637 2.05304C2.0637 0.947312 1.61627 0.0530429 1.06323 0.0530429 0.510193 0.0530429 0.0637033 0.947312 0.0637033 2.05304 0.0637033 3.15759 0.510193 4.05304 1.06323 4.05304 1.61627 4.05304 2.0637 3.15759 2.0637 2.05304" fill-rule="evenodd" transform="matrix(1 0 0 -1 777 279)"/><path d="M3.08121 2.04591C3.08121 0.938947 2.41038 0.0443301 1.58174 0.0443301 0.753221 0.0443301 0.0810907 0.938947 0.0810907 2.04591 0.0810907 3.14971 0.753221 4.04433 1.58174 4.04433 2.41038 4.04433 3.08121 3.14971 3.08121 2.04591" fill-rule="evenodd" transform="matrix(1 0 0 -1 785 279)"/><path d="M0.0739881 1.78573C0.0739881 1.78573 3.164 1.90674 7.96656 5.0483 8.83584 0.627 4.27207-1.81578 0.0739881 1.78573" fill="#BC6453" fill-rule="evenodd" transform="matrix(1 0 0 -1 779 299)"/><path d="M1.10838 0.543368C1.10838 0.266616 0.883904 0.0428421 0.608297 0.0428421 0.331082 0.0428421 0.108378 0.266616 0.108378 0.543368 0.108378 0.82012 0.331082 1.04284 0.608297 1.04284 0.883904 1.04284 1.10838 0.82012 1.10838 0.543368" fill="#FFFFFF" fill-rule="evenodd" transform="matrix(1 0 0 -1 777 278)"/><path d="M1.11052 0.541878C1.11052 0.266871 0.88706 0.0428831 0.612133 0.0428831 0.332365 0.0428831 0.110358 0.266871 0.110358 0.541878 0.110358 0.817938 0.332365 1.04288 0.612133 1.04288 0.88706 1.04288 1.11052 0.817938 1.11052 0.541878" fill="#FFFFFF" fill-rule="evenodd" transform="matrix(1 0 0 -1 786 278)"/><path d="M8.07253 4.04609C8.07253 6.25582 6.28147 8.04829 4.07206 8.04829 1.86265 8.04829 0.0725287 6.25582 0.0725287 4.04609 0.0725287 1.83856 1.86265 0.0481852 4.07206 0.0481852 6.28147 0.0481852 8.07253 1.83856 8.07253 4.04609" fill="#DD8776" fill-rule="evenodd" transform="matrix(1 0 0 -1 787 292)"/><path d="M0.368362 2.24707C0.368362 2.24707 10.3921-1.66481 15.8038 1.00954 16.7545 11.0886 18.5366 23.1609 20.069 33.6318 15.5541 39.027 11.4459 46.5932 9.22435 57.2027 5.70956 73.9805 2.42347 105.012 0.0690101 131.074Z" fill="#3F74E8" fill-rule="evenodd" transform="matrix(1 0 0 -1 774 598)"/><path d="M12.1003 51.2797C17.7987 32.0281 33.2706 0.0823496 33.2706 0.0823496L45.0774 4.1756C45.0774 4.1756 43.4614 20.3008 39.8295 38.6653 23.6994 48.8487 8.07876 76.3158 0.0773715 92.0825 4.71633 75.5934 8.66947 62.867 12.1003 51.2797" fill="#3F74E8" fill-rule="evenodd" transform="matrix(1 0 0 -1 818 592)"/><path d="M23.0768 35.6998C22.8353 37.1279 19.3877 46.9046 0.105883 59.0596-0.31444 41.6603 4.92002 0.899094 4.92002 0.899094 4.78612 2.46692 4.65221 4.04223 4.52163 5.61755 3.75435 14.9193 4.1967 31.15 4.60836 45.5089 10.8164 41.3076 17.0223 37.155 18.301 36.4745 21.0155 35.0365 14.118 8.87434 9.95042 0.0594617 14.9588 6.13256 23.3183 34.2693 23.0768 35.6998" fill="#139E86" fill-rule="evenodd" transform="matrix(1 0 0 -1 832 396)"/></g></svg>