<svg width="89" height="89" xmlns="http://www.w3.org/2000/svg" xmlns:xlink="http://www.w3.org/1999/xlink" overflow="hidden"><defs><clipPath id="clip0"><rect x="873" y="483" width="89" height="89"/></clipPath><clipPath id="clip1"><rect x="907" y="514" width="54" height="54"/></clipPath><clipPath id="clip2"><rect x="907" y="514" width="54" height="54"/></clipPath><clipPath id="clip3"><rect x="907" y="514" width="54" height="54"/></clipPath></defs><g clip-path="url(#clip0)" transform="translate(-873 -483)"><path d="M873.5 528C873.5 503.976 892.528 484.5 916 484.5 939.472 484.5 958.5 503.976 958.5 528 958.5 552.024 939.472 571.5 916 571.5 892.528 571.5 873.5 552.024 873.5 528Z" stroke="#4F08A9" stroke-width="0.333333" stroke-miterlimit="8" fill="none" fill-rule="evenodd"/><path d="M886.5 508.996C886.5 507.617 887.617 506.5 888.996 506.5L941.004 506.5C942.383 506.5 943.5 507.617 943.5 508.996L943.5 547.004C943.5 548.383 942.383 549.5 941.004 549.5L888.996 549.5C887.617 549.5 886.5 548.383 886.5 547.004Z" stroke="#4F08A9" stroke-width="1.33333" stroke-miterlimit="8" fill="none" fill-rule="evenodd"/><path d="M889.5 511.5C889.5 510.395 890.396 509.5 891.5 509.5 892.605 509.5 893.5 510.395 893.5 511.5 893.5 512.605 892.605 513.5 891.5 513.5 890.396 513.5 889.5 512.605 889.5 511.5Z" stroke="#4F08A9" stroke-width="1.33333" stroke-miterlimit="8" fill="#4F08A9" fill-rule="evenodd"/><path d="M895.5 511.5C895.5 510.395 896.396 509.5 897.5 509.5 898.605 509.5 899.5 510.395 899.5 511.5 899.5 512.605 898.605 513.5 897.5 513.5 896.396 513.5 895.5 512.605 895.5 511.5Z" stroke="#4F08A9" stroke-width="1.33333" stroke-miterlimit="8" fill="#4F08A9" fill-rule="evenodd"/><path d="M901.5 511.5C901.5 510.395 902.396 509.5 903.5 509.5 904.605 509.5 905.5 510.395 905.5 511.5 905.5 512.605 904.605 513.5 903.5 513.5 902.396 513.5 901.5 512.605 901.5 511.5Z" stroke="#4F08A9" stroke-width="1.33333" stroke-miterlimit="8" fill="#4F08A9" fill-rule="evenodd"/><path d="M886.5 515.5 943.477 515.5" stroke="#5B9BD5" stroke-width="0.666667" stroke-miterlimit="8" fill="none" fill-rule="evenodd"/><g clip-path="url(#clip1)"><g clip-path="url(#clip2)"><g clip-path="url(#clip3)"><path d="M953.125 521.875 914.875 521.875 931.75 538.75 931.75 555.625 931.75 560.125 936.25 555.625 936.25 538.75Z" fill="#4F08A9"/></g></g></g></g></svg>