<svg width="95" height="93" xmlns="http://www.w3.org/2000/svg" xmlns:xlink="http://www.w3.org/1999/xlink" overflow="hidden"><defs><clipPath id="clip0"><rect x="911" y="467" width="95" height="93"/></clipPath><clipPath id="clip1"><rect x="913" y="467" width="92" height="92"/></clipPath><clipPath id="clip2"><rect x="913" y="467" width="92" height="92"/></clipPath><clipPath id="clip3"><rect x="913" y="467" width="92" height="92"/></clipPath><clipPath id="clip4"><rect x="919" y="526" width="24" height="22"/></clipPath><clipPath id="clip5"><rect x="919" y="526" width="24" height="22"/></clipPath><clipPath id="clip6"><rect x="919" y="526" width="24" height="22"/></clipPath></defs><g clip-path="url(#clip0)" transform="translate(-911 -467)"><g clip-path="url(#clip1)"><g clip-path="url(#clip2)"><g clip-path="url(#clip3)"><path d="M985.833 484.25C985.833 488.484 973.82 491.917 959 491.917 944.18 491.917 932.167 488.484 932.167 484.25 932.167 480.016 944.18 476.583 959 476.583 973.82 476.583 985.833 480.016 985.833 484.25Z" stroke="#4F08A9" stroke-width="1.58625" fill="none"/><path d="M978.167 503.417C977.017 503.417 976.25 502.65 976.25 501.5 976.25 500.35 977.017 499.583 978.167 499.583 979.317 499.583 980.083 500.35 980.083 501.5 980.083 502.65 979.317 503.417 978.167 503.417ZM959 495.75C944.242 495.75 932.167 492.3 932.167 488.083L932.167 503.417C932.167 507.633 944.242 511.083 959 511.083 973.758 511.083 985.833 507.633 985.833 503.417L985.833 488.083C985.833 492.3 973.758 495.75 959 495.75Z" stroke="#4F08A9" stroke-width="1.58625" fill="none"/><path d="M978.167 522.583C977.017 522.583 976.25 521.817 976.25 520.667 976.25 519.517 977.017 518.75 978.167 518.75 979.317 518.75 980.083 519.517 980.083 520.667 980.083 521.817 979.317 522.583 978.167 522.583ZM959 514.917C944.242 514.917 932.167 511.467 932.167 507.25L932.167 522.583C932.167 526.8 944.242 530.25 959 530.25 973.758 530.25 985.833 526.8 985.833 522.583L985.833 507.25C985.833 511.467 973.758 514.917 959 514.917Z" stroke="#4F08A9" stroke-width="1.58625" fill="none"/><path d="M978.167 541.75C977.017 541.75 976.25 540.983 976.25 539.833 976.25 538.683 977.017 537.917 978.167 537.917 979.317 537.917 980.083 538.683 980.083 539.833 980.083 540.983 979.317 541.75 978.167 541.75ZM959 534.083C944.242 534.083 932.167 530.633 932.167 526.417L932.167 541.75C932.167 545.967 944.242 549.417 959 549.417 973.758 549.417 985.833 545.967 985.833 541.75L985.833 526.417C985.833 530.633 973.758 534.083 959 534.083Z" stroke="#4F08A9" stroke-width="1.58625" fill="none"/></g></g></g><path d="M929.492 518.285C929.492 518.285 915.701 523.748 914.223 524.341 912.746 524.935 912.007 526.36 912.007 527.785 912.007 529.21 910.899 547.804 929.492 556.795 929.492 556.795 931.18 557.245 932.46 556.795 933.74 556.344 949.994 548.744 949.994 527.726 949.994 527.726 949.994 525.588 947.408 524.401 944.823 523.213 932.32 518.285 932.32 518.285 932.32 518.285 930.785 517.632 929.492 518.285Z" stroke="#7030A0" stroke-width="2" stroke-miterlimit="8" fill="#4F08A9" fill-rule="evenodd"/><g clip-path="url(#clip4)"><g clip-path="url(#clip5)"><g clip-path="url(#clip6)"><path d="M11.4583 15.8583 11.4583 17.0729 10.5417 17.0729 10.5417 15.8583C10.0146 15.675 9.625 15.1708 9.625 14.5521 9.625 13.7958 10.2438 13.1771 11 13.1771 11.7563 13.1771 12.375 13.7958 12.375 14.5521 12.375 15.1479 11.9854 15.6521 11.4583 15.8583ZM7.5625 7.44792C7.5625 5.54583 9.09792 4.01042 11 4.01042 12.9021 4.01042 14.4375 5.54583 14.4375 7.44792L14.4375 9.99167 11 9.73958 7.5625 9.99167 7.5625 7.44792ZM15.8125 10.0833 15.8125 7.44792C15.8125 4.78958 13.6583 2.63542 11 2.63542 8.34167 2.63542 6.1875 4.78958 6.1875 7.44792L6.1875 10.0833 4.58333 10.1979 4.58333 18.9062 11 19.3646 17.4167 18.9062 17.4167 10.1979 15.8125 10.0833Z" stroke="#7030A0" stroke-width="0.229123" fill="#FFFFFF" transform="matrix(1.09091 0 0 1 919 526)"/></g></g></g></g></svg>