<svg width="82" height="84" xmlns="http://www.w3.org/2000/svg" xmlns:xlink="http://www.w3.org/1999/xlink" overflow="hidden"><defs><clipPath id="clip0"><rect x="200" y="462" width="82" height="84"/></clipPath><clipPath id="clip1"><rect x="207" y="514" width="24" height="24"/></clipPath><clipPath id="clip2"><rect x="207" y="514" width="24" height="24"/></clipPath><clipPath id="clip3"><rect x="207" y="514" width="24" height="24"/></clipPath></defs><g clip-path="url(#clip0)" transform="translate(-200 -462)"><path d="M278.693 481.825 279 543 221 543 221 465.563C240.333 465.563 258.111 465 258.111 465" stroke="#4F08A9" stroke-width="2" stroke-miterlimit="8" fill="none" fill-rule="evenodd"/><path d="M278.701 482.763 257.033 487.333 257.205 465.189Z" stroke="#4F08A9" stroke-width="2" stroke-miterlimit="8" fill="none" fill-rule="evenodd"/><path d="M230 496 267.388 496" stroke="#4F08A9" stroke-width="2" stroke-miterlimit="8" fill="none" fill-rule="evenodd"/><path d="M230 507 267.388 507" stroke="#4F08A9" stroke-width="2" stroke-miterlimit="8" fill="none" fill-rule="evenodd"/><path d="M231 518 268.388 518" stroke="#4F08A9" stroke-width="2" stroke-miterlimit="8" fill="none" fill-rule="evenodd"/><path d="M231 529 268.388 529" stroke="#4F08A9" stroke-width="2" stroke-miterlimit="8" fill="none" fill-rule="evenodd"/><path d="M201 526.5C201 516.283 209.507 508 220 508 230.493 508 239 516.283 239 526.5 239 536.717 230.493 545 220 545 209.507 545 201 536.717 201 526.5Z" stroke="#7030A0" stroke-width="2" stroke-miterlimit="8" fill="#4F08A9" fill-rule="evenodd"/><g clip-path="url(#clip1)"><g clip-path="url(#clip2)"><g clip-path="url(#clip3)"><path d="M228.525 517.95 215.725 530.05 209.575 523.75 207.45 525.775 215.625 534.175 217.775 532.175 230.55 520.05Z" stroke="#7030A0" stroke-width="0.250042" fill="#FFFFFF"/></g></g></g></g></svg>