<svg width="85" height="77" xmlns="http://www.w3.org/2000/svg" xmlns:xlink="http://www.w3.org/1999/xlink" overflow="hidden"><defs><clipPath id="clip0"><rect x="218" y="275" width="85" height="77"/></clipPath><clipPath id="clip1"><rect x="219" y="275" width="71" height="72"/></clipPath><clipPath id="clip2"><rect x="219" y="275" width="71" height="72"/></clipPath><clipPath id="clip3"><rect x="219" y="275" width="71" height="72"/></clipPath></defs><g clip-path="url(#clip0)" transform="translate(-218 -275)"><g clip-path="url(#clip1)"><g clip-path="url(#clip2)"><g clip-path="url(#clip3)"><path d="M46.542 36.9792C44.0422 34.8492 40.7954 33.8507 37.7188 32.8893L37.7188 15.0061C40.7059 15.29 43.4975 16.6177 45.6027 18.7558L49.1527 15.3538C46.1146 12.2633 42.0436 10.4015 37.7188 10.1249L37.7188 3.69792 33.2812 3.69792 33.2812 10.4059C31.7617 10.7017 30.2956 11.2253 28.9325 11.9591 23.3265 15.0135 20.4643 22.1875 22.7644 28.2299 24.5468 32.8893 28.8438 34.9675 33.2812 36.528L33.2812 55.8903C29.8422 55.4688 26.9874 53.4941 24.6207 51.0312L21.0707 54.4259C22.761 56.344 24.7765 57.9489 27.0244 59.1667 28.9891 60.1013 31.1111 60.6606 33.2812 60.8159L33.2812 67.3021 37.7188 67.3021 37.7188 60.6458C42.8071 59.7953 47.4812 56.6669 49.4929 51.7708 51.5046 46.8748 50.7724 40.5957 46.542 36.9792ZM29.5833 29.3836C25.5156 25.952 26.5067 19.3105 30.8184 16.5593 31.5826 16.0691 32.4116 15.6883 33.2812 15.4277L33.2812 31.4693C31.9422 30.9823 30.6929 30.2776 29.5833 29.3836ZM42.9624 52.9172C41.5189 54.3284 39.6977 55.2916 37.7188 55.6906L37.7188 38.022C40.6771 39.0352 44.0718 40.3221 45.2773 43.4727 46.4828 46.6233 45.2699 50.5653 42.9624 52.9172Z" fill="#4F08A9" transform="matrix(1 0 0 1.01408 219 275)"/></g></g></g><path d="M270 334.5 278.25 334.5 278.25 310 294.75 310 294.75 334.5 303 334.5 286.5 351Z" fill="#4F08A9" fill-rule="evenodd"/></g></svg>