<svg width="86" height="76" xmlns="http://www.w3.org/2000/svg" xmlns:xlink="http://www.w3.org/1999/xlink" overflow="hidden"><defs><clipPath id="clip0"><rect x="901" y="296" width="86" height="76"/></clipPath><clipPath id="clip1"><rect x="909" y="336" width="26" height="24"/></clipPath><clipPath id="clip2"><rect x="909" y="336" width="26" height="24"/></clipPath><clipPath id="clip3"><rect x="909" y="336" width="26" height="24"/></clipPath></defs><g clip-path="url(#clip0)" transform="translate(-901 -296)"><path d="M982.7 297 930.3 297C928.478 297 927 298.503 927 300.356L927 308.644C927 310.497 928.478 312 930.3 312L982.7 312C984.522 312 986 310.497 986 308.644L986 300.356C986 298.503 984.522 297 982.7 297ZM936.219 306.375C935.201 306.375 934.375 305.536 934.375 304.5 934.375 303.464 935.201 302.625 936.219 302.625 937.237 302.625 938.062 303.464 938.062 304.5 938.062 305.536 937.237 306.375 936.219 306.375ZM945.438 306.375C944.419 306.375 943.594 305.536 943.594 304.5 943.594 303.464 944.419 302.625 945.438 302.625 946.456 302.625 947.281 303.464 947.281 304.5 947.281 305.536 946.456 306.375 945.438 306.375ZM954.656 306.375C953.638 306.375 952.812 305.536 952.812 304.5 952.812 303.464 953.638 302.625 954.656 302.625 955.674 302.625 956.5 303.464 956.5 304.5 956.5 305.536 955.674 306.375 954.656 306.375Z" stroke="#4F08A9" stroke-width="2" stroke-miterlimit="8" fill="none" fill-rule="evenodd"/><path d="M982.7 317 930.3 317C928.478 317 927 318.503 927 320.356L927 328.644C927 330.497 928.478 332 930.3 332L982.7 332C984.522 332 986 330.497 986 328.644L986 320.356C986 318.503 984.522 317 982.7 317ZM936.219 326.375C935.201 326.375 934.375 325.536 934.375 324.5 934.375 323.464 935.201 322.625 936.219 322.625 937.237 322.625 938.062 323.464 938.062 324.5 938.062 325.536 937.237 326.375 936.219 326.375ZM945.438 326.375C944.419 326.375 943.594 325.536 943.594 324.5 943.594 323.464 944.419 322.625 945.438 322.625 946.456 322.625 947.281 323.464 947.281 324.5 947.281 325.536 946.456 326.375 945.438 326.375ZM954.656 326.375C953.638 326.375 952.812 325.536 952.812 324.5 952.812 323.464 953.638 322.625 954.656 322.625 955.674 322.625 956.5 323.464 956.5 324.5 956.5 325.536 955.674 326.375 954.656 326.375Z" stroke="#4F08A9" stroke-width="2" stroke-miterlimit="8" fill="none" fill-rule="evenodd"/><path d="M982.7 338 930.3 338C928.478 338 927 339.402 927 341.133L927 348.868C927 350.598 928.478 352 930.3 352L982.7 352C984.522 352 986 350.598 986 348.868L986 341.133C986 339.402 984.522 338 982.7 338ZM936.219 346.75C935.201 346.75 934.375 345.966 934.375 345 934.375 344.034 935.201 343.25 936.219 343.25 937.237 343.25 938.062 344.034 938.062 345 938.062 345.966 937.237 346.75 936.219 346.75ZM945.438 346.75C944.419 346.75 943.594 345.966 943.594 345 943.594 344.034 944.419 343.25 945.438 343.25 946.456 343.25 947.281 344.034 947.281 345 947.281 345.966 946.456 346.75 945.438 346.75ZM954.656 346.75C953.638 346.75 952.812 345.966 952.812 345 952.812 344.034 953.638 343.25 954.656 343.25 955.674 343.25 956.5 344.034 956.5 345 956.5 345.966 955.674 346.75 954.656 346.75Z" stroke="#4F08A9" stroke-width="2" stroke-miterlimit="8" fill="none" fill-rule="evenodd"/><rect x="954" y="353" width="6" height="10" fill="#4F08A9"/><rect x="930" y="366" width="21" height="4" fill="#4F08A9"/><rect x="962" y="366" width="21" height="4" fill="#4F08A9"/><rect x="953.5" y="366.5" width="7" height="4" stroke="#4F08A9" stroke-width="1.33333" stroke-miterlimit="8" fill="#4F08A9"/><path d="M921.413 328.307C921.413 328.307 906.896 334.19 905.34 334.829 903.785 335.469 903.007 337.003 903.007 338.538 903.007 340.072 901.841 360.097 921.413 369.779 921.413 369.779 923.189 370.264 924.537 369.779 925.885 369.294 942.994 361.109 942.994 338.474 942.994 338.474 942.994 336.172 940.272 334.893 937.55 333.614 924.39 328.307 924.39 328.307 924.39 328.307 922.774 327.604 921.413 328.307Z" stroke="#7030A0" stroke-width="2" stroke-miterlimit="8" fill="#4F08A9" fill-rule="evenodd"/><g clip-path="url(#clip1)"><g clip-path="url(#clip2)"><g clip-path="url(#clip3)"><path d="M12.5 17.3 12.5 18.625 11.5 18.625 11.5 17.3C10.925 17.1 10.5 16.55 10.5 15.875 10.5 15.05 11.175 14.375 12 14.375 12.825 14.375 13.5 15.05 13.5 15.875 13.5 16.525 13.075 17.075 12.5 17.3ZM8.25 8.125C8.25 6.05 9.925 4.375 12 4.375 14.075 4.375 15.75 6.05 15.75 8.125L15.75 10.9 12 10.625 8.25 10.9 8.25 8.125ZM17.25 11 17.25 8.125C17.25 5.225 14.9 2.875 12 2.875 9.1 2.875 6.75 5.225 6.75 8.125L6.75 11 5 11.125 5 20.625 12 21.125 19 20.625 19 11.125 17.25 11Z" stroke="#7030A0" stroke-width="0.249953" fill="#FFFFFF" transform="matrix(1.08333 0 0 1 909 336)"/></g></g></g></g></svg>