<svg width="107" height="92" xmlns="http://www.w3.org/2000/svg" xmlns:xlink="http://www.w3.org/1999/xlink" overflow="hidden"><defs><clipPath id="clip0"><rect x="560" y="277" width="107" height="92"/></clipPath></defs><g clip-path="url(#clip0)" transform="translate(-560 -277)"><path d="M607 291C607 283.82 612.596 278 619.5 278 626.404 278 632 283.82 632 291 632 298.18 626.404 304 619.5 304 612.596 304 607 298.18 607 291Z" stroke="#4F08A9" stroke-width="2" stroke-miterlimit="8" fill="none" fill-rule="evenodd"/><path d="M595.002 328.288C594.818 316.139 606.084 306.161 620.166 306.002 634.248 305.843 645.814 315.563 645.998 327.712 645.999 327.808 646 327.904 646 328" stroke="#4F08A9" stroke-width="2" stroke-miterlimit="8" fill="none" fill-rule="evenodd"/><path d="M573 311.5C573 304.596 578.82 299 586 299 593.18 299 599 304.596 599 311.5 599 318.404 593.18 324 586 324 578.82 324 573 318.404 573 311.5Z" stroke="#4F08A9" stroke-width="2" stroke-miterlimit="8" fill="none" fill-rule="evenodd"/><path d="M562.002 348.788C561.814 336.915 573.077 327.161 587.159 327.002 601.241 326.843 612.809 336.339 612.998 348.212 612.999 348.308 613 348.404 613 348.5" stroke="#4F08A9" stroke-width="2" stroke-miterlimit="8" fill="none" fill-rule="evenodd"/><path d="M610.576 322.543 618.471 330.069 582.964 367.32 575.069 359.794Z" stroke="#4F08A9" stroke-width="1.33333" stroke-miterlimit="8" fill="#4F08A9" fill-rule="evenodd"/><path d="M602.451 332.434 610.217 323.301 633.844 343.393 626.078 352.525Z" stroke="#4F08A9" stroke-width="1.33333" stroke-miterlimit="8" fill="#4F08A9" fill-rule="evenodd"/><path d="M643.367 318.312 651.212 325.79 625.435 352.833 617.59 345.355Z" stroke="#4F08A9" stroke-width="1.33333" stroke-miterlimit="8" fill="#7030A0" fill-rule="evenodd"/><path d="M635.028 317.954 664.823 302.795 652.184 333.743Z" stroke="#4F08A9" stroke-width="1.33333" stroke-miterlimit="8" fill="#4F08A9" fill-rule="evenodd"/></g></svg>