<svg width="108" height="88" xmlns="http://www.w3.org/2000/svg" xmlns:xlink="http://www.w3.org/1999/xlink" overflow="hidden"><defs><clipPath id="clip0"><rect x="534" y="454" width="108" height="88"/></clipPath><clipPath id="clip1"><rect x="565" y="454" width="75" height="83"/></clipPath><clipPath id="clip2"><rect x="565" y="454" width="75" height="83"/></clipPath><clipPath id="clip3"><rect x="565" y="454" width="75" height="83"/></clipPath></defs><g clip-path="url(#clip0)" transform="translate(-534 -454)"><path d="M581.5 474.5C581.5 477.814 578.814 480.5 575.5 480.5 572.186 480.5 569.5 477.814 569.5 474.5 569.5 471.186 572.186 468.5 575.5 468.5 578.814 468.5 581.5 471.186 581.5 474.5Z" stroke="#4F08A9" stroke-miterlimit="8" fill="none" fill-rule="evenodd"/><path d="M589.928 481.978C588.445 481.239 586.666 481.757 585.924 483.235L583.329 488.113 571.909 480.944C571.464 480.648 570.945 480.5 570.352 480.5L557.746 480.5C556.634 480.5 555.67 481.091 555.151 482.052L550.331 490.922C549.515 492.326 550.108 494.174 551.517 494.913 551.962 495.135 552.481 495.283 552.926 495.283 553.964 495.283 555.002 494.691 555.521 493.731L559.526 486.413 563.901 486.413 550.776 510.804 538.466 510.804C536.835 510.804 535.5 512.135 535.5 513.761 535.5 515.387 536.835 516.717 538.466 516.717L552.555 516.717C553.668 516.717 554.632 516.126 555.151 515.165L560.341 505.63 568.869 513.539 568.202 528.396C568.053 530.022 569.314 531.426 570.945 531.5 571.019 531.5 571.019 531.5 571.094 531.5 572.651 531.5 573.986 530.244 574.06 528.691L574.801 512.43C574.875 511.544 574.505 510.731 573.837 510.139L566.644 503.487 574.208 489.444 582.81 494.839C583.477 495.283 584.367 495.43 585.183 495.209 585.998 494.987 586.666 494.47 587.037 493.731L591.115 485.97C591.931 484.565 591.412 482.791 589.928 481.978Z" stroke="#4F08A9" stroke-miterlimit="8" fill="none" fill-rule="evenodd"/><g clip-path="url(#clip1)"><g clip-path="url(#clip2)"><g clip-path="url(#clip3)"><path d="M46.3281 29.1406C43.0469 29.1406 40.4688 26.4844 40.4688 23.2812 40.4688 20.0781 43.125 17.4219 46.3281 17.4219 49.6094 17.4219 52.1875 20.0781 52.1875 23.2812 52.1875 26.4844 49.5312 29.1406 46.3281 29.1406ZM59.5312 19.6094C59.2188 18.5156 58.8281 17.5 58.2812 16.5625L59.5312 12.8906 56.7188 10.0781 53.0469 11.3281C52.1094 10.7812 51.0938 10.3906 50 10.0781L48.2812 6.64062 44.375 6.64062 42.6562 10.0781C41.5625 10.3906 40.5469 10.7812 39.6094 11.3281L35.9375 10.0781 33.125 12.8906 34.375 16.5625C33.8281 17.5 33.4375 18.5156 33.125 19.6094L29.6875 21.3281 29.6875 25.2344 33.125 26.9531C33.4375 28.0469 33.8281 29.0625 34.375 30L33.125 33.6719 35.8594 36.4062 39.5312 35.1562C40.4688 35.7031 41.4844 36.0938 42.5781 36.4062L44.2969 39.8438 48.2031 39.8438 49.9219 36.4062C51.0156 36.0938 52.0312 35.7031 52.9688 35.1562L56.6406 36.4062 59.4531 33.6719 58.2031 30C58.75 29.0625 59.2188 27.9688 59.5312 26.9531L62.9688 25.2344 62.9688 21.3281 59.5312 19.6094Z" stroke="#4F08A9" stroke-width="1.4286" fill="none" transform="matrix(1 0 0 1.10667 565 454)"/><path d="M28.6719 57.5781C25.3906 57.5781 22.8125 54.9219 22.8125 51.7187 22.8125 48.4375 25.4687 45.8594 28.6719 45.8594 31.9531 45.8594 34.5312 48.5156 34.5312 51.7187 34.5312 54.9219 31.9531 57.5781 28.6719 57.5781L28.6719 57.5781ZM40.625 45 41.875 41.3281 39.0625 38.5156 35.3906 39.7656C34.4531 39.2188 33.3594 38.8281 32.3438 38.5156L30.625 35.0781 26.7188 35.0781 25 38.5156C23.9062 38.8281 22.8906 39.2188 21.9531 39.7656L18.2812 38.5156 15.5469 41.25 16.7188 44.9219C16.1719 45.8594 15.7813 46.9531 15.4687 47.9688L12.0312 49.6875 12.0312 53.5938 15.4687 55.3125C15.7813 56.4062 16.1719 57.4219 16.7188 58.3594L15.5469 62.0312 18.2812 64.7656 21.9531 63.5938C22.8906 64.1406 23.9062 64.5312 25 64.8438L26.7188 68.2812 30.625 68.2812 32.3438 64.8438C33.4375 64.5312 34.4531 64.1406 35.3906 63.5938L39.0625 64.8438 41.7969 62.0312 40.625 58.4375C41.1719 57.5 41.5625 56.4844 41.875 55.3906L45.3125 53.6719 45.3125 49.7656 41.875 48.0469C41.5625 46.9531 41.1719 45.9375 40.625 45Z" stroke="#4F08A9" stroke-width="1.4286" fill="none" transform="matrix(1 0 0 1.10667 565 454)"/></g></g></g><path d="M608 524.5 616.25 524.5 616.25 500 632.75 500 632.75 524.5 641 524.5 624.5 541Z" fill="#4F08A9" fill-rule="evenodd"/></g></svg>