<svg width="91" height="94" xmlns="http://www.w3.org/2000/svg" xmlns:xlink="http://www.w3.org/1999/xlink" overflow="hidden"><defs><clipPath id="clip0"><rect x="623" y="483" width="91" height="94"/></clipPath><clipPath id="clip1"><rect x="657" y="487" width="49" height="50"/></clipPath><clipPath id="clip2"><rect x="657" y="487" width="49" height="50"/></clipPath><clipPath id="clip3"><rect x="657" y="487" width="49" height="50"/></clipPath><clipPath id="clip4"><rect x="664" y="530" width="32" height="33"/></clipPath><clipPath id="clip5"><rect x="664" y="530" width="32" height="33"/></clipPath><clipPath id="clip6"><rect x="664" y="530" width="32" height="33"/></clipPath><clipPath id="clip7"><rect x="629" y="505" width="52" height="52"/></clipPath><clipPath id="clip8"><rect x="629" y="505" width="52" height="52"/></clipPath><clipPath id="clip9"><rect x="629" y="505" width="52" height="52"/></clipPath></defs><g clip-path="url(#clip0)" transform="translate(-623 -483)"><g clip-path="url(#clip1)"><g clip-path="url(#clip2)"><g clip-path="url(#clip3)"><path d="M24.5 12.7604C18.0177 12.7604 12.1479 15.4146 7.91146 19.651L10.8208 22.5604C14.2917 19.0385 19.1406 16.8438 24.5 16.8438 29.8594 16.8438 34.7083 19.0385 38.2302 22.5094L41.1396 19.6C36.801 15.4146 30.9823 12.7604 24.5 12.7604Z" fill="#FFFFFF" transform="matrix(1 0 0 1.02041 657 487)"/><path d="M12.25 23.9896 15.1594 26.899C17.4563 24.449 20.825 22.9688 24.5 22.9688 28.175 22.9688 31.4927 24.449 33.8917 26.8479L36.75 23.9896C33.5854 20.825 29.2469 18.8854 24.5 18.8854 19.7531 18.8854 15.3635 20.825 12.25 23.9896Z" fill="#FFFFFF" transform="matrix(1 0 0 1.02041 657 487)"/><path d="M16.5885 28.3281 19.4979 31.2375C20.774 29.9615 22.5604 29.1448 24.551 29.1448 26.5417 29.1448 28.3281 29.9615 29.6042 31.2375L32.5135 28.3281C30.4719 26.2865 27.6646 25.0104 24.6021 25.0104 21.5396 25.0104 18.5792 26.2865 16.5885 28.3281Z" fill="#FFFFFF" transform="matrix(1 0 0 1.02041 657 487)"/><path d="M20.876 32.6156 24.5 36.2396 28.124 32.6156C27.1542 31.6969 25.9292 31.1354 24.5 31.1354 23.0708 31.1354 21.7948 31.6969 20.876 32.6156Z" fill="#FFFFFF" transform="matrix(1 0 0 1.02041 657 487)"/></g></g></g><g clip-path="url(#clip4)"><g clip-path="url(#clip5)"><g clip-path="url(#clip6)"><path d="M10.6667 16.6667 15.3333 16.6667 15.3333 27.3333 10.6667 27.3333Z" fill="#FFFFFF" transform="matrix(1 0 0 1.03125 664 530)"/><path d="M16.6667 10.6667 21.3333 10.6667 21.3333 27.3333 16.6667 27.3333Z" fill="#FFFFFF" transform="matrix(1 0 0 1.03125 664 530)"/><path d="M22.6667 4.66667 27.3333 4.66667 27.3333 27.3333 22.6667 27.3333Z" fill="#FFFFFF" transform="matrix(1 0 0 1.03125 664 530)"/><path d="M4.66667 22.6667 9.33333 22.6667 9.33333 27.3333 4.66667 27.3333Z" fill="#FFFFFF" transform="matrix(1 0 0 1.03125 664 530)"/></g></g></g><g clip-path="url(#clip7)"><g clip-path="url(#clip8)"><g clip-path="url(#clip9)"><path d="M636.583 526.667 644.167 526.667 644.167 534.25 636.583 534.25Z" fill="#FFFFFF"/><path d="M665.833 526.667 673.417 526.667 673.417 534.25 665.833 534.25Z" fill="#FFFFFF"/><path d="M636.583 512.042 644.167 512.042 644.167 519.625 636.583 519.625Z" fill="#FFFFFF"/><path d="M636.583 541.292 644.167 541.292 644.167 548.875 636.583 548.875Z" fill="#FFFFFF"/><path d="M656.083 514.75 646.333 514.75 646.333 516.917 653.917 516.917 653.917 529.375 646.333 529.375 646.333 531.542 653.917 531.542 653.917 544 646.333 544 646.333 546.167 656.083 546.167 656.083 531.542 663.667 531.542 663.667 529.375 656.083 529.375 656.083 514.75Z" fill="#FFFFFF"/></g></g></g><path d="M624.5 530.5C624.5 505.095 644.423 484.5 669 484.5 693.577 484.5 713.5 505.095 713.5 530.5 713.5 555.905 693.577 576.5 669 576.5 644.423 576.5 624.5 555.905 624.5 530.5Z" stroke="#FFFFFF" stroke-width="0.333333" stroke-miterlimit="8" fill="none" fill-rule="evenodd"/></g></svg>