<svg width="59" height="60" xmlns="http://www.w3.org/2000/svg" xmlns:xlink="http://www.w3.org/1999/xlink" overflow="hidden"><defs><clipPath id="clip0"><rect x="652" y="288" width="59" height="60"/></clipPath><clipPath id="clip1"><rect x="665" y="325" width="16" height="15"/></clipPath><clipPath id="clip2"><rect x="665" y="325" width="16" height="15"/></clipPath><clipPath id="clip3"><rect x="665" y="325" width="16" height="15"/></clipPath></defs><g clip-path="url(#clip0)" transform="translate(-652 -288)"><path d="M678.862 298.55 679 326 653 326 653 291.252C661.667 291.252 669.636 291 669.636 291" stroke="#FFFFFF" stroke-width="2" stroke-miterlimit="8" fill="none" fill-rule="evenodd"/><path d="M679.293 298.419 669.498 300.485 669.576 290.475Z" stroke="#FFFFFF" stroke-width="2" stroke-miterlimit="8" fill="none" fill-rule="evenodd"/><path d="M657 304 673.901 304" stroke="#FFFFFF" stroke-width="2" stroke-miterlimit="8" fill="none" fill-rule="evenodd"/><path d="M657 309 673.901 309" stroke="#FFFFFF" stroke-width="2" stroke-miterlimit="8" fill="none" fill-rule="evenodd"/><path d="M658 314 674.901 314" stroke="#FFFFFF" stroke-width="2" stroke-miterlimit="8" fill="none" fill-rule="evenodd"/><path d="M658 319 674.901 319" stroke="#FFFFFF" stroke-width="2" stroke-miterlimit="8" fill="none" fill-rule="evenodd"/><path d="M707.862 316.55 708 344 682 344 682 309.252C690.667 309.252 698.636 309 698.636 309" stroke="#FFFFFF" stroke-width="2" stroke-miterlimit="8" fill="none" fill-rule="evenodd"/><path d="M707.949 316.521 698.154 318.586 698.232 308.576Z" stroke="#FFFFFF" stroke-width="2" stroke-miterlimit="8" fill="none" fill-rule="evenodd"/><path d="M686 323 702.901 323" stroke="#FFFFFF" stroke-width="2" stroke-miterlimit="8" fill="none" fill-rule="evenodd"/><path d="M686 327 702.901 327" stroke="#FFFFFF" stroke-width="2" stroke-miterlimit="8" fill="none" fill-rule="evenodd"/><path d="M686 332 702.901 332" stroke="#FFFFFF" stroke-width="2" stroke-miterlimit="8" fill="none" fill-rule="evenodd"/><path d="M686 338 702.901 338" stroke="#FFFFFF" stroke-width="2" stroke-miterlimit="8" fill="none" fill-rule="evenodd"/><path d="M672.508 320.19C672.508 320.19 663.435 323.832 662.463 324.228 661.491 324.623 661.005 325.573 661.005 326.523 661.005 327.473 660.276 339.87 672.508 345.863 672.508 345.863 673.618 346.163 674.461 345.863 675.303 345.563 685.996 340.496 685.996 326.484 685.996 326.484 685.996 325.059 684.295 324.267 682.594 323.475 674.369 320.19 674.369 320.19 674.369 320.19 673.359 319.755 672.508 320.19Z" stroke="#FFFFFF" stroke-width="2" stroke-miterlimit="8" fill="#FFFFFF" fill-rule="evenodd"/><g clip-path="url(#clip1)"><g clip-path="url(#clip2)"><g clip-path="url(#clip3)"><path d="M7.8125 10.8125 7.8125 11.6406 7.1875 11.6406 7.1875 10.8125C6.82812 10.6875 6.5625 10.3438 6.5625 9.92188 6.5625 9.40625 6.98438 8.98438 7.5 8.98438 8.01562 8.98438 8.4375 9.40625 8.4375 9.92188 8.4375 10.3281 8.17188 10.6719 7.8125 10.8125ZM5.15625 5.07812C5.15625 3.78125 6.20312 2.73438 7.5 2.73438 8.79688 2.73438 9.84375 3.78125 9.84375 5.07812L9.84375 6.8125 7.5 6.64062 5.15625 6.8125 5.15625 5.07812ZM10.7812 6.875 10.7812 5.07812C10.7812 3.26562 9.3125 1.79688 7.5 1.79688 5.6875 1.79688 4.21875 3.26562 4.21875 5.07812L4.21875 6.875 3.125 6.95312 3.125 12.8906 7.5 13.2031 11.875 12.8906 11.875 6.95312 10.7812 6.875Z" stroke="#7030A0" stroke-width="0.15622" fill="#4F08A9" transform="matrix(1.06667 0 0 1 665 325)"/></g></g></g></g></svg>