<svg width="94" height="94" xmlns="http://www.w3.org/2000/svg" xmlns:xlink="http://www.w3.org/1999/xlink" overflow="hidden"><defs><clipPath id="clip0"><rect x="1014" y="479" width="94" height="94"/></clipPath><clipPath id="clip1"><rect x="1015" y="480" width="92" height="92"/></clipPath><clipPath id="clip2"><rect x="1015" y="480" width="92" height="92"/></clipPath><clipPath id="clip3"><rect x="1015" y="480" width="92" height="92"/></clipPath><clipPath id="clip4"><rect x="1020" y="538" width="24" height="22"/></clipPath><clipPath id="clip5"><rect x="1020" y="538" width="24" height="22"/></clipPath><clipPath id="clip6"><rect x="1020" y="538" width="24" height="22"/></clipPath></defs><g clip-path="url(#clip0)" transform="translate(-1014 -479)"><g clip-path="url(#clip1)"><g clip-path="url(#clip2)"><g clip-path="url(#clip3)"><path d="M1087.83 497.25C1087.83 501.484 1075.82 504.917 1061 504.917 1046.18 504.917 1034.17 501.484 1034.17 497.25 1034.17 493.016 1046.18 489.583 1061 489.583 1075.82 489.583 1087.83 493.016 1087.83 497.25Z" stroke="#FFFFFF" stroke-width="1.58625" fill="none"/><path d="M1080.17 516.417C1079.02 516.417 1078.25 515.65 1078.25 514.5 1078.25 513.35 1079.02 512.583 1080.17 512.583 1081.32 512.583 1082.08 513.35 1082.08 514.5 1082.08 515.65 1081.32 516.417 1080.17 516.417ZM1061 508.75C1046.24 508.75 1034.17 505.3 1034.17 501.083L1034.17 516.417C1034.17 520.633 1046.24 524.083 1061 524.083 1075.76 524.083 1087.83 520.633 1087.83 516.417L1087.83 501.083C1087.83 505.3 1075.76 508.75 1061 508.75Z" stroke="#FFFFFF" stroke-width="1.58625" fill="none"/><path d="M1080.17 535.583C1079.02 535.583 1078.25 534.817 1078.25 533.667 1078.25 532.517 1079.02 531.75 1080.17 531.75 1081.32 531.75 1082.08 532.517 1082.08 533.667 1082.08 534.817 1081.32 535.583 1080.17 535.583ZM1061 527.917C1046.24 527.917 1034.17 524.467 1034.17 520.25L1034.17 535.583C1034.17 539.8 1046.24 543.25 1061 543.25 1075.76 543.25 1087.83 539.8 1087.83 535.583L1087.83 520.25C1087.83 524.467 1075.76 527.917 1061 527.917Z" stroke="#FFFFFF" stroke-width="1.58625" fill="none"/><path d="M1080.17 554.75C1079.02 554.75 1078.25 553.983 1078.25 552.833 1078.25 551.683 1079.02 550.917 1080.17 550.917 1081.32 550.917 1082.08 551.683 1082.08 552.833 1082.08 553.983 1081.32 554.75 1080.17 554.75ZM1061 547.083C1046.24 547.083 1034.17 543.633 1034.17 539.417L1034.17 554.75C1034.17 558.967 1046.24 562.417 1061 562.417 1075.76 562.417 1087.83 558.967 1087.83 554.75L1087.83 539.417C1087.83 543.633 1075.76 547.083 1061 547.083Z" stroke="#FFFFFF" stroke-width="1.58625" fill="none"/></g></g></g><path d="M1031.49 530.292C1031.49 530.292 1017.7 535.895 1016.22 536.504 1014.75 537.113 1014.01 538.574 1014.01 540.036 1014.01 541.497 1012.9 560.569 1031.49 569.789 1031.49 569.789 1033.18 570.251 1034.46 569.789 1035.74 569.328 1051.99 561.533 1051.99 539.975 1051.99 539.975 1051.99 537.783 1049.41 536.565 1046.82 535.347 1034.32 530.292 1034.32 530.292 1034.32 530.292 1032.79 529.622 1031.49 530.292Z" fill="#FFFFFF" fill-rule="evenodd"/><g clip-path="url(#clip4)"><g clip-path="url(#clip5)"><g clip-path="url(#clip6)"><path d="M11.4583 15.8583 11.4583 17.0729 10.5417 17.0729 10.5417 15.8583C10.0146 15.675 9.625 15.1708 9.625 14.5521 9.625 13.7958 10.2438 13.1771 11 13.1771 11.7563 13.1771 12.375 13.7958 12.375 14.5521 12.375 15.1479 11.9854 15.6521 11.4583 15.8583ZM7.5625 7.44792C7.5625 5.54583 9.09792 4.01042 11 4.01042 12.9021 4.01042 14.4375 5.54583 14.4375 7.44792L14.4375 9.99167 11 9.73958 7.5625 9.99167 7.5625 7.44792ZM15.8125 10.0833 15.8125 7.44792C15.8125 4.78958 13.6583 2.63542 11 2.63542 8.34167 2.63542 6.1875 4.78958 6.1875 7.44792L6.1875 10.0833 4.58333 10.1979 4.58333 18.9062 11 19.3646 17.4167 18.9062 17.4167 10.1979 15.8125 10.0833Z" fill="#4F08A9" transform="matrix(1.09091 0 0 1 1020 538)"/></g></g></g></g></svg>