<svg width="67" height="56" xmlns="http://www.w3.org/2000/svg" xmlns:xlink="http://www.w3.org/1999/xlink" overflow="hidden"><defs><clipPath id="clip0"><rect x="1099" y="496" width="67" height="56"/></clipPath></defs><g clip-path="url(#clip0)" transform="translate(-1099 -496)"><path d="M1106 525.5C1106 522.462 1108.69 520 1112 520 1115.31 520 1118 522.462 1118 525.5 1118 528.538 1115.31 531 1112 531 1108.69 531 1106 528.538 1106 525.5Z" stroke="#FFFFFF" stroke-width="2" stroke-miterlimit="8" fill="none" fill-rule="evenodd"/><path d="M1101 542.63C1100.91 537.384 1105.99 533.073 1112.34 533.001 1118.69 532.929 1123.91 537.124 1124 542.37 1124 542.413 1124 542.457 1124 542.5" stroke="#FFFFFF" stroke-width="2" stroke-miterlimit="8" fill="none" fill-rule="evenodd"/><path d="M1123 534C1123 530.686 1125.69 528 1129 528 1132.31 528 1135 530.686 1135 534 1135 537.314 1132.31 540 1129 540 1125.69 540 1123 537.314 1123 534Z" stroke="#FFFFFF" stroke-width="2" stroke-miterlimit="8" fill="none" fill-rule="evenodd"/><path d="M1118 550.63C1117.91 545.384 1122.99 541.073 1129.34 541.001 1135.69 540.929 1140.91 545.124 1141 550.37 1141 550.413 1141 550.457 1141 550.5" stroke="#FFFFFF" stroke-width="2" stroke-miterlimit="8" fill="none" fill-rule="evenodd"/><path d="M1163 498 1127 498C1125.9 498 1125 498.847 1125 499.882L1125 522.471C1125 523.506 1125.9 524.353 1127 524.353L1141 524.353 1141 527.176 1136 527.176 1136 530 1154 530 1154 527.176 1149 527.176 1149 524.353 1163 524.353C1164.1 524.353 1165 523.506 1165 522.471L1165 499.882C1165 498.847 1164.1 498 1163 498Z" stroke="#FFFFFF" stroke-width="2" stroke-miterlimit="8" fill="none" fill-rule="evenodd"/></g></svg>