<svg width="52" height="80" xmlns="http://www.w3.org/2000/svg" xmlns:xlink="http://www.w3.org/1999/xlink" overflow="hidden"><defs><clipPath id="clip0"><rect x="125" y="515" width="52" height="80"/></clipPath><clipPath id="clip1"><rect x="126" y="543" width="51" height="51"/></clipPath><clipPath id="clip2"><rect x="126" y="543" width="51" height="51"/></clipPath><clipPath id="clip3"><rect x="126" y="543" width="51" height="51"/></clipPath></defs><g clip-path="url(#clip0)" transform="translate(-125 -515)"><path d="M169.85 516 131.15 516C129.967 516 129 516.926 129 518.059L129 542.765C129 543.897 129.967 544.824 131.15 544.824L146.2 544.824 146.2 547.912 140.825 547.912 140.825 551 160.175 551 160.175 547.912 154.8 547.912 154.8 544.824 169.85 544.824C171.033 544.824 172 543.897 172 542.765L172 518.059C172 516.926 171.033 516 169.85 516Z" stroke="#FFFFFF" stroke-width="2" stroke-miterlimit="8" fill="none" fill-rule="evenodd"/><g clip-path="url(#clip1)"><g clip-path="url(#clip2)"><g clip-path="url(#clip3)"><path d="M163.65 558.157C158.512 558.157 154.757 561.806 151.5 565.562 148.243 561.806 144.488 558.157 139.35 558.157 133.638 558.157 129.007 562.787 129.007 568.5 129.007 574.213 133.638 578.843 139.35 578.843 144.472 578.843 148.1 575.295 151.5 571.363 154.868 575.268 158.512 578.843 163.65 578.843 169.362 578.843 173.993 574.213 173.993 568.5 173.993 562.787 169.362 558.157 163.65 558.157ZM148.312 568.585C144.992 572.389 142.469 574.593 139.35 574.593 135.985 574.593 133.257 571.865 133.257 568.5 133.257 565.135 135.985 562.407 139.35 562.407 142.495 562.407 145.194 564.781 148.291 568.346L148.387 568.463ZM163.65 574.593C160.526 574.593 157.917 572.293 154.719 568.585L154.613 568.463 154.709 568.346C157.801 564.781 160.531 562.407 163.65 562.407 167.015 562.407 169.743 565.135 169.743 568.5 169.743 571.865 167.015 574.593 163.65 574.593Z" fill="#FFFFFF"/></g></g></g></g></svg>