<svg width="68" height="67" xmlns="http://www.w3.org/2000/svg" xmlns:xlink="http://www.w3.org/1999/xlink" overflow="hidden"><defs><clipPath id="clip0"><rect x="372" y="280" width="68" height="67"/></clipPath><clipPath id="clip1"><rect x="378" y="317" width="20" height="19"/></clipPath><clipPath id="clip2"><rect x="378" y="317" width="20" height="19"/></clipPath><clipPath id="clip3"><rect x="378" y="317" width="20" height="19"/></clipPath></defs><g clip-path="url(#clip0)" transform="translate(-372 -280)"><path d="M428.57 320.62C433.852 320.484 438.155 316.126 438.481 310.611 438.807 305.095 434.96 300.261 429.744 299.443 429.222 296.107 427.462 293.111 424.854 291.136 422.18 289.161 418.79 288.412 415.53 289.093 412.335 283.986 406.402 281.467 400.729 282.897 395.187 284.395 391.014 289.23 390.167 295.154 386.515 295.29 383.06 297.128 380.843 300.192 378.235 304.006 377.778 308.977 379.604 313.266 381.495 317.488 385.407 320.28 392.716 323.5" stroke="#FFFFFF" stroke-width="3" stroke-miterlimit="8" fill="none" fill-rule="evenodd"/><path d="M422.768 312 412.232 312 412.232 328 404 328 417.5 344 431 328 422.768 328Z" stroke="#FFFFFF" stroke-width="2" stroke-miterlimit="8" fill="none" fill-rule="evenodd"/><path d="M387.27 310.249C387.27 310.249 376.019 315.011 374.814 315.528 373.608 316.046 373.006 317.288 373.006 318.531 373.006 319.773 372.102 335.983 387.27 343.821 387.27 343.821 388.647 344.214 389.691 343.821 390.736 343.428 403.995 336.803 403.995 318.479 403.995 318.479 403.995 316.615 401.886 315.58 399.776 314.545 389.577 310.249 389.577 310.249 389.577 310.249 388.325 309.679 387.27 310.249Z" stroke="#FFFFFF" stroke-width="2" stroke-miterlimit="8" fill="#FFFFFF" fill-rule="evenodd"/><g clip-path="url(#clip1)"><g clip-path="url(#clip2)"><g clip-path="url(#clip3)"><path d="M9.89583 13.6958 9.89583 14.7448 9.10417 14.7448 9.10417 13.6958C8.64896 13.5375 8.3125 13.1021 8.3125 12.5677 8.3125 11.9146 8.84688 11.3802 9.5 11.3802 10.1531 11.3802 10.6875 11.9146 10.6875 12.5677 10.6875 13.0823 10.351 13.5177 9.89583 13.6958ZM6.53125 6.43229C6.53125 4.78958 7.85729 3.46354 9.5 3.46354 11.1427 3.46354 12.4688 4.78958 12.4688 6.43229L12.4688 8.62917 9.5 8.41146 6.53125 8.62917 6.53125 6.43229ZM13.6562 8.70833 13.6562 6.43229C13.6562 4.13646 11.7958 2.27604 9.5 2.27604 7.20417 2.27604 5.34375 4.13646 5.34375 6.43229L5.34375 8.70833 3.95833 8.80729 3.95833 16.3281 9.5 16.724 15.0417 16.3281 15.0417 8.80729 13.6562 8.70833Z" stroke="#7030A0" stroke-width="0.197879" fill="#4F08A9" transform="matrix(1.05263 0 0 1 378 317)"/></g></g></g></g></svg>