<svg width="70" height="70" xmlns="http://www.w3.org/2000/svg" xmlns:xlink="http://www.w3.org/1999/xlink" overflow="hidden"><defs><clipPath id="clip0"><rect x="129" y="280" width="70" height="70"/></clipPath><clipPath id="clip1"><rect x="141" y="281" width="57" height="57"/></clipPath><clipPath id="clip2"><rect x="141" y="281" width="57" height="57"/></clipPath><clipPath id="clip3"><rect x="141" y="281" width="57" height="57"/></clipPath><clipPath id="clip4"><rect x="136" y="321" width="20" height="19"/></clipPath><clipPath id="clip5"><rect x="136" y="321" width="20" height="19"/></clipPath><clipPath id="clip6"><rect x="136" y="321" width="20" height="19"/></clipPath></defs><g clip-path="url(#clip0)" transform="translate(-129 -280)"><g clip-path="url(#clip1)"><g clip-path="url(#clip2)"><g clip-path="url(#clip3)"><path d="M164.75 329.688 164.75 321.375 173.062 321.375 173.062 329.688Z" fill="#FFFFFF"/><path d="M164.75 297.625 164.75 289.312 173.062 289.312 173.062 297.625Z" fill="#FFFFFF"/><path d="M148.719 329.688 148.719 321.375 157.031 321.375 157.031 329.688Z" fill="#FFFFFF"/><path d="M180.781 329.688 180.781 321.375 189.094 321.375 189.094 329.688Z" fill="#FFFFFF"/><path d="M151.688 308.312 151.688 319 154.062 319 154.062 310.688 167.719 310.688 167.719 319 170.094 319 170.094 310.688 183.75 310.688 183.75 319 186.125 319 186.125 308.312 170.094 308.312 170.094 300 167.719 300 167.719 308.312 151.688 308.312Z" fill="#FFFFFF"/></g></g></g><path d="M145.27 315.241C145.27 315.241 134.019 319.863 132.814 320.366 131.608 320.868 131.006 322.074 131.006 323.28 131.006 324.485 130.102 340.219 145.27 347.826 145.27 347.826 146.647 348.207 147.691 347.826 148.736 347.445 161.995 341.015 161.995 323.229 161.995 323.229 161.995 321.421 159.886 320.416 157.776 319.411 147.577 315.241 147.577 315.241 147.577 315.241 146.325 314.689 145.27 315.241Z" stroke="#FFFFFF" stroke-width="2" stroke-miterlimit="8" fill="#FFFFFF" fill-rule="evenodd"/><g clip-path="url(#clip4)"><g clip-path="url(#clip5)"><g clip-path="url(#clip6)"><path d="M9.89583 13.6958 9.89583 14.7448 9.10417 14.7448 9.10417 13.6958C8.64896 13.5375 8.3125 13.1021 8.3125 12.5677 8.3125 11.9146 8.84688 11.3802 9.5 11.3802 10.1531 11.3802 10.6875 11.9146 10.6875 12.5677 10.6875 13.0823 10.351 13.5177 9.89583 13.6958ZM6.53125 6.43229C6.53125 4.78958 7.85729 3.46354 9.5 3.46354 11.1427 3.46354 12.4688 4.78958 12.4688 6.43229L12.4688 8.62917 9.5 8.41146 6.53125 8.62917 6.53125 6.43229ZM13.6562 8.70833 13.6562 6.43229C13.6562 4.13646 11.7958 2.27604 9.5 2.27604 7.20417 2.27604 5.34375 4.13646 5.34375 6.43229L5.34375 8.70833 3.95833 8.80729 3.95833 16.3281 9.5 16.724 15.0417 16.3281 15.0417 8.80729 13.6562 8.70833Z" stroke="#7030A0" stroke-width="0.197879" fill="#4F08A9" transform="matrix(1.05263 0 0 1 136 321)"/></g></g></g><path d="M136 284 194.034 347.021" stroke="#FFFFFF" stroke-width="4" stroke-miterlimit="8" fill="none" fill-rule="evenodd"/></g></svg>