<svg width="82" height="84" xmlns="http://www.w3.org/2000/svg" xmlns:xlink="http://www.w3.org/1999/xlink" overflow="hidden"><defs><clipPath id="clip0"><rect x="132" y="483" width="82" height="84"/></clipPath><clipPath id="clip1"><rect x="140" y="535" width="23" height="24"/></clipPath><clipPath id="clip2"><rect x="140" y="535" width="23" height="24"/></clipPath><clipPath id="clip3"><rect x="140" y="535" width="23" height="24"/></clipPath></defs><g clip-path="url(#clip0)" transform="translate(-132 -483)"><path d="M210.699 502.825 211 564 154 564 154 486.563C173 486.563 190.471 486 190.471 486" stroke="#FFFFFF" stroke-width="2" stroke-miterlimit="8" fill="none" fill-rule="evenodd"/><path d="M211.226 503.461 189.558 508.031 189.73 485.887Z" stroke="#FFFFFF" stroke-width="2" stroke-miterlimit="8" fill="none" fill-rule="evenodd"/><path d="M162 517 199.388 517" stroke="#FFFFFF" stroke-width="2" stroke-miterlimit="8" fill="none" fill-rule="evenodd"/><path d="M163 527 200.388 527" stroke="#FFFFFF" stroke-width="2" stroke-miterlimit="8" fill="none" fill-rule="evenodd"/><path d="M164 539 201.388 539" stroke="#FFFFFF" stroke-width="2" stroke-miterlimit="8" fill="none" fill-rule="evenodd"/><path d="M164 550 201.388 550" stroke="#FFFFFF" stroke-width="2" stroke-miterlimit="8" fill="none" fill-rule="evenodd"/><path d="M134 547C134 537.059 142.283 529 152.5 529 162.717 529 171 537.059 171 547 171 556.941 162.717 565 152.5 565 142.283 565 134 556.941 134 547Z" stroke="#FFFFFF" stroke-width="2" stroke-miterlimit="8" fill="#FFFFFF" fill-rule="evenodd"/><g clip-path="url(#clip1)"><g clip-path="url(#clip2)"><g clip-path="url(#clip3)"><path d="M20.6281 3.78542 8.36146 15.3812 2.46771 9.34375 0.43125 11.2844 8.26562 19.3344 10.326 17.4177 22.5687 5.79792Z" stroke="#4F08A9" stroke-width="0.239583" fill="#4F08A9" transform="matrix(1 0 0 1.04348 140 535)"/></g></g></g></g></svg>