<svg width="85" height="77" xmlns="http://www.w3.org/2000/svg" xmlns:xlink="http://www.w3.org/1999/xlink" overflow="hidden"><defs><clipPath id="clip0"><rect x="136" y="263" width="85" height="77"/></clipPath><clipPath id="clip1"><rect x="137" y="263" width="71" height="71"/></clipPath><clipPath id="clip2"><rect x="137" y="263" width="71" height="71"/></clipPath><clipPath id="clip3"><rect x="137" y="263" width="71" height="71"/></clipPath></defs><g clip-path="url(#clip0)" transform="translate(-136 -263)"><g clip-path="url(#clip1)"><g clip-path="url(#clip2)"><g clip-path="url(#clip3)"><path d="M183.542 299.979C181.042 297.849 177.795 296.851 174.719 295.889L174.719 278.006C177.706 278.29 180.497 279.618 182.603 281.756L186.153 278.354C183.115 275.263 179.044 273.401 174.719 273.125L174.719 266.698 170.281 266.698 170.281 273.406C168.762 273.702 167.296 274.225 165.932 274.959 160.326 278.014 157.464 285.188 159.764 291.23 161.547 295.889 165.844 297.967 170.281 299.528L170.281 318.89C166.842 318.469 163.987 316.494 161.621 314.031L158.071 317.426C159.761 319.344 161.776 320.949 164.024 322.167 165.989 323.101 168.111 323.661 170.281 323.816L170.281 330.302 174.719 330.302 174.719 323.646C179.807 322.795 184.481 319.667 186.493 314.771 188.505 309.875 187.772 303.596 183.542 299.979ZM166.583 292.384C162.516 288.952 163.507 282.311 167.818 279.559 168.583 279.069 169.412 278.688 170.281 278.428L170.281 294.469C168.942 293.982 167.693 293.278 166.583 292.384ZM179.962 315.917C178.519 317.328 176.698 318.292 174.719 318.691L174.719 301.022C177.677 302.035 181.072 303.322 182.277 306.473 183.483 309.623 182.27 313.565 179.962 315.917Z" fill="#4F08A9"/></g></g></g><path d="M188 322.5 196.25 322.5 196.25 298 212.75 298 212.75 322.5 221 322.5 204.5 339Z" fill="#4F08A9" fill-rule="evenodd"/></g></svg>