<svg width="86" height="76" xmlns="http://www.w3.org/2000/svg" xmlns:xlink="http://www.w3.org/1999/xlink" overflow="hidden"><defs><clipPath id="clip0"><rect x="1015" y="261" width="86" height="76"/></clipPath><clipPath id="clip1"><rect x="1023" y="301" width="25" height="24"/></clipPath><clipPath id="clip2"><rect x="1023" y="301" width="25" height="24"/></clipPath><clipPath id="clip3"><rect x="1023" y="301" width="25" height="24"/></clipPath></defs><g clip-path="url(#clip0)" transform="translate(-1015 -261)"><path d="M1095.76 262 1044.24 262C1042.45 262 1041 263.503 1041 265.356L1041 273.644C1041 275.497 1042.45 277 1044.24 277L1095.76 277C1097.55 277 1099 275.497 1099 273.644L1099 265.356C1099 263.503 1097.55 262 1095.76 262ZM1050.06 271.375C1049.06 271.375 1048.25 270.536 1048.25 269.5 1048.25 268.464 1049.06 267.625 1050.06 267.625 1051.06 267.625 1051.88 268.464 1051.88 269.5 1051.88 270.536 1051.06 271.375 1050.06 271.375ZM1059.12 271.375C1058.12 271.375 1057.31 270.536 1057.31 269.5 1057.31 268.464 1058.12 267.625 1059.12 267.625 1060.13 267.625 1060.94 268.464 1060.94 269.5 1060.94 270.536 1060.13 271.375 1059.12 271.375ZM1068.19 271.375C1067.19 271.375 1066.38 270.536 1066.38 269.5 1066.38 268.464 1067.19 267.625 1068.19 267.625 1069.19 267.625 1070 268.464 1070 269.5 1070 270.536 1069.19 271.375 1068.19 271.375Z" stroke="#FFFFFF" stroke-width="2" stroke-miterlimit="8" fill="none" fill-rule="evenodd"/><path d="M1095.76 282 1044.24 282C1042.45 282 1041 283.503 1041 285.356L1041 293.644C1041 295.497 1042.45 297 1044.24 297L1095.76 297C1097.55 297 1099 295.497 1099 293.644L1099 285.356C1099 283.503 1097.55 282 1095.76 282ZM1050.06 291.375C1049.06 291.375 1048.25 290.536 1048.25 289.5 1048.25 288.464 1049.06 287.625 1050.06 287.625 1051.06 287.625 1051.88 288.464 1051.88 289.5 1051.88 290.536 1051.06 291.375 1050.06 291.375ZM1059.12 291.375C1058.12 291.375 1057.31 290.536 1057.31 289.5 1057.31 288.464 1058.12 287.625 1059.12 287.625 1060.13 287.625 1060.94 288.464 1060.94 289.5 1060.94 290.536 1060.13 291.375 1059.12 291.375ZM1068.19 291.375C1067.19 291.375 1066.38 290.536 1066.38 289.5 1066.38 288.464 1067.19 287.625 1068.19 287.625 1069.19 287.625 1070 288.464 1070 289.5 1070 290.536 1069.19 291.375 1068.19 291.375Z" stroke="#FFFFFF" stroke-width="2" stroke-miterlimit="8" fill="none" fill-rule="evenodd"/><path d="M1095.76 303 1044.24 303C1042.45 303 1041 304.503 1041 306.356L1041 314.644C1041 316.497 1042.45 318 1044.24 318L1095.76 318C1097.55 318 1099 316.497 1099 314.644L1099 306.356C1099 304.503 1097.55 303 1095.76 303ZM1050.06 312.375C1049.06 312.375 1048.25 311.536 1048.25 310.5 1048.25 309.464 1049.06 308.625 1050.06 308.625 1051.06 308.625 1051.88 309.464 1051.88 310.5 1051.88 311.536 1051.06 312.375 1050.06 312.375ZM1059.12 312.375C1058.12 312.375 1057.31 311.536 1057.31 310.5 1057.31 309.464 1058.12 308.625 1059.12 308.625 1060.13 308.625 1060.94 309.464 1060.94 310.5 1060.94 311.536 1060.13 312.375 1059.12 312.375ZM1068.19 312.375C1067.19 312.375 1066.38 311.536 1066.38 310.5 1066.38 309.464 1067.19 308.625 1068.19 308.625 1069.19 308.625 1070 309.464 1070 310.5 1070 311.536 1069.19 312.375 1068.19 312.375Z" stroke="#FFFFFF" stroke-width="2" stroke-miterlimit="8" fill="none" fill-rule="evenodd"/><rect x="1068.5" y="318.5" width="5" height="10" stroke="#FFFFFF" stroke-width="1.33333" stroke-miterlimit="8" fill="#FFFFFF"/><rect x="1043.5" y="331.5" width="21" height="4" stroke="#FFFFFF" stroke-width="1.33333" stroke-miterlimit="8" fill="#FFFFFF"/><rect x="1076.5" y="331.5" width="21" height="4" stroke="#FFFFFF" stroke-width="1.33333" stroke-miterlimit="8" fill="#FFFFFF"/><rect x="1067.5" y="331.5" width="6" height="4" stroke="#FFFFFF" stroke-width="1.33333" stroke-miterlimit="8" fill="#FFFFFF"/><path d="M1034.95 293.307C1034.95 293.307 1020.8 299.19 1019.28 299.829 1017.77 300.469 1017.01 302.003 1017.01 303.538 1017.01 305.072 1015.87 325.097 1034.95 334.779 1034.95 334.779 1036.68 335.264 1038 334.779 1039.31 334.294 1055.99 326.109 1055.99 303.474 1055.99 303.474 1055.99 301.172 1053.34 299.893 1050.69 298.614 1037.86 293.307 1037.86 293.307 1037.86 293.307 1036.28 292.604 1034.95 293.307Z" stroke="#FFFFFF" stroke-width="2" stroke-miterlimit="8" fill="#FFFFFF" fill-rule="evenodd"/><g clip-path="url(#clip1)"><g clip-path="url(#clip2)"><g clip-path="url(#clip3)"><path d="M12.5 17.3 12.5 18.625 11.5 18.625 11.5 17.3C10.925 17.1 10.5 16.55 10.5 15.875 10.5 15.05 11.175 14.375 12 14.375 12.825 14.375 13.5 15.05 13.5 15.875 13.5 16.525 13.075 17.075 12.5 17.3ZM8.25 8.125C8.25 6.05 9.925 4.375 12 4.375 14.075 4.375 15.75 6.05 15.75 8.125L15.75 10.9 12 10.625 8.25 10.9 8.25 8.125ZM17.25 11 17.25 8.125C17.25 5.225 14.9 2.875 12 2.875 9.1 2.875 6.75 5.225 6.75 8.125L6.75 11 5 11.125 5 20.625 12 21.125 19 20.625 19 11.125 17.25 11Z" stroke="#FFFFFF" stroke-width="0.249953" fill="#4F08A9" transform="matrix(1.04167 0 0 1 1023 301)"/></g></g></g></g></svg>