<svg width="107" height="92" xmlns="http://www.w3.org/2000/svg" xmlns:xlink="http://www.w3.org/1999/xlink" overflow="hidden"><defs><clipPath id="clip0"><rect x="558" y="250" width="107" height="92"/></clipPath></defs><g clip-path="url(#clip0)" transform="translate(-558 -250)"><path d="M605 264C605 256.82 610.82 251 618 251 625.18 251 631 256.82 631 264 631 271.18 625.18 277 618 277 610.82 277 605 271.18 605 264Z" stroke="#FFFFFF" stroke-width="2" stroke-miterlimit="8" fill="none" fill-rule="evenodd"/><path d="M594.002 301.288C593.818 289.139 605.084 279.161 619.166 279.002 633.248 278.843 644.814 288.563 644.998 300.712 644.999 300.808 645 300.904 645 301" stroke="#FFFFFF" stroke-width="2" stroke-miterlimit="8" fill="none" fill-rule="evenodd"/><path d="M572 284.5C572 277.596 577.596 272 584.5 272 591.404 272 597 277.596 597 284.5 597 291.404 591.404 297 584.5 297 577.596 297 572 291.404 572 284.5Z" stroke="#FFFFFF" stroke-width="2" stroke-miterlimit="8" fill="none" fill-rule="evenodd"/><path d="M560.002 321.788C559.814 309.915 571.077 300.161 585.159 300.002 599.241 299.843 610.809 309.339 610.998 321.212 610.999 321.308 611 321.404 611 321.5" stroke="#FFFFFF" stroke-width="2" stroke-miterlimit="8" fill="none" fill-rule="evenodd"/><path d="M609.069 295.618 616.964 303.143 581.456 340.394 573.561 332.869Z" stroke="#FFFFFF" stroke-width="1.33333" stroke-miterlimit="8" fill="#FFFFFF" fill-rule="evenodd"/><path d="M600.943 305.508 608.71 296.376 632.337 316.467 624.57 325.6Z" stroke="#FFFFFF" stroke-width="1.33333" stroke-miterlimit="8" fill="#FFFFFF" fill-rule="evenodd"/><path d="M641.86 291.387 649.705 298.865 623.928 325.908 616.083 318.43Z" stroke="#FFFFFF" stroke-width="1.33333" stroke-miterlimit="8" fill="#FFFFFF" fill-rule="evenodd"/><path d="M633.521 291.029 663.315 275.869 650.677 306.817Z" stroke="#FFFFFF" stroke-width="1.33333" stroke-miterlimit="8" fill="#FFFFFF" fill-rule="evenodd"/></g></svg>