<svg width="111" height="90" xmlns="http://www.w3.org/2000/svg" xmlns:xlink="http://www.w3.org/1999/xlink" overflow="hidden"><defs><clipPath id="clip0"><rect x="566" y="480" width="111" height="90"/></clipPath><clipPath id="clip1"><rect x="597" y="481" width="75" height="82"/></clipPath><clipPath id="clip2"><rect x="597" y="481" width="75" height="82"/></clipPath><clipPath id="clip3"><rect x="597" y="481" width="75" height="82"/></clipPath></defs><g clip-path="url(#clip0)" transform="translate(-566 -480)"><path d="M613.5 500.5C613.5 503.814 611.038 506.5 608 506.5 604.963 506.5 602.5 503.814 602.5 500.5 602.5 497.186 604.963 494.5 608 494.5 611.038 494.5 613.5 497.186 613.5 500.5Z" stroke="#FFFFFF" stroke-miterlimit="8" fill="none" fill-rule="evenodd"/><path d="M621.957 508.978C620.5 508.239 618.752 508.757 618.024 510.235L615.475 515.113 604.259 507.944C603.822 507.648 603.312 507.5 602.73 507.5L590.349 507.5C589.256 507.5 588.31 508.091 587.8 509.052L583.066 517.922C582.265 519.326 582.847 521.174 584.231 521.913 584.668 522.135 585.178 522.283 585.615 522.283 586.634 522.283 587.654 521.691 588.164 520.731L592.097 513.413 596.394 513.413 583.503 537.804 571.413 537.804C569.811 537.804 568.5 539.135 568.5 540.761 568.5 542.387 569.811 543.717 571.413 543.717L585.251 543.717C586.343 543.717 587.29 543.126 587.8 542.165L592.898 532.63 601.273 540.539 600.618 555.396C600.472 557.022 601.71 558.426 603.312 558.5 603.385 558.5 603.385 558.5 603.458 558.5 604.987 558.5 606.298 557.244 606.371 555.691L607.099 539.43C607.172 538.544 606.808 537.731 606.153 537.139L599.088 530.487 606.517 516.443 614.965 521.839C615.62 522.283 616.494 522.43 617.295 522.209 618.097 521.987 618.752 521.47 619.116 520.731L623.122 512.97C623.923 511.565 623.413 509.791 621.957 508.978Z" stroke="#FFFFFF" stroke-miterlimit="8" fill="none" fill-rule="evenodd"/><g clip-path="url(#clip1)"><g clip-path="url(#clip2)"><g clip-path="url(#clip3)"><path d="M46.3281 29.1406C43.0469 29.1406 40.4688 26.4844 40.4688 23.2812 40.4688 20.0781 43.125 17.4219 46.3281 17.4219 49.6094 17.4219 52.1875 20.0781 52.1875 23.2812 52.1875 26.4844 49.5312 29.1406 46.3281 29.1406ZM59.5312 19.6094C59.2188 18.5156 58.8281 17.5 58.2812 16.5625L59.5312 12.8906 56.7188 10.0781 53.0469 11.3281C52.1094 10.7812 51.0938 10.3906 50 10.0781L48.2812 6.64062 44.375 6.64062 42.6562 10.0781C41.5625 10.3906 40.5469 10.7812 39.6094 11.3281L35.9375 10.0781 33.125 12.8906 34.375 16.5625C33.8281 17.5 33.4375 18.5156 33.125 19.6094L29.6875 21.3281 29.6875 25.2344 33.125 26.9531C33.4375 28.0469 33.8281 29.0625 34.375 30L33.125 33.6719 35.8594 36.4062 39.5312 35.1562C40.4688 35.7031 41.4844 36.0938 42.5781 36.4062L44.2969 39.8438 48.2031 39.8438 49.9219 36.4062C51.0156 36.0938 52.0312 35.7031 52.9688 35.1562L56.6406 36.4062 59.4531 33.6719 58.2031 30C58.75 29.0625 59.2188 27.9688 59.5312 26.9531L62.9688 25.2344 62.9688 21.3281 59.5312 19.6094Z" stroke="#FFFFFF" stroke-width="1.4286" fill="none" transform="matrix(1 0 0 1.09333 597 481)"/><path d="M28.6719 57.5781C25.3906 57.5781 22.8125 54.9219 22.8125 51.7187 22.8125 48.4375 25.4687 45.8594 28.6719 45.8594 31.9531 45.8594 34.5312 48.5156 34.5312 51.7187 34.5312 54.9219 31.9531 57.5781 28.6719 57.5781L28.6719 57.5781ZM40.625 45 41.875 41.3281 39.0625 38.5156 35.3906 39.7656C34.4531 39.2188 33.3594 38.8281 32.3438 38.5156L30.625 35.0781 26.7188 35.0781 25 38.5156C23.9062 38.8281 22.8906 39.2188 21.9531 39.7656L18.2812 38.5156 15.5469 41.25 16.7188 44.9219C16.1719 45.8594 15.7813 46.9531 15.4687 47.9688L12.0312 49.6875 12.0312 53.5938 15.4687 55.3125C15.7813 56.4062 16.1719 57.4219 16.7188 58.3594L15.5469 62.0312 18.2812 64.7656 21.9531 63.5938C22.8906 64.1406 23.9062 64.5312 25 64.8438L26.7188 68.2812 30.625 68.2812 32.3438 64.8438C33.4375 64.5312 34.4531 64.1406 35.3906 63.5938L39.0625 64.8438 41.7969 62.0312 40.625 58.4375C41.1719 57.5 41.5625 56.4844 41.875 55.3906L45.3125 53.6719 45.3125 49.7656 41.875 48.0469C41.5625 46.9531 41.1719 45.9375 40.625 45Z" stroke="#FFFFFF" stroke-width="1.4286" fill="none" transform="matrix(1 0 0 1.09333 597 481)"/></g></g></g><path d="M641 552 649 552 649 527 665 527 665 552 673 552 657 568Z" stroke="#FFFFFF" stroke-width="2" stroke-miterlimit="8" fill="none" fill-rule="evenodd"/></g></svg>