<svg width="172" height="82" xmlns="http://www.w3.org/2000/svg" xmlns:xlink="http://www.w3.org/1999/xlink" overflow="hidden"><defs><clipPath id="clip0"><rect x="889" y="300" width="172" height="82"/></clipPath></defs><g clip-path="url(#clip0)" transform="translate(-889 -300)"><path d="M940 339 951.619 339C953.877 339 955.671 339.627 957.003 340.88 958.334 342.133 959 343.847 959 346.022L959 369.025C959 371.201 958.334 372.907 957.003 374.144 955.671 375.381 953.877 376 951.619 376L940 376 940 339ZM945.7 343.752 945.7 371.248 949.792 371.248C952.115 371.248 953.276 370.2 953.276 368.104L953.276 346.849C953.276 344.784 952.163 343.752 949.938 343.752L945.7 343.752Z" fill="#767171" fill-rule="evenodd"/><path d="M906.6 341.333 906.6 357.991 915.303 357.991 915.303 341.333ZM892.16 301 929.84 301C931.947 301 933 302.111 933 304.332L933 359.203C933 361.424 931.947 362.534 929.84 362.534L905.141 362.534C902.808 362.534 901.641 361.356 901.641 359.001L901.641 340.424C901.641 338.001 902.808 336.79 905.141 336.79L915.303 336.79 915.303 322.706 906.94 322.706 906.94 330.985 902.03 330.985 902.03 321.697C902.03 319.273 903.197 318.062 905.53 318.062L916.664 318.062C918.998 318.062 920.165 319.273 920.165 321.697L920.165 358.698 929.305 358.698 929.305 304.534 892.695 304.534 892.695 376.466 933 376.466 933 380 892.16 380C890.053 380 889 378.889 889 376.668L889 304.332C889 302.111 890.053 301 892.16 301Z" fill="#FFC000" fill-rule="evenodd"/><path d="M1002 336 1005.17 336 1005.17 358.865 1011.12 349.618 1014.52 349.618 1014.52 349.71 1007.79 359.601 1015 372 1011.55 372 1005.17 360.59 1005.17 372 1002 372 1002 336Z" fill="#595959" fill-rule="evenodd"/><path d="M1019.52 342 1022.34 342 1022.34 349.124 1026 349.124 1026 351.875 1022.34 351.875 1022.34 369.249 1026 369.249 1026 372 1021.93 372C1020.32 372 1019.52 371.114 1019.52 369.343L1019.52 351.875 1017 351.875 1017 349.124 1019.52 349.124 1019.52 342Z" fill="#595959" fill-rule="evenodd"/><path d="M1057.42 349C1059.14 349 1060 349.862 1060 351.587L1060 367.279C1060 368.703 1059.54 369.886 1058.63 370.828 1057.71 371.769 1056.57 372.24 1055.19 372.24L1050.09 372.24 1050.09 381 1047 381 1047 349.142 1050.09 349.142 1050.09 349.783C1051.32 349.625 1052.54 349.467 1053.77 349.309 1055.32 349.103 1056.53 349 1057.42 349ZM1056.91 351.967 1050.09 352.157 1050.09 369.463 1054.37 369.463C1056.06 369.463 1056.91 368.577 1056.91 366.804L1056.91 351.967Z" fill="#595959" fill-rule="evenodd"/><path d="M966.677 350 974.324 350C976.108 350 977 350.852 977 352.555L977 360.469 975.925 361.531 967.083 361.531 967.083 369.49 973.917 369.49 973.917 365.466 977 365.466 977 369.445C977 371.148 976.108 372 974.324 372L966.677 372C964.892 372 964 371.148 964 369.445L964 352.555C964 350.852 964.892 350 966.677 350ZM967.083 352.51 967.083 359.135 973.917 359.135 973.917 352.51 967.083 352.51Z" fill="#595959" fill-rule="evenodd"/><path d="M985.815 350 993.185 350C995.029 350 995.951 350.852 995.951 352.555L995.951 356.941 992.793 356.941 992.793 352.6 986.207 352.6 986.207 356.444 994.8 362.888C995.6 363.476 996 364.275 996 365.285L996 369.445C996 371.148 995.078 372 993.234 372L985.766 372C983.922 372 983 371.148 983 369.445L983 364.448 986.207 364.448 986.207 369.4 992.793 369.4 992.793 365.013 984.273 358.569C983.457 357.966 983.049 357.183 983.049 356.218L983.049 352.555C983.049 350.852 983.971 350 985.815 350Z" fill="#595959" fill-rule="evenodd"/><path d="M1030.6 350 1038.37 350C1040.12 350 1041 350.852 1041 352.555L1041 369.445C1041 371.148 1040.12 372 1038.37 372L1030.6 372C1028.87 372 1028 371.148 1028 369.445L1028 352.555C1028 350.852 1028.87 350 1030.6 350ZM1031.09 352.645 1031.09 369.355 1037.91 369.355 1037.91 352.645 1031.09 352.645Z" fill="#595959" fill-rule="evenodd"/><path d="M940 301 949.441 301C950.03 301 950.51 301.205 950.883 301.614 951.255 302.023 951.441 302.552 951.441 303.199L951.441 314.965C951.441 316.457 950.529 317.203 948.703 317.203 948.523 317.203 948.258 317.193 947.91 317.173 947.562 317.154 947.309 317.144 947.153 317.144 948.775 322.083 950.39 327.035 952 332L949.369 332 944.126 315.401 944.469 314.846 948.937 314.846 948.937 303.436 942.505 303.436 942.505 332 940 332 940 301Z" fill="#595959" fill-rule="evenodd"/><path d="M974 306 976 306 976 309 974 309 974 306Z" fill="#595959" fill-rule="evenodd"/><path d="M990.209 313C990.957 313 991.509 313.239 991.865 313.718 992.896 313.576 993.92 313.427 994.939 313.272 996.276 313.091 997.288 313 997.976 313 999.325 313 1000 313.705 1000 315.115L1000 332 997.552 332 997.552 315.426 992.215 315.581 992.215 332 989.785 332 989.785 315.426 984.448 315.581 984.448 332 982 332 982 313.116 984.448 313.116 984.448 313.64C985.405 313.511 986.362 313.375 987.319 313.233 988.485 313.078 989.448 313 990.209 313Z" fill="#595959" fill-rule="evenodd"/><path d="M959.059 313 964.941 313C966.314 313 967 313.736 967 315.207L967 322.041 966.173 322.959 959.371 322.959 959.371 329.832 964.629 329.832 964.629 326.357 967 326.357 967 329.793C967 331.264 966.314 332 964.941 332L959.059 332C957.686 332 957 331.264 957 329.793L957 315.207C957 313.736 957.686 313 959.059 313ZM959.371 315.168 959.371 320.889 964.629 320.889 964.629 315.168 959.371 315.168Z" fill="#595959" fill-rule="evenodd"/><path d="M974 313 976 313 976 332 974 332 974 313Z" fill="#595959" fill-rule="evenodd"/><path d="M1005.2 313 1011.78 313C1013.26 313 1014 313.736 1014 315.207L1014 329.793C1014 331.264 1013.26 332 1011.78 332L1005.2 332C1003.73 332 1003 331.264 1003 329.793L1003 315.207C1003 313.736 1003.73 313 1005.2 313ZM1005.62 315.285 1005.62 329.715 1011.38 329.715 1011.38 315.285 1005.62 315.285Z" fill="#595959" fill-rule="evenodd"/></g></svg>