<svg width="219" height="84" xmlns="http://www.w3.org/2000/svg" xmlns:xlink="http://www.w3.org/1999/xlink" overflow="hidden"><defs><clipPath id="clip0"><rect x="886" y="488" width="219" height="84"/></clipPath></defs><g clip-path="url(#clip0)" transform="translate(-886 -488)"><path d="M997.727 526 1007.32 526C1008.12 526 1008.76 526.238 1009.26 526.713 1009.75 527.188 1010 527.802 1010 528.553L1010 536.927 1006.62 536.927 1006.62 528.829 998.385 528.829 998.385 536.42 1008.95 548.428C1009.65 549.226 1010 550.123 1010 551.12L1010 559.447C1010 560.198 1009.75 560.812 1009.26 561.287 1008.76 561.762 1008.12 562 1007.32 562L997.727 562C996.932 562 996.278 561.762 995.767 561.287 995.256 560.812 995 560.198 995 559.447L995 550.314 998.385 550.314 998.385 559.171 1006.62 559.171 1006.62 550.59 996.096 538.583C995.365 537.755 995 536.842 995 535.845L995 528.553C995 527.802 995.256 527.188 995.767 526.713 996.278 526.238 996.932 526 997.727 526Z" fill="#595959" fill-rule="evenodd"/><path d="M1055.69 526 1066.29 526C1067.08 526 1067.73 526.238 1068.24 526.713 1068.75 527.188 1069 527.802 1069 528.553L1069 559.447C1069 560.198 1068.75 560.812 1068.24 561.287 1067.73 561.762 1067.08 562 1066.29 562L1055.69 562C1054.9 562 1054.25 561.762 1053.75 561.287 1053.25 560.812 1053 560.198 1053 559.447L1053 528.553C1053 527.802 1053.25 527.188 1053.75 526.713 1054.25 526.238 1054.9 526 1055.69 526ZM1056.36 528.829 1056.36 559.171 1065.64 559.171 1065.64 528.829 1056.36 528.829Z" fill="#595959" fill-rule="evenodd"/><path d="M1083.42 539C1085.14 539 1086 539.862 1086 541.588L1086 557.279C1086 558.703 1085.54 559.886 1084.63 560.828 1083.71 561.77 1082.57 562.24 1081.19 562.24L1076.09 562.24 1076.09 571 1073 571 1073 539.143 1076.09 539.143 1076.09 539.783C1077.32 539.625 1078.54 539.467 1079.77 539.309 1081.32 539.103 1082.53 539 1083.42 539ZM1082.91 541.967 1076.09 542.157 1076.09 559.463 1080.37 559.463C1082.06 559.463 1082.91 558.577 1082.91 556.804L1082.91 541.967Z" fill="#595959" fill-rule="evenodd"/><path d="M963.676 540 971.324 540C973.108 540 974 540.852 974 542.555L974 550.469 972.925 551.531 964.083 551.531 964.083 559.49 970.917 559.49 970.917 555.466 974 555.466 974 559.445C974 561.148 973.108 562 971.324 562L963.676 562C961.892 562 961 561.148 961 559.445L961 542.555C961 540.852 961.892 540 963.676 540ZM964.083 542.51 964.083 549.135 970.917 549.135 970.917 542.51 964.083 542.51Z" fill="#595959" fill-rule="evenodd"/><path d="M979 540 982.175 540 986.023 557.284 989.917 540 993 540 987.414 562 984.609 562 979 540Z" fill="#595959" fill-rule="evenodd"/><path d="M1017.68 540 1025.32 540C1027.11 540 1028 540.852 1028 542.555L1028 550.469 1026.92 551.531 1018.08 551.531 1018.08 559.49 1024.92 559.49 1024.92 555.466 1028 555.466 1028 559.445C1028 561.148 1027.11 562 1025.32 562L1017.68 562C1015.89 562 1015 561.148 1015 559.445L1015 542.555C1015 540.852 1015.89 540 1017.68 540ZM1018.08 542.51 1018.08 549.135 1024.92 549.135 1024.92 542.51 1018.08 542.51Z" fill="#595959" fill-rule="evenodd"/><path d="M1036.7 540 1044.3 540C1046.1 540 1047 540.852 1047 542.555L1047 546.941 1043.85 546.941 1043.85 542.645 1037.2 542.645 1037.2 559.355 1043.85 559.355 1043.85 554.448 1047 554.448 1047 559.445C1047 561.148 1046.1 562 1044.3 562L1036.7 562C1034.9 562 1034 561.148 1034 559.445L1034 542.555C1034 540.852 1034.9 540 1036.7 540Z" fill="#595959" fill-rule="evenodd"/><path d="M1094.6 540 1101.4 540C1103.1 540 1103.95 540.852 1103.95 542.555L1103.95 546.941 1101.04 546.941 1101.04 542.6 1094.96 542.6 1094.96 546.444 1102.89 552.888C1103.63 553.476 1104 554.275 1104 555.285L1104 559.445C1104 561.148 1103.15 562 1101.45 562L1094.55 562C1092.85 562 1092 561.148 1092 559.445L1092 554.448 1094.96 554.448 1094.96 559.4 1101.04 559.4 1101.04 555.013 1093.18 548.569C1092.42 547.966 1092.05 547.183 1092.05 546.218L1092.05 542.555C1092.05 540.852 1092.9 540 1094.6 540Z" fill="#595959" fill-rule="evenodd"/><path d="M937 527 948.619 527C950.877 527 952.671 527.627 954.003 528.88 955.334 530.133 956 531.846 956 534.022L956 557.025C956 559.201 955.334 560.907 954.003 562.144 952.671 563.381 950.877 564 948.619 564L937 564 937 527ZM942.7 531.752 942.7 559.248 946.792 559.248C949.115 559.248 950.276 558.2 950.276 556.104L950.276 534.849C950.276 532.784 949.163 531.752 946.938 531.752L942.7 531.752Z" fill="#767171" fill-rule="evenodd"/><path d="M904.2 529.333 904.2 545.991 912.705 545.991 912.705 529.333ZM890.088 489 926.912 489C928.971 489 930 490.111 930 492.332L930 547.203C930 549.424 928.971 550.534 926.912 550.534L902.775 550.534C900.494 550.534 899.354 549.356 899.354 547.001L899.354 528.424C899.354 526.001 900.494 524.79 902.775 524.79L912.705 524.79 912.705 510.706 904.533 510.706 904.533 518.985 899.734 518.985 899.734 509.697C899.734 507.273 900.874 506.062 903.155 506.062L914.035 506.062C916.316 506.062 917.456 507.273 917.456 509.697L917.456 546.698 926.389 546.698 926.389 492.534 890.611 492.534 890.611 564.466 930 564.466 930 568 890.088 568C888.029 568 887 566.889 887 564.668L887 492.332C887 490.111 888.029 489 890.088 489Z" fill="#FFC000" fill-rule="evenodd"/><path d="M938 490 947.441 490C948.03 490 948.51 490.198 948.883 490.594 949.255 490.99 949.441 491.502 949.441 492.128L949.441 503.514C949.441 504.958 948.529 505.681 946.703 505.681 946.523 505.681 946.258 505.671 945.91 505.652 945.562 505.633 945.309 505.623 945.153 505.623 946.775 510.403 948.39 515.195 950 520L947.369 520 942.126 503.936 942.469 503.399 946.937 503.399 946.937 492.358 940.505 492.358 940.505 520 938 520 938 490Z" fill="#595959" fill-rule="evenodd"/><path d="M971 494 974 494 974 497 971 497 971 494Z" fill="#595959" fill-rule="evenodd"/><path d="M987.209 501C987.957 501 988.509 501.239 988.865 501.718 989.896 501.576 990.92 501.427 991.939 501.272 993.276 501.091 994.288 501 994.976 501 996.325 501 997 501.705 997 503.115L997 520 994.552 520 994.552 503.426 989.215 503.581 989.215 520 986.785 520 986.785 503.426 981.448 503.581 981.448 520 979 520 979 501.116 981.448 501.116 981.448 501.64C982.405 501.511 983.362 501.375 984.319 501.233 985.485 501.078 986.448 501 987.209 501Z" fill="#595959" fill-rule="evenodd"/><path d="M957.059 501 962.941 501C964.314 501 965 501.736 965 503.207L965 510.041 964.173 510.959 957.371 510.959 957.371 517.832 962.629 517.832 962.629 514.357 965 514.357 965 517.793C965 519.265 964.314 520 962.941 520L957.059 520C955.686 520 955 519.265 955 517.793L955 503.207C955 501.736 955.686 501 957.059 501ZM957.371 503.168 957.371 508.889 962.629 508.889 962.629 503.168 957.371 503.168Z" fill="#595959" fill-rule="evenodd"/><path d="M971 501 974 501 974 520 971 520 971 501Z" fill="#595959" fill-rule="evenodd"/><path d="M1003.2 501 1009.78 501C1011.26 501 1012 501.736 1012 503.207L1012 517.793C1012 519.264 1011.26 520 1009.78 520L1003.2 520C1001.73 520 1001 519.264 1001 517.793L1001 503.207C1001 501.736 1001.73 501 1003.2 501ZM1003.62 503.285 1003.62 517.715 1009.38 517.715 1009.38 503.285 1003.62 503.285Z" fill="#595959" fill-rule="evenodd"/></g></svg>