<svg width="256" height="80" xmlns="http://www.w3.org/2000/svg" xmlns:xlink="http://www.w3.org/1999/xlink" overflow="hidden"><defs><clipPath id="clip0"><rect x="887" y="394" width="256" height="80"/></clipPath></defs><g clip-path="url(#clip0)" transform="translate(-887 -394)"><path d="M941.791 430 955.1 430C957.7 430 959 431.288 959 433.865L959 443.687 952.645 443.687 952.645 435.394 944.382 435.394 944.382 466.606 952.645 466.606 952.645 457.776 959 457.776 959 468.162C959 470.721 957.7 472 955.1 472L941.791 472C939.264 472 938 470.721 938 468.162L938 433.865C938 431.288 939.264 430 941.791 430Z" fill="#767171" fill-rule="evenodd"/><path d="M985 433 988 433 988 470 985 470 985 433Z" fill="#595959" fill-rule="evenodd"/><path d="M994 433 997 433 997 470 994 470 994 433Z" fill="#595959" fill-rule="evenodd"/><path d="M1022 433 1025.09 433 1025.09 447.635C1026.32 447.477 1027.54 447.319 1028.77 447.162 1030.32 446.957 1031.53 446.854 1032.42 446.854 1034.14 446.854 1035 447.713 1035 449.431L1035 465.059C1035 466.477 1034.54 467.656 1033.63 468.593 1032.71 469.531 1031.57 470 1030.19 470L1022 470 1022 433ZM1031.91 449.81 1025.09 449.999 1025.09 467.234 1029.37 467.234C1031.06 467.234 1031.91 466.351 1031.91 464.586L1031.91 449.81Z" fill="#595959" fill-rule="evenodd"/><path d="M1102 438 1105 438 1105 442 1102 442 1102 438Z" fill="#595959" fill-rule="evenodd"/><path d="M1092.8 440 1095.93 440 1095.93 447.124 1100 447.124 1100 449.875 1095.93 449.875 1095.93 467.249 1100 467.249 1100 470 1095.48 470C1093.69 470 1092.8 469.114 1092.8 467.343L1092.8 449.875 1090 449.875 1090 447.124 1092.8 447.124 1092.8 440Z" fill="#595959" fill-rule="evenodd"/><path d="M1067.41 447C1069.14 447 1070 447.854 1070 449.561L1070 454.659 1066.91 454.659 1066.91 449.937 1061.14 450.125 1061.14 470 1058 470 1058 447.141 1061.14 447.141 1061.14 447.775C1062.17 447.619 1063.22 447.454 1064.27 447.282 1065.53 447.094 1066.57 447 1067.41 447Z" fill="#595959" fill-rule="evenodd"/><path d="M1140.42 447C1142.14 447 1143 447.854 1143 449.561L1143 470 1139.91 470 1139.91 449.937 1133.09 450.125 1133.09 470 1130 470 1130 447.141 1133.09 447.141 1133.09 447.775C1134.3 447.619 1135.52 447.454 1136.74 447.282 1138.23 447.094 1139.46 447 1140.42 447Z" fill="#595959" fill-rule="evenodd"/><path d="M968.605 447 976.372 447C978.124 447 979 447.89 979 449.671L979 467.329C979 469.11 978.124 470 976.372 470L968.605 470C966.868 470 966 469.11 966 467.329L966 449.671C966 447.89 966.868 447 968.605 447ZM969.093 449.766 969.093 467.234 975.907 467.234 975.907 449.766 969.093 449.766Z" fill="#595959" fill-rule="evenodd"/><path d="M1004.88 447 1012.38 447C1014.13 447 1015 447.885 1015 449.655L1015 469.859 1011.93 469.859 1011.93 469.225C1010.7 469.397 1009.46 469.561 1008.23 469.718 1006.7 469.906 1005.47 470 1004.55 470 1002.85 470 1002 469.154 1002 467.463L1002 459.123C1002 457.368 1002.88 456.491 1004.65 456.491L1011.98 456.491 1011.98 449.608 1005.28 449.608 1005.28 453.508 1002.26 453.508 1002.26 449.655C1002.26 447.885 1003.13 447 1004.88 447ZM1005.02 458.935 1005.02 467.157 1011.98 467.016 1011.98 458.935 1005.02 458.935Z" fill="#595959" fill-rule="evenodd"/><path d="M1042.6 447 1050.37 447C1052.12 447 1053 447.89 1053 449.671L1053 467.329C1053 469.11 1052.12 470 1050.37 470L1042.6 470C1040.87 470 1040 469.11 1040 467.329L1040 449.671C1040 447.89 1040.87 447 1042.6 447ZM1043.09 449.766 1043.09 467.234 1049.91 467.234 1049.91 449.766 1043.09 449.766Z" fill="#595959" fill-rule="evenodd"/><path d="M1075.88 447 1083.38 447C1085.13 447 1086 447.885 1086 449.655L1086 469.859 1082.93 469.859 1082.93 469.225C1081.7 469.397 1080.46 469.561 1079.23 469.718 1077.7 469.906 1076.47 470 1075.55 470 1073.85 470 1073 469.154 1073 467.463L1073 459.123C1073 457.368 1073.88 456.491 1075.65 456.491L1082.98 456.491 1082.98 449.608 1076.28 449.608 1076.28 453.508 1073.26 453.508 1073.26 449.655C1073.26 447.885 1074.13 447 1075.88 447ZM1076.02 458.935 1076.02 467.157 1082.98 467.016 1082.98 458.935 1076.02 458.935Z" fill="#595959" fill-rule="evenodd"/><path d="M1102 447 1105 447 1105 470 1102 470 1102 447Z" fill="#595959" fill-rule="evenodd"/><path d="M1113.6 447 1121.37 447C1123.12 447 1124 447.89 1124 449.671L1124 467.329C1124 469.11 1123.12 470 1121.37 470L1113.6 470C1111.87 470 1111 469.11 1111 467.329L1111 449.671C1111 447.89 1111.87 447 1113.6 447ZM1114.09 449.766 1114.09 467.234 1120.91 467.234 1120.91 449.766 1114.09 449.766Z" fill="#595959" fill-rule="evenodd"/><path d="M941 394 950.441 394C951.03 394 951.51 394.205 951.883 394.614 952.255 395.023 952.441 395.552 952.441 396.199L952.441 407.965C952.441 409.457 951.529 410.203 949.703 410.203 949.523 410.203 949.258 410.193 948.91 410.173 948.562 410.154 948.309 410.144 948.153 410.144 949.775 415.083 951.39 420.035 953 425L950.369 425 945.126 408.401 945.469 407.846 949.937 407.846 949.937 396.436 943.505 396.436 943.505 425 941 425 941 394Z" fill="#595959" fill-rule="evenodd"/><path d="M975 398 977 398 977 401 975 401 975 398Z" fill="#595959" fill-rule="evenodd"/><path d="M991.209 406C991.957 406 992.509 406.239 992.865 406.718 993.896 406.576 994.92 406.427 995.939 406.272 997.276 406.091 998.288 406 998.976 406 1000.33 406 1001 406.705 1001 408.115L1001 425 998.552 425 998.552 408.426 993.215 408.581 993.215 425 990.785 425 990.785 408.426 985.448 408.581 985.448 425 983 425 983 406.116 985.448 406.116 985.448 406.64C986.405 406.511 987.362 406.375 988.319 406.233 989.485 406.078 990.448 406 991.209 406Z" fill="#595959" fill-rule="evenodd"/><path d="M960.059 406 965.941 406C967.314 406 968 406.736 968 408.207L968 415.041 967.173 415.959 960.371 415.959 960.371 422.832 965.629 422.832 965.629 419.357 968 419.357 968 422.793C968 424.264 967.314 425 965.941 425L960.059 425C958.686 425 958 424.264 958 422.793L958 408.207C958 406.736 958.686 406 960.059 406ZM960.371 408.168 960.371 413.889 965.629 413.889 965.629 408.168 960.371 408.168Z" fill="#595959" fill-rule="evenodd"/><path d="M975 406 977 406 977 425 975 425 975 406Z" fill="#595959" fill-rule="evenodd"/><path d="M1006.2 406 1012.78 406C1014.26 406 1015 406.736 1015 408.207L1015 422.793C1015 424.264 1014.26 425 1012.78 425L1006.2 425C1004.73 425 1004 424.264 1004 422.793L1004 408.207C1004 406.736 1004.73 406 1006.2 406ZM1006.62 408.285 1006.62 422.715 1012.38 422.715 1012.38 408.285 1006.62 408.285Z" fill="#595959" fill-rule="evenodd"/><path d="M905.2 434.333 905.2 450.991 913.705 450.991 913.705 434.333ZM891.088 394 927.912 394C929.971 394 931 395.111 931 397.332L931 452.203C931 454.424 929.971 455.534 927.912 455.534L903.775 455.534C901.494 455.534 900.354 454.356 900.354 452.001L900.354 433.424C900.354 431.001 901.494 429.79 903.775 429.79L913.705 429.79 913.705 415.706 905.533 415.706 905.533 423.985 900.734 423.985 900.734 414.697C900.734 412.273 901.874 411.062 904.155 411.062L915.035 411.062C917.316 411.062 918.456 412.273 918.456 414.697L918.456 451.698 927.389 451.698 927.389 397.534 891.611 397.534 891.611 469.466 931 469.466 931 473 891.088 473C889.029 473 888 471.889 888 469.668L888 397.332C888 395.111 889.029 394 891.088 394Z" fill="#FFC000" fill-rule="evenodd"/></g></svg>